<?xml version="1.0" encoding="utf-8" standalone="no"?>
<!DOCTYPE svg PUBLIC "-//W3C//DTD SVG 1.1//EN"
  "http://www.w3.org/Graphics/SVG/1.1/DTD/svg11.dtd">
<!-- Created with matplotlib (https://matplotlib.org/) -->
<svg height="165.125pt" version="1.1" viewBox="0 0 223.45125 165.125" width="223.45125pt" xmlns="http://www.w3.org/2000/svg" xmlns:xlink="http://www.w3.org/1999/xlink">
 <metadata>
  <rdf:RDF xmlns:cc="http://creativecommons.org/ns#" xmlns:dc="http://purl.org/dc/elements/1.1/" xmlns:rdf="http://www.w3.org/1999/02/22-rdf-syntax-ns#">
   <cc:Work>
    <dc:type rdf:resource="http://purl.org/dc/dcmitype/StillImage"/>
    <dc:date>2024-09-02T17:28:20.274699</dc:date>
    <dc:format>image/svg+xml</dc:format>
    <dc:creator>
     <cc:Agent>
      <dc:title>Matplotlib v3.3.4, https://matplotlib.org/</dc:title>
     </cc:Agent>
    </dc:creator>
   </cc:Work>
  </rdf:RDF>
 </metadata>
 <defs>
  <style type="text/css">*{stroke-linecap:butt;stroke-linejoin:round;}</style>
 </defs>
 <g id="figure_1">
  <g id="patch_1">
   <path d="M 0 165.125 
L 223.45125 165.125 
L 223.45125 0 
L 0 0 
z
" style="fill:#ffffff;"/>
  </g>
  <g id="axes_1">
   <g id="patch_2">
    <path d="M 29.71125 144.9775 
L 213.85125 144.9775 
L 213.85125 6.3775 
L 29.71125 6.3775 
z
" style="fill:#ffffff;"/>
   </g>
   <g id="matplotlib.axis_1">
    <g id="xtick_1">
     <g id="line2d_1">
      <defs>
       <path d="M 0 0 
L 0 -3 
" id="m5f21d4d9ed" style="stroke:#000000;stroke-width:0.5;"/>
      </defs>
      <g>
       <use style="stroke:#000000;stroke-width:0.5;" x="29.71125" xlink:href="#m5f21d4d9ed" y="144.9775"/>
      </g>
     </g>
     <g id="text_1">
      <!-- 0 -->
      <g transform="translate(27.71125 151.5325)scale(0.08 -0.08)">
       <defs>
        <path d="M 3.609375 32.71875 
Q 3.609375 44.046875 7.03125 52.21875 
Q 10.453125 60.40625 16.109375 64.40625 
Q 20.515625 67.578125 25.203125 67.578125 
Q 32.8125 67.578125 38.875 59.8125 
Q 46.4375 50.203125 46.4375 33.734375 
Q 46.4375 22.21875 43.109375 14.15625 
Q 39.796875 6.109375 34.640625 2.46875 
Q 29.5 -1.171875 24.703125 -1.171875 
Q 15.234375 -1.171875 8.9375 10.015625 
Q 3.609375 19.4375 3.609375 32.71875 
z
M 13.1875 31.5 
Q 13.1875 17.828125 16.546875 9.1875 
Q 19.34375 1.90625 24.859375 1.90625 
Q 27.484375 1.90625 30.3125 4.265625 
Q 33.15625 6.640625 34.625 12.203125 
Q 36.859375 20.609375 36.859375 35.890625 
Q 36.859375 47.21875 34.515625 54.78125 
Q 32.765625 60.40625 29.984375 62.75 
Q 27.984375 64.359375 25.140625 64.359375 
Q 21.828125 64.359375 19.234375 61.375 
Q 15.71875 57.328125 14.453125 48.625 
Q 13.1875 39.9375 13.1875 31.5 
z
" id="TimesNewRomanPSMT-48"/>
       </defs>
       <use xlink:href="#TimesNewRomanPSMT-48"/>
      </g>
     </g>
    </g>
    <g id="xtick_2">
     <g id="line2d_2">
      <g>
       <use style="stroke:#000000;stroke-width:0.5;" x="60.40125" xlink:href="#m5f21d4d9ed" y="144.9775"/>
      </g>
     </g>
     <g id="text_2">
      <!-- 100 -->
      <g transform="translate(54.40125 151.5325)scale(0.08 -0.08)">
       <defs>
        <path d="M 11.71875 59.71875 
L 27.828125 67.578125 
L 29.4375 67.578125 
L 29.4375 11.671875 
Q 29.4375 6.109375 29.90625 4.734375 
Q 30.375 3.375 31.828125 2.640625 
Q 33.296875 1.90625 37.796875 1.8125 
L 37.796875 0 
L 12.890625 0 
L 12.890625 1.8125 
Q 17.578125 1.90625 18.9375 2.609375 
Q 20.3125 3.328125 20.84375 4.515625 
Q 21.390625 5.71875 21.390625 11.671875 
L 21.390625 47.40625 
Q 21.390625 54.640625 20.90625 56.6875 
Q 20.5625 58.25 19.65625 58.984375 
Q 18.75 59.71875 17.484375 59.71875 
Q 15.671875 59.71875 12.453125 58.203125 
z
" id="TimesNewRomanPSMT-49"/>
       </defs>
       <use xlink:href="#TimesNewRomanPSMT-49"/>
       <use x="50" xlink:href="#TimesNewRomanPSMT-48"/>
       <use x="100" xlink:href="#TimesNewRomanPSMT-48"/>
      </g>
     </g>
    </g>
    <g id="xtick_3">
     <g id="line2d_3">
      <g>
       <use style="stroke:#000000;stroke-width:0.5;" x="91.09125" xlink:href="#m5f21d4d9ed" y="144.9775"/>
      </g>
     </g>
     <g id="text_3">
      <!-- 200 -->
      <g transform="translate(85.09125 151.5325)scale(0.08 -0.08)">
       <defs>
        <path d="M 45.84375 12.75 
L 41.21875 0 
L 2.15625 0 
L 2.15625 1.8125 
Q 19.390625 17.53125 26.421875 27.484375 
Q 33.453125 37.453125 33.453125 45.703125 
Q 33.453125 52 29.59375 56.046875 
Q 25.734375 60.109375 20.359375 60.109375 
Q 15.484375 60.109375 11.59375 57.25 
Q 7.71875 54.390625 5.859375 48.875 
L 4.046875 48.875 
Q 5.28125 57.90625 10.328125 62.734375 
Q 15.375 67.578125 22.953125 67.578125 
Q 31 67.578125 36.390625 62.40625 
Q 41.796875 57.234375 41.796875 50.203125 
Q 41.796875 45.171875 39.453125 40.140625 
Q 35.84375 32.234375 27.734375 23.390625 
Q 15.578125 10.109375 12.546875 7.375 
L 29.828125 7.375 
Q 35.109375 7.375 37.234375 7.765625 
Q 39.359375 8.15625 41.0625 9.34375 
Q 42.78125 10.546875 44.046875 12.75 
z
" id="TimesNewRomanPSMT-50"/>
       </defs>
       <use xlink:href="#TimesNewRomanPSMT-50"/>
       <use x="50" xlink:href="#TimesNewRomanPSMT-48"/>
       <use x="100" xlink:href="#TimesNewRomanPSMT-48"/>
      </g>
     </g>
    </g>
    <g id="xtick_4">
     <g id="line2d_4">
      <g>
       <use style="stroke:#000000;stroke-width:0.5;" x="121.78125" xlink:href="#m5f21d4d9ed" y="144.9775"/>
      </g>
     </g>
     <g id="text_4">
      <!-- 300 -->
      <g transform="translate(115.78125 151.5325)scale(0.08 -0.08)">
       <defs>
        <path d="M 5.078125 53.609375 
Q 7.90625 60.296875 12.21875 63.9375 
Q 16.546875 67.578125 23 67.578125 
Q 30.953125 67.578125 35.203125 62.40625 
Q 38.421875 58.546875 38.421875 54.15625 
Q 38.421875 46.921875 29.34375 39.203125 
Q 35.453125 36.8125 38.578125 32.375 
Q 41.703125 27.9375 41.703125 21.921875 
Q 41.703125 13.328125 36.234375 7.03125 
Q 29.109375 -1.171875 15.578125 -1.171875 
Q 8.890625 -1.171875 6.46875 0.484375 
Q 4.046875 2.15625 4.046875 4.046875 
Q 4.046875 5.46875 5.1875 6.546875 
Q 6.34375 7.625 7.953125 7.625 
Q 9.1875 7.625 10.453125 7.234375 
Q 11.28125 6.984375 14.203125 5.4375 
Q 17.140625 3.90625 18.265625 3.609375 
Q 20.0625 3.078125 22.125 3.078125 
Q 27.09375 3.078125 30.78125 6.9375 
Q 34.46875 10.796875 34.46875 16.0625 
Q 34.46875 19.921875 32.765625 23.578125 
Q 31.5 26.3125 29.984375 27.734375 
Q 27.875 29.6875 24.21875 31.265625 
Q 20.5625 32.859375 16.75 32.859375 
L 15.1875 32.859375 
L 15.1875 34.328125 
Q 19.046875 34.8125 22.921875 37.109375 
Q 26.8125 39.40625 28.5625 42.625 
Q 30.328125 45.84375 30.328125 49.703125 
Q 30.328125 54.734375 27.171875 57.828125 
Q 24.03125 60.9375 19.34375 60.9375 
Q 11.765625 60.9375 6.6875 52.828125 
z
" id="TimesNewRomanPSMT-51"/>
       </defs>
       <use xlink:href="#TimesNewRomanPSMT-51"/>
       <use x="50" xlink:href="#TimesNewRomanPSMT-48"/>
       <use x="100" xlink:href="#TimesNewRomanPSMT-48"/>
      </g>
     </g>
    </g>
    <g id="xtick_5">
     <g id="line2d_5">
      <g>
       <use style="stroke:#000000;stroke-width:0.5;" x="152.47125" xlink:href="#m5f21d4d9ed" y="144.9775"/>
      </g>
     </g>
     <g id="text_5">
      <!-- 400 -->
      <g transform="translate(146.47125 151.5325)scale(0.08 -0.08)">
       <defs>
        <path d="M 46.53125 24.421875 
L 46.53125 17.484375 
L 37.640625 17.484375 
L 37.640625 0 
L 29.59375 0 
L 29.59375 17.484375 
L 1.5625 17.484375 
L 1.5625 23.734375 
L 32.28125 67.578125 
L 37.640625 67.578125 
L 37.640625 24.421875 
z
M 29.59375 24.421875 
L 29.59375 57.28125 
L 6.34375 24.421875 
z
" id="TimesNewRomanPSMT-52"/>
       </defs>
       <use xlink:href="#TimesNewRomanPSMT-52"/>
       <use x="50" xlink:href="#TimesNewRomanPSMT-48"/>
       <use x="100" xlink:href="#TimesNewRomanPSMT-48"/>
      </g>
     </g>
    </g>
    <g id="xtick_6">
     <g id="line2d_6">
      <g>
       <use style="stroke:#000000;stroke-width:0.5;" x="183.16125" xlink:href="#m5f21d4d9ed" y="144.9775"/>
      </g>
     </g>
     <g id="text_6">
      <!-- 500 -->
      <g transform="translate(177.16125 151.5325)scale(0.08 -0.08)">
       <defs>
        <path d="M 43.40625 66.21875 
L 39.59375 57.90625 
L 19.671875 57.90625 
L 15.328125 49.03125 
Q 28.265625 47.125 35.84375 39.40625 
Q 42.328125 32.765625 42.328125 23.78125 
Q 42.328125 18.5625 40.203125 14.109375 
Q 38.09375 9.671875 34.859375 6.546875 
Q 31.640625 3.421875 27.6875 1.515625 
Q 22.078125 -1.171875 16.15625 -1.171875 
Q 10.203125 -1.171875 7.484375 0.84375 
Q 4.78125 2.875 4.78125 5.328125 
Q 4.78125 6.6875 5.90625 7.734375 
Q 7.03125 8.796875 8.734375 8.796875 
Q 10.015625 8.796875 10.96875 8.40625 
Q 11.921875 8.015625 14.203125 6.390625 
Q 17.875 3.859375 21.625 3.859375 
Q 27.34375 3.859375 31.65625 8.171875 
Q 35.984375 12.5 35.984375 18.703125 
Q 35.984375 24.703125 32.125 29.90625 
Q 28.265625 35.109375 21.484375 37.9375 
Q 16.15625 40.140625 6.984375 40.484375 
L 19.671875 66.21875 
z
" id="TimesNewRomanPSMT-53"/>
       </defs>
       <use xlink:href="#TimesNewRomanPSMT-53"/>
       <use x="50" xlink:href="#TimesNewRomanPSMT-48"/>
       <use x="100" xlink:href="#TimesNewRomanPSMT-48"/>
      </g>
     </g>
    </g>
    <g id="xtick_7">
     <g id="line2d_7">
      <g>
       <use style="stroke:#000000;stroke-width:0.5;" x="213.85125" xlink:href="#m5f21d4d9ed" y="144.9775"/>
      </g>
     </g>
     <g id="text_7">
      <!-- 600 -->
      <g transform="translate(207.85125 151.5325)scale(0.08 -0.08)">
       <defs>
        <path d="M 44.828125 67.578125 
L 44.828125 65.765625 
Q 38.375 65.140625 34.296875 63.203125 
Q 30.21875 61.28125 26.234375 57.328125 
Q 22.265625 53.375 19.65625 48.515625 
Q 17.046875 43.65625 15.28125 36.96875 
Q 22.3125 41.796875 29.390625 41.796875 
Q 36.1875 41.796875 41.15625 36.328125 
Q 46.140625 30.859375 46.140625 22.265625 
Q 46.140625 13.96875 41.109375 7.125 
Q 35.0625 -1.171875 25.09375 -1.171875 
Q 18.3125 -1.171875 13.578125 3.328125 
Q 4.296875 12.0625 4.296875 25.984375 
Q 4.296875 34.859375 7.859375 42.859375 
Q 11.421875 50.875 18.03125 57.078125 
Q 24.65625 63.28125 30.703125 65.421875 
Q 36.765625 67.578125 42 67.578125 
z
M 14.453125 33.40625 
Q 13.578125 26.8125 13.578125 22.75 
Q 13.578125 18.0625 15.3125 12.5625 
Q 17.046875 7.078125 20.453125 3.859375 
Q 22.953125 1.5625 26.515625 1.5625 
Q 30.765625 1.5625 34.109375 5.5625 
Q 37.453125 9.578125 37.453125 17 
Q 37.453125 25.34375 34.125 31.4375 
Q 30.8125 37.546875 24.703125 37.546875 
Q 22.859375 37.546875 20.734375 36.765625 
Q 18.609375 35.984375 14.453125 33.40625 
z
" id="TimesNewRomanPSMT-54"/>
       </defs>
       <use xlink:href="#TimesNewRomanPSMT-54"/>
       <use x="50" xlink:href="#TimesNewRomanPSMT-48"/>
       <use x="100" xlink:href="#TimesNewRomanPSMT-48"/>
      </g>
     </g>
    </g>
    <g id="text_8">
     <!-- Time Step (fine grid) -->
     <g transform="translate(88.043125 159.79875)scale(0.08 -0.08)">
      <defs>
       <path d="M 57.859375 66.21875 
L 58.59375 50.6875 
L 56.734375 50.6875 
Q 56.203125 54.78125 55.28125 56.546875 
Q 53.765625 59.375 51.25 60.71875 
Q 48.734375 62.0625 44.625 62.0625 
L 35.296875 62.0625 
L 35.296875 11.46875 
Q 35.296875 5.375 36.625 3.859375 
Q 38.484375 1.8125 42.328125 1.8125 
L 44.625 1.8125 
L 44.625 0 
L 16.546875 0 
L 16.546875 1.8125 
L 18.890625 1.8125 
Q 23.09375 1.8125 24.859375 4.34375 
Q 25.921875 5.90625 25.921875 11.46875 
L 25.921875 62.0625 
L 17.96875 62.0625 
Q 13.328125 62.0625 11.375 61.375 
Q 8.84375 60.453125 7.03125 57.8125 
Q 5.21875 55.171875 4.890625 50.6875 
L 3.03125 50.6875 
L 3.8125 66.21875 
z
" id="TimesNewRomanPSMT-84"/>
       <path d="M 14.5 69.4375 
Q 16.546875 69.4375 17.984375 67.984375 
Q 19.4375 66.546875 19.4375 64.5 
Q 19.4375 62.453125 17.984375 60.984375 
Q 16.546875 59.515625 14.5 59.515625 
Q 12.453125 59.515625 10.984375 60.984375 
Q 9.515625 62.453125 9.515625 64.5 
Q 9.515625 66.546875 10.953125 67.984375 
Q 12.40625 69.4375 14.5 69.4375 
z
M 18.5625 46.046875 
L 18.5625 10.109375 
Q 18.5625 5.90625 19.171875 4.515625 
Q 19.78125 3.125 20.96875 2.4375 
Q 22.171875 1.765625 25.34375 1.765625 
L 25.34375 0 
L 3.609375 0 
L 3.609375 1.765625 
Q 6.890625 1.765625 8 2.390625 
Q 9.125 3.03125 9.78125 4.484375 
Q 10.453125 5.953125 10.453125 10.109375 
L 10.453125 27.34375 
Q 10.453125 34.625 10.015625 36.765625 
Q 9.671875 38.328125 8.9375 38.9375 
Q 8.203125 39.546875 6.9375 39.546875 
Q 5.5625 39.546875 3.609375 38.8125 
L 2.9375 40.578125 
L 16.40625 46.046875 
z
" id="TimesNewRomanPSMT-105"/>
       <path d="M 16.40625 36.53125 
Q 21.296875 41.40625 22.171875 42.140625 
Q 24.359375 44 26.890625 45.015625 
Q 29.4375 46.046875 31.9375 46.046875 
Q 36.140625 46.046875 39.15625 43.59375 
Q 42.1875 41.15625 43.21875 36.53125 
Q 48.25 42.390625 51.703125 44.21875 
Q 55.171875 46.046875 58.84375 46.046875 
Q 62.40625 46.046875 65.15625 44.21875 
Q 67.921875 42.390625 69.53125 38.234375 
Q 70.609375 35.40625 70.609375 29.34375 
L 70.609375 10.109375 
Q 70.609375 5.90625 71.234375 4.34375 
Q 71.734375 3.265625 73.046875 2.515625 
Q 74.359375 1.765625 77.34375 1.765625 
L 77.34375 0 
L 55.28125 0 
L 55.28125 1.765625 
L 56.203125 1.765625 
Q 59.078125 1.765625 60.6875 2.875 
Q 61.8125 3.65625 62.3125 5.375 
Q 62.5 6.203125 62.5 10.109375 
L 62.5 29.34375 
Q 62.5 34.8125 61.1875 37.0625 
Q 59.28125 40.1875 55.078125 40.1875 
Q 52.484375 40.1875 49.875 38.890625 
Q 47.265625 37.59375 43.5625 34.078125 
L 43.453125 33.546875 
L 43.5625 31.453125 
L 43.5625 10.109375 
Q 43.5625 5.515625 44.0625 4.390625 
Q 44.578125 3.265625 45.984375 2.515625 
Q 47.40625 1.765625 50.828125 1.765625 
L 50.828125 0 
L 28.21875 0 
L 28.21875 1.765625 
Q 31.9375 1.765625 33.328125 2.640625 
Q 34.71875 3.515625 35.25 5.28125 
Q 35.5 6.109375 35.5 10.109375 
L 35.5 29.34375 
Q 35.5 34.8125 33.890625 37.203125 
Q 31.734375 40.328125 27.875 40.328125 
Q 25.25 40.328125 22.65625 38.921875 
Q 18.609375 36.765625 16.40625 34.078125 
L 16.40625 10.109375 
Q 16.40625 5.71875 17.015625 4.390625 
Q 17.625 3.078125 18.8125 2.421875 
Q 20.015625 1.765625 23.6875 1.765625 
L 23.6875 0 
L 1.5625 0 
L 1.5625 1.765625 
Q 4.640625 1.765625 5.859375 2.421875 
Q 7.078125 3.078125 7.703125 4.515625 
Q 8.34375 5.953125 8.34375 10.109375 
L 8.34375 27.203125 
Q 8.34375 34.578125 7.90625 36.71875 
Q 7.5625 38.328125 6.828125 38.9375 
Q 6.109375 39.546875 4.828125 39.546875 
Q 3.46875 39.546875 1.5625 38.8125 
L 0.828125 40.578125 
L 14.3125 46.046875 
L 16.40625 46.046875 
z
" id="TimesNewRomanPSMT-109"/>
       <path d="M 10.640625 27.875 
Q 10.59375 17.921875 15.484375 12.25 
Q 20.359375 6.59375 26.953125 6.59375 
Q 31.34375 6.59375 34.59375 9 
Q 37.84375 11.421875 40.046875 17.28125 
L 41.546875 16.3125 
Q 40.53125 9.625 35.59375 4.125 
Q 30.671875 -1.375 23.25 -1.375 
Q 15.1875 -1.375 9.453125 4.90625 
Q 3.71875 11.1875 3.71875 21.78125 
Q 3.71875 33.25 9.59375 39.671875 
Q 15.484375 46.09375 24.359375 46.09375 
Q 31.890625 46.09375 36.71875 41.140625 
Q 41.546875 36.1875 41.546875 27.875 
z
M 10.640625 30.71875 
L 31.34375 30.71875 
Q 31.109375 35.015625 30.328125 36.765625 
Q 29.109375 39.5 26.6875 41.0625 
Q 24.265625 42.625 21.625 42.625 
Q 17.578125 42.625 14.375 39.46875 
Q 11.1875 36.328125 10.640625 30.71875 
z
" id="TimesNewRomanPSMT-101"/>
       <path id="TimesNewRomanPSMT-32"/>
       <path d="M 45.84375 67.71875 
L 45.84375 44.828125 
L 44.046875 44.828125 
Q 43.171875 51.421875 40.890625 55.328125 
Q 38.625 59.234375 34.421875 61.515625 
Q 30.21875 63.8125 25.734375 63.8125 
Q 20.65625 63.8125 17.328125 60.71875 
Q 14.015625 57.625 14.015625 53.65625 
Q 14.015625 50.640625 16.109375 48.140625 
Q 19.140625 44.484375 30.515625 38.375 
Q 39.796875 33.40625 43.1875 30.734375 
Q 46.578125 28.078125 48.40625 24.453125 
Q 50.25 20.84375 50.25 16.890625 
Q 50.25 9.375 44.40625 3.921875 
Q 38.578125 -1.515625 29.390625 -1.515625 
Q 26.515625 -1.515625 23.96875 -1.078125 
Q 22.46875 -0.828125 17.703125 0.703125 
Q 12.9375 2.25 11.671875 2.25 
Q 10.453125 2.25 9.734375 1.515625 
Q 9.03125 0.78125 8.6875 -1.515625 
L 6.890625 -1.515625 
L 6.890625 21.1875 
L 8.6875 21.1875 
Q 9.96875 14.0625 12.109375 10.515625 
Q 14.265625 6.984375 18.671875 4.640625 
Q 23.09375 2.296875 28.375 2.296875 
Q 34.46875 2.296875 38 5.515625 
Q 41.546875 8.734375 41.546875 13.140625 
Q 41.546875 15.578125 40.203125 18.0625 
Q 38.875 20.5625 36.03125 22.703125 
Q 34.125 24.171875 25.625 28.921875 
Q 17.140625 33.6875 13.546875 36.515625 
Q 9.96875 39.359375 8.109375 42.765625 
Q 6.25 46.1875 6.25 50.296875 
Q 6.25 57.421875 11.71875 62.5625 
Q 17.1875 67.71875 25.640625 67.71875 
Q 30.90625 67.71875 36.8125 65.140625 
Q 39.546875 63.921875 40.671875 63.921875 
Q 41.9375 63.921875 42.75 64.671875 
Q 43.5625 65.4375 44.046875 67.71875 
z
" id="TimesNewRomanPSMT-83"/>
       <path d="M 16.109375 59.421875 
L 16.109375 44.734375 
L 26.5625 44.734375 
L 26.5625 41.3125 
L 16.109375 41.3125 
L 16.109375 12.3125 
Q 16.109375 7.953125 17.359375 6.4375 
Q 18.609375 4.9375 20.5625 4.9375 
Q 22.171875 4.9375 23.6875 5.9375 
Q 25.203125 6.9375 26.03125 8.890625 
L 27.9375 8.890625 
Q 26.21875 4.109375 23.09375 1.6875 
Q 19.96875 -0.734375 16.65625 -0.734375 
Q 14.40625 -0.734375 12.25 0.515625 
Q 10.109375 1.765625 9.078125 4.078125 
Q 8.0625 6.390625 8.0625 11.234375 
L 8.0625 41.3125 
L 0.984375 41.3125 
L 0.984375 42.921875 
Q 3.65625 44 6.46875 46.5625 
Q 9.28125 49.125 11.46875 52.640625 
Q 12.59375 54.5 14.59375 59.421875 
z
" id="TimesNewRomanPSMT-116"/>
       <path d="M -0.09375 40.28125 
L 13.671875 45.84375 
L 15.53125 45.84375 
L 15.53125 35.40625 
Q 19 41.3125 22.484375 43.671875 
Q 25.984375 46.046875 29.828125 46.046875 
Q 36.578125 46.046875 41.0625 40.765625 
Q 46.578125 34.328125 46.578125 23.96875 
Q 46.578125 12.40625 39.9375 4.828125 
Q 34.46875 -1.375 26.171875 -1.375 
Q 22.5625 -1.375 19.921875 -0.34375 
Q 17.96875 0.390625 15.53125 2.59375 
L 15.53125 -11.03125 
Q 15.53125 -15.625 16.09375 -16.859375 
Q 16.65625 -18.109375 18.046875 -18.84375 
Q 19.4375 -19.578125 23.09375 -19.578125 
L 23.09375 -21.390625 
L -0.34375 -21.390625 
L -0.34375 -19.578125 
L 0.875 -19.578125 
Q 3.5625 -19.625 5.46875 -18.5625 
Q 6.390625 -18.015625 6.90625 -16.8125 
Q 7.421875 -15.625 7.421875 -10.75 
L 7.421875 31.546875 
Q 7.421875 35.890625 7.03125 37.0625 
Q 6.640625 38.234375 5.78125 38.8125 
Q 4.9375 39.40625 3.46875 39.40625 
Q 2.296875 39.40625 0.484375 38.71875 
z
M 15.53125 32.515625 
L 15.53125 15.828125 
Q 15.53125 10.40625 15.96875 8.6875 
Q 16.65625 5.859375 19.3125 3.703125 
Q 21.96875 1.5625 26.03125 1.5625 
Q 30.90625 1.5625 33.9375 5.375 
Q 37.890625 10.359375 37.890625 19.390625 
Q 37.890625 29.640625 33.40625 35.15625 
Q 30.28125 38.96875 25.984375 38.96875 
Q 23.640625 38.96875 21.34375 37.796875 
Q 19.578125 36.921875 15.53125 32.515625 
z
" id="TimesNewRomanPSMT-112"/>
       <path d="M 31.0625 -19.578125 
L 31.0625 -21.390625 
Q 23.6875 -17.671875 18.75 -12.703125 
Q 11.71875 -5.609375 7.90625 4 
Q 4.109375 13.625 4.109375 23.96875 
Q 4.109375 39.109375 11.578125 51.578125 
Q 19.046875 64.0625 31.0625 69.4375 
L 31.0625 67.390625 
Q 25.046875 64.0625 21.1875 58.296875 
Q 17.328125 52.546875 15.421875 43.703125 
Q 13.53125 34.859375 13.53125 25.25 
Q 13.53125 14.796875 15.140625 6.25 
Q 16.40625 -0.484375 18.203125 -4.5625 
Q 20.015625 -8.640625 23.0625 -12.390625 
Q 26.125 -16.15625 31.0625 -19.578125 
z
" id="TimesNewRomanPSMT-40"/>
       <path d="M 20.609375 41.21875 
L 20.609375 11.8125 
Q 20.609375 5.5625 21.96875 3.90625 
Q 23.78125 1.765625 26.8125 1.765625 
L 30.859375 1.765625 
L 30.859375 0 
L 4.15625 0 
L 4.15625 1.765625 
L 6.15625 1.765625 
Q 8.109375 1.765625 9.71875 2.734375 
Q 11.328125 3.71875 11.9375 5.375 
Q 12.546875 7.03125 12.546875 11.8125 
L 12.546875 41.21875 
L 3.859375 41.21875 
L 3.859375 44.734375 
L 12.546875 44.734375 
L 12.546875 47.65625 
Q 12.546875 54.34375 14.6875 58.984375 
Q 16.84375 63.625 21.265625 66.484375 
Q 25.6875 69.34375 31.203125 69.34375 
Q 36.328125 69.34375 40.625 66.015625 
Q 43.453125 63.8125 43.453125 61.078125 
Q 43.453125 59.625 42.1875 58.328125 
Q 40.921875 57.03125 39.453125 57.03125 
Q 38.328125 57.03125 37.078125 57.828125 
Q 35.84375 58.640625 34.03125 61.296875 
Q 32.234375 63.96875 30.71875 64.890625 
Q 29.203125 65.828125 27.34375 65.828125 
Q 25.09375 65.828125 23.53125 64.625 
Q 21.96875 63.421875 21.28125 60.90625 
Q 20.609375 58.40625 20.609375 47.953125 
L 20.609375 44.734375 
L 32.125 44.734375 
L 32.125 41.21875 
z
" id="TimesNewRomanPSMT-102"/>
       <path d="M 16.15625 36.578125 
Q 24.03125 46.046875 31.15625 46.046875 
Q 34.8125 46.046875 37.453125 44.21875 
Q 40.09375 42.390625 41.65625 38.1875 
Q 42.71875 35.25 42.71875 29.203125 
L 42.71875 10.109375 
Q 42.71875 5.859375 43.40625 4.34375 
Q 43.953125 3.125 45.140625 2.4375 
Q 46.34375 1.765625 49.5625 1.765625 
L 49.5625 0 
L 27.4375 0 
L 27.4375 1.765625 
L 28.375 1.765625 
Q 31.5 1.765625 32.734375 2.703125 
Q 33.984375 3.65625 34.46875 5.515625 
Q 34.671875 6.25 34.671875 10.109375 
L 34.671875 28.421875 
Q 34.671875 34.515625 33.078125 37.28125 
Q 31.5 40.046875 27.734375 40.046875 
Q 21.921875 40.046875 16.15625 33.6875 
L 16.15625 10.109375 
Q 16.15625 5.5625 16.703125 4.5 
Q 17.390625 3.078125 18.578125 2.421875 
Q 19.78125 1.765625 23.4375 1.765625 
L 23.4375 0 
L 1.3125 0 
L 1.3125 1.765625 
L 2.296875 1.765625 
Q 5.71875 1.765625 6.90625 3.484375 
Q 8.109375 5.21875 8.109375 10.109375 
L 8.109375 26.703125 
Q 8.109375 34.765625 7.734375 36.515625 
Q 7.375 38.28125 6.609375 38.90625 
Q 5.859375 39.546875 4.59375 39.546875 
Q 3.21875 39.546875 1.3125 38.8125 
L 0.59375 40.578125 
L 14.0625 46.046875 
L 16.15625 46.046875 
z
" id="TimesNewRomanPSMT-110"/>
       <path d="M 15.09375 16.3125 
Q 10.984375 18.3125 8.78125 21.890625 
Q 6.59375 25.484375 6.59375 29.828125 
Q 6.59375 36.46875 11.59375 41.25 
Q 16.609375 46.046875 24.421875 46.046875 
Q 30.8125 46.046875 35.5 42.921875 
L 44.96875 42.921875 
Q 47.078125 42.921875 47.40625 42.796875 
Q 47.75 42.671875 47.90625 42.390625 
Q 48.1875 41.9375 48.1875 40.828125 
Q 48.1875 39.546875 47.953125 39.0625 
Q 47.796875 38.8125 47.4375 38.671875 
Q 47.078125 38.53125 44.96875 38.53125 
L 39.15625 38.53125 
Q 41.890625 35.015625 41.890625 29.546875 
Q 41.890625 23.296875 37.109375 18.84375 
Q 32.328125 14.40625 24.265625 14.40625 
Q 20.953125 14.40625 17.484375 15.375 
Q 15.328125 13.53125 14.5625 12.140625 
Q 13.8125 10.75 13.8125 9.765625 
Q 13.8125 8.9375 14.625 8.15625 
Q 15.4375 7.375 17.78125 7.03125 
Q 19.140625 6.84375 24.609375 6.6875 
Q 34.671875 6.453125 37.640625 6 
Q 42.1875 5.375 44.890625 2.640625 
Q 47.609375 -0.09375 47.609375 -4.109375 
Q 47.609375 -9.625 42.4375 -14.453125 
Q 34.8125 -21.578125 22.5625 -21.578125 
Q 13.140625 -21.578125 6.640625 -17.328125 
Q 2.984375 -14.890625 2.984375 -12.25 
Q 2.984375 -11.078125 3.515625 -9.90625 
Q 4.34375 -8.109375 6.9375 -4.890625 
Q 7.28125 -4.4375 11.921875 0.390625 
Q 9.375 1.90625 8.328125 3.09375 
Q 7.28125 4.296875 7.28125 5.8125 
Q 7.28125 7.515625 8.671875 9.8125 
Q 10.0625 12.109375 15.09375 16.3125 
z
M 23.578125 43.703125 
Q 19.96875 43.703125 17.53125 40.8125 
Q 15.09375 37.9375 15.09375 31.984375 
Q 15.09375 24.265625 18.40625 20.015625 
Q 20.953125 16.796875 24.859375 16.796875 
Q 28.5625 16.796875 30.953125 19.578125 
Q 33.34375 22.359375 33.34375 28.328125 
Q 33.34375 36.078125 29.984375 40.484375 
Q 27.484375 43.703125 23.578125 43.703125 
z
M 14.59375 0 
Q 12.3125 -2.484375 11.140625 -4.625 
Q 9.96875 -6.78125 9.96875 -8.59375 
Q 9.96875 -10.9375 12.796875 -12.703125 
Q 17.671875 -15.71875 26.90625 -15.71875 
Q 35.6875 -15.71875 39.859375 -12.609375 
Q 44.046875 -9.515625 44.046875 -6 
Q 44.046875 -3.46875 41.546875 -2.390625 
Q 39.015625 -1.3125 31.5 -1.125 
Q 20.515625 -0.828125 14.59375 0 
z
" id="TimesNewRomanPSMT-103"/>
       <path d="M 16.21875 46.046875 
L 16.21875 35.984375 
Q 21.828125 46.046875 27.734375 46.046875 
Q 30.421875 46.046875 32.171875 44.40625 
Q 33.9375 42.78125 33.9375 40.625 
Q 33.9375 38.71875 32.65625 37.390625 
Q 31.390625 36.078125 29.640625 36.078125 
Q 27.9375 36.078125 25.8125 37.765625 
Q 23.6875 39.453125 22.65625 39.453125 
Q 21.78125 39.453125 20.75 38.484375 
Q 18.5625 36.46875 16.21875 31.890625 
L 16.21875 10.453125 
Q 16.21875 6.734375 17.140625 4.828125 
Q 17.78125 3.515625 19.390625 2.640625 
Q 21 1.765625 24.03125 1.765625 
L 24.03125 0 
L 1.125 0 
L 1.125 1.765625 
Q 4.546875 1.765625 6.203125 2.828125 
Q 7.421875 3.609375 7.90625 5.328125 
Q 8.15625 6.15625 8.15625 10.0625 
L 8.15625 27.390625 
Q 8.15625 35.203125 7.828125 36.6875 
Q 7.515625 38.1875 6.65625 38.859375 
Q 5.8125 39.546875 4.546875 39.546875 
Q 3.03125 39.546875 1.125 38.8125 
L 0.640625 40.578125 
L 14.15625 46.046875 
z
" id="TimesNewRomanPSMT-114"/>
       <path d="M 34.71875 5.03125 
Q 31.453125 1.609375 28.328125 0.109375 
Q 25.203125 -1.375 21.578125 -1.375 
Q 14.265625 -1.375 8.796875 4.75 
Q 3.328125 10.890625 3.328125 20.515625 
Q 3.328125 30.125 9.375 38.109375 
Q 15.4375 46.09375 24.953125 46.09375 
Q 30.859375 46.09375 34.71875 42.328125 
L 34.71875 50.59375 
Q 34.71875 58.25 34.34375 60 
Q 33.984375 61.765625 33.203125 62.390625 
Q 32.421875 63.03125 31.25 63.03125 
Q 29.984375 63.03125 27.875 62.25 
L 27.25 63.96875 
L 40.578125 69.4375 
L 42.78125 69.4375 
L 42.78125 17.71875 
Q 42.78125 9.859375 43.140625 8.125 
Q 43.5 6.390625 44.3125 5.703125 
Q 45.125 5.03125 46.1875 5.03125 
Q 47.515625 5.03125 49.703125 5.859375 
L 50.25 4.15625 
L 36.96875 -1.375 
L 34.71875 -1.375 
z
M 34.71875 8.453125 
L 34.71875 31.5 
Q 34.421875 34.8125 32.953125 37.546875 
Q 31.5 40.28125 29.078125 41.671875 
Q 26.65625 43.0625 24.359375 43.0625 
Q 20.0625 43.0625 16.703125 39.203125 
Q 12.25 34.125 12.25 24.359375 
Q 12.25 14.5 16.546875 9.25 
Q 20.84375 4 26.125 4 
Q 30.5625 4 34.71875 8.453125 
z
" id="TimesNewRomanPSMT-100"/>
       <path d="M 2.25 67.390625 
L 2.25 69.4375 
Q 9.671875 65.765625 14.59375 60.796875 
Q 21.578125 53.65625 25.390625 44.0625 
Q 29.203125 34.46875 29.203125 24.078125 
Q 29.203125 8.9375 21.75 -3.53125 
Q 14.3125 -16.015625 2.25 -21.390625 
L 2.25 -19.578125 
Q 8.25 -16.21875 12.125 -10.46875 
Q 16.015625 -4.734375 17.890625 4.125 
Q 19.78125 12.984375 19.78125 22.609375 
Q 19.78125 33.015625 18.171875 41.609375 
Q 16.9375 48.34375 15.109375 52.390625 
Q 13.28125 56.453125 10.25 60.203125 
Q 7.234375 63.96875 2.25 67.390625 
z
" id="TimesNewRomanPSMT-41"/>
      </defs>
      <use xlink:href="#TimesNewRomanPSMT-84"/>
      <use x="57.583984" xlink:href="#TimesNewRomanPSMT-105"/>
      <use x="85.367188" xlink:href="#TimesNewRomanPSMT-109"/>
      <use x="163.150391" xlink:href="#TimesNewRomanPSMT-101"/>
      <use x="207.535156" xlink:href="#TimesNewRomanPSMT-32"/>
      <use x="232.535156" xlink:href="#TimesNewRomanPSMT-83"/>
      <use x="288.150391" xlink:href="#TimesNewRomanPSMT-116"/>
      <use x="315.933594" xlink:href="#TimesNewRomanPSMT-101"/>
      <use x="360.318359" xlink:href="#TimesNewRomanPSMT-112"/>
      <use x="410.318359" xlink:href="#TimesNewRomanPSMT-32"/>
      <use x="435.318359" xlink:href="#TimesNewRomanPSMT-40"/>
      <use x="468.619141" xlink:href="#TimesNewRomanPSMT-102"/>
      <use x="501.919922" xlink:href="#TimesNewRomanPSMT-105"/>
      <use x="529.703125" xlink:href="#TimesNewRomanPSMT-110"/>
      <use x="579.703125" xlink:href="#TimesNewRomanPSMT-101"/>
      <use x="624.087891" xlink:href="#TimesNewRomanPSMT-32"/>
      <use x="649.087891" xlink:href="#TimesNewRomanPSMT-103"/>
      <use x="699.087891" xlink:href="#TimesNewRomanPSMT-114"/>
      <use x="732.388672" xlink:href="#TimesNewRomanPSMT-105"/>
      <use x="760.171875" xlink:href="#TimesNewRomanPSMT-100"/>
      <use x="810.171875" xlink:href="#TimesNewRomanPSMT-41"/>
     </g>
    </g>
   </g>
   <g id="matplotlib.axis_2">
    <g id="ytick_1">
     <g id="line2d_8">
      <defs>
       <path d="M 0 0 
L 3 0 
" id="md65b85e2fd" style="stroke:#000000;stroke-width:0.5;"/>
      </defs>
      <g>
       <use style="stroke:#000000;stroke-width:0.5;" x="29.71125" xlink:href="#md65b85e2fd" y="144.9775"/>
      </g>
     </g>
     <g id="text_9">
      <!-- −120 -->
      <g transform="translate(12.2 147.755)scale(0.08 -0.08)">
       <defs>
        <path d="M 54.4375 31.25 
L 1.8125 31.25 
L 1.8125 35.25 
L 54.4375 35.25 
z
" id="TimesNewRomanPSMT-8722"/>
       </defs>
       <use xlink:href="#TimesNewRomanPSMT-8722"/>
       <use x="56.396484" xlink:href="#TimesNewRomanPSMT-49"/>
       <use x="106.396484" xlink:href="#TimesNewRomanPSMT-50"/>
       <use x="156.396484" xlink:href="#TimesNewRomanPSMT-48"/>
      </g>
     </g>
    </g>
    <g id="ytick_2">
     <g id="line2d_9">
      <g>
       <use style="stroke:#000000;stroke-width:0.5;" x="29.71125" xlink:href="#md65b85e2fd" y="125.1775"/>
      </g>
     </g>
     <g id="text_10">
      <!-- −100 -->
      <g transform="translate(12.2 127.955)scale(0.08 -0.08)">
       <use xlink:href="#TimesNewRomanPSMT-8722"/>
       <use x="56.396484" xlink:href="#TimesNewRomanPSMT-49"/>
       <use x="106.396484" xlink:href="#TimesNewRomanPSMT-48"/>
       <use x="156.396484" xlink:href="#TimesNewRomanPSMT-48"/>
      </g>
     </g>
    </g>
    <g id="ytick_3">
     <g id="line2d_10">
      <g>
       <use style="stroke:#000000;stroke-width:0.5;" x="29.71125" xlink:href="#md65b85e2fd" y="105.3775"/>
      </g>
     </g>
     <g id="text_11">
      <!-- −80 -->
      <g transform="translate(16.2 108.155)scale(0.08 -0.08)">
       <defs>
        <path d="M 19.1875 33.34375 
Q 11.328125 39.796875 9.046875 43.703125 
Q 6.78125 47.609375 6.78125 51.8125 
Q 6.78125 58.25 11.765625 62.90625 
Q 16.75 67.578125 25 67.578125 
Q 33.015625 67.578125 37.890625 63.234375 
Q 42.78125 58.890625 42.78125 53.328125 
Q 42.78125 49.609375 40.140625 45.75 
Q 37.5 41.890625 29.15625 36.671875 
Q 37.75 30.03125 40.53125 26.21875 
Q 44.234375 21.234375 44.234375 15.71875 
Q 44.234375 8.734375 38.90625 3.78125 
Q 33.59375 -1.171875 24.953125 -1.171875 
Q 15.53125 -1.171875 10.25 4.734375 
Q 6.0625 9.46875 6.0625 15.09375 
Q 6.0625 19.484375 9.015625 23.796875 
Q 11.96875 28.125 19.1875 33.34375 
z
M 26.859375 38.578125 
Q 32.71875 43.84375 34.28125 46.890625 
Q 35.84375 49.953125 35.84375 53.8125 
Q 35.84375 58.9375 32.953125 61.84375 
Q 30.078125 64.75 25.09375 64.75 
Q 20.125 64.75 17 61.859375 
Q 13.875 58.984375 13.875 55.125 
Q 13.875 52.59375 15.15625 50.046875 
Q 16.453125 47.515625 18.84375 45.21875 
z
M 21.484375 31.5 
Q 17.4375 28.078125 15.484375 24.046875 
Q 13.53125 20.015625 13.53125 15.328125 
Q 13.53125 9.03125 16.96875 5.25 
Q 20.40625 1.46875 25.734375 1.46875 
Q 31 1.46875 34.171875 4.4375 
Q 37.359375 7.421875 37.359375 11.671875 
Q 37.359375 15.1875 35.5 17.96875 
Q 32.03125 23.140625 21.484375 31.5 
z
" id="TimesNewRomanPSMT-56"/>
       </defs>
       <use xlink:href="#TimesNewRomanPSMT-8722"/>
       <use x="56.396484" xlink:href="#TimesNewRomanPSMT-56"/>
       <use x="106.396484" xlink:href="#TimesNewRomanPSMT-48"/>
      </g>
     </g>
    </g>
    <g id="ytick_4">
     <g id="line2d_11">
      <g>
       <use style="stroke:#000000;stroke-width:0.5;" x="29.71125" xlink:href="#md65b85e2fd" y="85.5775"/>
      </g>
     </g>
     <g id="text_12">
      <!-- −60 -->
      <g transform="translate(16.2 88.355)scale(0.08 -0.08)">
       <use xlink:href="#TimesNewRomanPSMT-8722"/>
       <use x="56.396484" xlink:href="#TimesNewRomanPSMT-54"/>
       <use x="106.396484" xlink:href="#TimesNewRomanPSMT-48"/>
      </g>
     </g>
    </g>
    <g id="ytick_5">
     <g id="line2d_12">
      <g>
       <use style="stroke:#000000;stroke-width:0.5;" x="29.71125" xlink:href="#md65b85e2fd" y="65.7775"/>
      </g>
     </g>
     <g id="text_13">
      <!-- −40 -->
      <g transform="translate(16.2 68.555)scale(0.08 -0.08)">
       <use xlink:href="#TimesNewRomanPSMT-8722"/>
       <use x="56.396484" xlink:href="#TimesNewRomanPSMT-52"/>
       <use x="106.396484" xlink:href="#TimesNewRomanPSMT-48"/>
      </g>
     </g>
    </g>
    <g id="ytick_6">
     <g id="line2d_13">
      <g>
       <use style="stroke:#000000;stroke-width:0.5;" x="29.71125" xlink:href="#md65b85e2fd" y="45.9775"/>
      </g>
     </g>
     <g id="text_14">
      <!-- −20 -->
      <g transform="translate(16.2 48.755)scale(0.08 -0.08)">
       <use xlink:href="#TimesNewRomanPSMT-8722"/>
       <use x="56.396484" xlink:href="#TimesNewRomanPSMT-50"/>
       <use x="106.396484" xlink:href="#TimesNewRomanPSMT-48"/>
      </g>
     </g>
    </g>
    <g id="ytick_7">
     <g id="line2d_14">
      <g>
       <use style="stroke:#000000;stroke-width:0.5;" x="29.71125" xlink:href="#md65b85e2fd" y="26.1775"/>
      </g>
     </g>
     <g id="text_15">
      <!-- 0 -->
      <g transform="translate(24.71125 28.955)scale(0.08 -0.08)">
       <use xlink:href="#TimesNewRomanPSMT-48"/>
      </g>
     </g>
    </g>
    <g id="ytick_8">
     <g id="line2d_15">
      <g>
       <use style="stroke:#000000;stroke-width:0.5;" x="29.71125" xlink:href="#md65b85e2fd" y="6.3775"/>
      </g>
     </g>
     <g id="text_16">
      <!-- 20 -->
      <g transform="translate(20.71125 9.155)scale(0.08 -0.08)">
       <use xlink:href="#TimesNewRomanPSMT-50"/>
       <use x="50" xlink:href="#TimesNewRomanPSMT-48"/>
      </g>
     </g>
    </g>
    <g id="text_17">
     <!-- Electric Field $E_x$ (V/m) -->
     <g transform="translate(9.44 113.7175)rotate(-90)scale(0.08 -0.08)">
      <defs>
       <path d="M 20.90625 62.59375 
L 20.90625 36.421875 
L 35.453125 36.421875 
Q 41.109375 36.421875 43.015625 38.140625 
Q 45.5625 40.375 45.84375 46.046875 
L 47.65625 46.046875 
L 47.65625 23 
L 45.84375 23 
Q 45.171875 27.828125 44.484375 29.203125 
Q 43.609375 30.90625 41.59375 31.875 
Q 39.59375 32.859375 35.453125 32.859375 
L 20.90625 32.859375 
L 20.90625 11.03125 
Q 20.90625 6.640625 21.296875 5.6875 
Q 21.6875 4.734375 22.65625 4.171875 
Q 23.640625 3.609375 26.375 3.609375 
L 37.59375 3.609375 
Q 43.21875 3.609375 45.75 4.390625 
Q 48.296875 5.171875 50.640625 7.46875 
Q 53.65625 10.5 56.84375 16.609375 
L 58.796875 16.609375 
L 53.078125 0 
L 2.046875 0 
L 2.046875 1.8125 
L 4.390625 1.8125 
Q 6.734375 1.8125 8.84375 2.9375 
Q 10.40625 3.71875 10.96875 5.28125 
Q 11.53125 6.84375 11.53125 11.671875 
L 11.53125 54.6875 
Q 11.53125 60.984375 10.25 62.453125 
Q 8.5 64.40625 4.390625 64.40625 
L 2.046875 64.40625 
L 2.046875 66.21875 
L 53.078125 66.21875 
L 53.8125 51.703125 
L 51.90625 51.703125 
Q 50.875 56.9375 49.625 58.890625 
Q 48.390625 60.84375 45.953125 61.859375 
Q 44 62.59375 39.0625 62.59375 
z
" id="TimesNewRomanPSMT-69"/>
       <path d="M 18.5 69.4375 
L 18.5 10.109375 
Q 18.5 5.90625 19.109375 4.53125 
Q 19.734375 3.171875 21 2.46875 
Q 22.265625 1.765625 25.734375 1.765625 
L 25.734375 0 
L 3.8125 0 
L 3.8125 1.765625 
Q 6.890625 1.765625 8 2.390625 
Q 9.125 3.03125 9.765625 4.484375 
Q 10.40625 5.953125 10.40625 10.109375 
L 10.40625 50.734375 
Q 10.40625 58.296875 10.0625 60.03125 
Q 9.71875 61.765625 8.953125 62.390625 
Q 8.203125 63.03125 7.03125 63.03125 
Q 5.765625 63.03125 3.8125 62.25 
L 2.984375 63.96875 
L 16.3125 69.4375 
z
" id="TimesNewRomanPSMT-108"/>
       <path d="M 41.109375 17 
Q 39.3125 8.15625 34.03125 3.390625 
Q 28.765625 -1.375 22.359375 -1.375 
Q 14.75 -1.375 9.078125 5.015625 
Q 3.421875 11.421875 3.421875 22.3125 
Q 3.421875 32.859375 9.6875 39.453125 
Q 15.96875 46.046875 24.75 46.046875 
Q 31.34375 46.046875 35.59375 42.546875 
Q 39.84375 39.0625 39.84375 35.296875 
Q 39.84375 33.453125 38.640625 32.296875 
Q 37.453125 31.15625 35.296875 31.15625 
Q 32.421875 31.15625 30.953125 33.015625 
Q 30.125 34.03125 29.859375 36.90625 
Q 29.59375 39.796875 27.875 41.3125 
Q 26.171875 42.78125 23.140625 42.78125 
Q 18.265625 42.78125 15.28125 39.15625 
Q 11.328125 34.375 11.328125 26.515625 
Q 11.328125 18.5 15.25 12.375 
Q 19.1875 6.25 25.875 6.25 
Q 30.671875 6.25 34.46875 9.515625 
Q 37.15625 11.765625 39.703125 17.671875 
z
" id="TimesNewRomanPSMT-99"/>
       <path d="M 20.453125 62.59375 
L 20.453125 36.578125 
L 32.515625 36.578125 
Q 36.671875 36.578125 38.59375 38.40625 
Q 40.53125 40.234375 41.15625 45.65625 
L 42.96875 45.65625 
L 42.96875 23.25 
L 41.15625 23.25 
Q 41.109375 27.09375 40.15625 28.90625 
Q 39.203125 30.71875 37.515625 31.609375 
Q 35.84375 32.515625 32.515625 32.515625 
L 20.453125 32.515625 
L 20.453125 11.71875 
Q 20.453125 6.6875 21.09375 5.078125 
Q 21.578125 3.859375 23.140625 2.984375 
Q 25.296875 1.8125 27.640625 1.8125 
L 30.03125 1.8125 
L 30.03125 0 
L 1.609375 0 
L 1.609375 1.8125 
L 3.953125 1.8125 
Q 8.0625 1.8125 9.90625 4.203125 
Q 11.078125 5.765625 11.078125 11.71875 
L 11.078125 54.5 
Q 11.078125 59.515625 10.453125 61.140625 
Q 9.96875 62.359375 8.453125 63.234375 
Q 6.34375 64.40625 3.953125 64.40625 
L 1.609375 64.40625 
L 1.609375 66.21875 
L 50.875 66.21875 
L 51.515625 51.65625 
L 49.8125 51.65625 
Q 48.53125 56.296875 46.84375 58.46875 
Q 45.171875 60.640625 42.703125 61.609375 
Q 40.234375 62.59375 35.0625 62.59375 
z
" id="TimesNewRomanPSMT-70"/>
       <path d="M -1.515625 0 
L -0.53125 5.171875 
L 8.734375 5.171875 
L 20.90625 67.671875 
L 11.625 67.671875 
L 12.640625 72.90625 
L 71.34375 72.90625 
L 68.21875 56.6875 
L 62.203125 56.6875 
L 64.15625 66.890625 
L 30.671875 66.890625 
L 25.921875 42.484375 
L 49.8125 42.484375 
L 51.5625 51.609375 
L 57.5625 51.609375 
L 52.875 27.390625 
L 46.875 27.390625 
L 48.640625 36.53125 
L 24.75 36.53125 
L 18.84375 6 
L 53.125 6 
L 55.078125 16.21875 
L 61.078125 16.21875 
L 57.953125 0 
z
" id="DejaVuSerif-Italic-69"/>
       <path d="M 6.390625 0 
L 0.296875 0 
L 23.1875 24.90625 
L 11.671875 46.6875 
L 5.28125 46.6875 
L 6.25 51.90625 
L 19.4375 51.90625 
L 30.21875 31.6875 
L 48.828125 51.90625 
L 54.9375 51.90625 
L 32.46875 27.484375 
L 44.34375 5.171875 
L 51.125 5.171875 
L 50.140625 0 
L 36.53125 0 
L 25.484375 20.703125 
z
" id="DejaVuSerif-Italic-120"/>
       <path d="M 71 66.21875 
L 71 64.40625 
Q 67.484375 63.765625 65.671875 62.15625 
Q 63.09375 59.765625 61.078125 54.828125 
L 37.984375 -1.515625 
L 36.1875 -1.515625 
L 11.375 55.5625 
Q 9.46875 59.96875 8.6875 60.9375 
Q 7.46875 62.453125 5.6875 63.296875 
Q 3.90625 64.15625 0.875 64.40625 
L 0.875 66.21875 
L 27.9375 66.21875 
L 27.9375 64.40625 
Q 23.34375 63.96875 21.96875 62.84375 
Q 20.609375 61.71875 20.609375 59.96875 
Q 20.609375 57.515625 22.859375 52.34375 
L 39.703125 13.53125 
L 55.328125 51.859375 
Q 57.625 57.515625 57.625 59.71875 
Q 57.625 61.140625 56.203125 62.421875 
Q 54.78125 63.71875 51.421875 64.265625 
Q 51.171875 64.3125 50.59375 64.40625 
L 50.59375 66.21875 
z
" id="TimesNewRomanPSMT-86"/>
       <path d="M 28.03125 69.4375 
L 4.046875 -1.375 
L 0.140625 -1.375 
L 24.125 69.4375 
z
" id="TimesNewRomanPSMT-47"/>
      </defs>
      <use transform="translate(0 0.09375)" xlink:href="#TimesNewRomanPSMT-69"/>
      <use transform="translate(61.083984 0.09375)" xlink:href="#TimesNewRomanPSMT-108"/>
      <use transform="translate(88.867188 0.09375)" xlink:href="#TimesNewRomanPSMT-101"/>
      <use transform="translate(133.251953 0.09375)" xlink:href="#TimesNewRomanPSMT-99"/>
      <use transform="translate(177.636719 0.09375)" xlink:href="#TimesNewRomanPSMT-116"/>
      <use transform="translate(205.419922 0.09375)" xlink:href="#TimesNewRomanPSMT-114"/>
      <use transform="translate(238.720703 0.09375)" xlink:href="#TimesNewRomanPSMT-105"/>
      <use transform="translate(266.503906 0.09375)" xlink:href="#TimesNewRomanPSMT-99"/>
      <use transform="translate(310.888672 0.09375)" xlink:href="#TimesNewRomanPSMT-32"/>
      <use transform="translate(335.888672 0.09375)" xlink:href="#TimesNewRomanPSMT-70"/>
      <use transform="translate(391.503906 0.09375)" xlink:href="#TimesNewRomanPSMT-105"/>
      <use transform="translate(419.287109 0.09375)" xlink:href="#TimesNewRomanPSMT-101"/>
      <use transform="translate(463.671875 0.09375)" xlink:href="#TimesNewRomanPSMT-108"/>
      <use transform="translate(491.455078 0.09375)" xlink:href="#TimesNewRomanPSMT-100"/>
      <use transform="translate(541.455078 0.09375)" xlink:href="#TimesNewRomanPSMT-32"/>
      <use transform="translate(566.455078 0.09375)" xlink:href="#DejaVuSerif-Italic-69"/>
      <use transform="translate(639.453125 -15.478125)scale(0.7)" xlink:href="#DejaVuSerif-Italic-120"/>
      <use transform="translate(681.525977 0.09375)" xlink:href="#TimesNewRomanPSMT-32"/>
      <use transform="translate(706.525977 0.09375)" xlink:href="#TimesNewRomanPSMT-40"/>
      <use transform="translate(739.826758 0.09375)" xlink:href="#TimesNewRomanPSMT-86"/>
      <use transform="translate(812.043555 0.09375)" xlink:href="#TimesNewRomanPSMT-47"/>
      <use transform="translate(839.826758 0.09375)" xlink:href="#TimesNewRomanPSMT-109"/>
      <use transform="translate(917.609961 0.09375)" xlink:href="#TimesNewRomanPSMT-41"/>
     </g>
    </g>
   </g>
   <g id="line2d_16">
    <path clip-path="url(#p566408f4a6)" d="M 30.01815 26.1775 
L 48.73905 26.071099 
L 53.95635 25.820565 
L 57.63915 25.424169 
L 60.70815 24.871781 
L 63.47025 24.159373 
L 66.53925 23.125325 
L 74.51865 20.234858 
L 76.05315 19.990354 
L 77.58765 19.99258 
L 78.81525 20.219838 
L 80.04285 20.686006 
L 81.27045 21.423733 
L 82.49805 22.460806 
L 83.72565 23.818314 
L 84.95325 25.508828 
L 86.18085 27.534985 
L 87.71535 30.52516 
L 89.55675 34.722746 
L 91.70505 40.287099 
L 99.07065 60.188583 
L 100.60515 63.485844 
L 101.83275 65.705849 
L 103.06035 67.50437 
L 104.28795 68.849119 
L 105.20865 69.548546 
L 106.12935 69.979922 
L 107.05005 70.145581 
L 107.97075 70.051913 
L 108.89145 69.70954 
L 109.81215 69.132554 
L 111.03975 68.028598 
L 112.26735 66.586654 
L 113.80185 64.39136 
L 115.64325 61.329574 
L 118.71225 55.690542 
L 122.39505 48.990302 
L 124.85025 45.006439 
L 126.99855 41.976443 
L 128.83995 39.73967 
L 130.68135 37.822101 
L 132.52275 36.19133 
L 134.67105 34.592616 
L 137.12625 33.072356 
L 140.19525 31.47638 
L 144.49185 29.535657 
L 150.32295 27.15119 
L 154.61955 25.610708 
L 157.99545 24.616801 
L 161.06445 23.927285 
L 164.13345 23.462698 
L 167.20245 23.222008 
L 170.57835 23.192745 
L 174.26115 23.392792 
L 178.86465 23.882835 
L 185.92335 24.89592 
L 198.19935 26.898683 
L 213.23745 29.464882 
L 213.85125 29.528001 
L 213.85125 29.528001 
" style="fill:none;stroke:#000000;stroke-linecap:square;stroke-width:0.6;"/>
   </g>
   <g id="line2d_17">
    <path clip-path="url(#p566408f4a6)" d="M 30.01815 26.1775 
L 47.51145 26.287372 
L 51.80805 26.522901 
L 54.57015 26.859195 
L 57.02535 27.379772 
L 58.86675 27.97535 
L 60.70815 28.815354 
L 62.24265 29.755387 
L 63.77715 30.96649 
L 65.31165 32.503086 
L 66.84615 34.422706 
L 68.38065 36.78393 
L 69.91515 39.642768 
L 71.44965 43.049165 
L 72.98415 47.041957 
L 74.51865 51.644429 
L 76.36005 57.974717 
L 78.20145 65.143296 
L 80.34975 74.423462 
L 83.41875 88.83826 
L 87.71535 109.094547 
L 89.55675 116.866136 
L 91.09125 122.550033 
L 92.31885 126.441504 
L 93.54645 129.657614 
L 94.46715 131.583028 
L 95.38785 133.063911 
L 96.30855 134.081533 
L 96.92235 134.496538 
L 97.53615 134.698009 
L 98.14995 134.68529 
L 98.76375 134.458471 
L 99.37755 134.019636 
L 100.29825 132.970102 
L 101.21895 131.465637 
L 102.13965 129.527089 
L 103.36725 126.314167 
L 104.59485 122.45358 
L 106.12935 116.853855 
L 107.97075 109.25755 
L 111.03975 95.404182 
L 115.02945 77.477672 
L 117.17775 68.800111 
L 119.01915 62.224223 
L 120.55365 57.441655 
L 122.08815 53.326776 
L 123.62265 49.880168 
L 124.85025 47.587476 
L 126.07785 45.683076 
L 127.30545 44.136173 
L 128.53305 42.91009 
L 129.76065 41.96381 
L 130.98825 41.253762 
L 132.52275 40.629978 
L 134.36415 40.154254 
L 137.43315 39.663566 
L 140.19525 39.162013 
L 142.34355 38.542769 
L 144.18495 37.786215 
L 146.02635 36.800836 
L 148.17465 35.369359 
L 150.62985 33.415569 
L 153.69885 30.655047 
L 159.52995 25.335006 
L 161.98515 23.402698 
L 164.13345 21.976964 
L 166.28175 20.83875 
L 168.12315 20.105314 
L 169.96455 19.594918 
L 171.80595 19.297569 
L 173.95425 19.195862 
L 176.10255 19.322105 
L 178.55775 19.688655 
L 181.62675 20.378712 
L 188.07165 22.141363 
L 192.67515 23.270104 
L 196.35795 23.94413 
L 199.73385 24.337093 
L 203.10975 24.496062 
L 206.48565 24.412563 
L 209.86155 24.086083 
L 213.23745 23.529127 
L 213.85125 23.405252 
L 213.85125 23.405252 
" style="fill:none;stroke:#0000ff;stroke-linecap:square;stroke-width:0.6;"/>
   </g>
   <g id="line2d_18">
    <path clip-path="url(#p566408f4a6)" d="M 30.01815 26.1775 
L 53.64945 26.069445 
L 59.17365 25.821877 
L 63.16335 25.436195 
L 66.84615 24.859044 
L 70.83585 23.997809 
L 76.97385 22.640603 
L 79.12215 22.413893 
L 80.96355 22.448743 
L 82.49805 22.693692 
L 84.03255 23.176324 
L 85.56705 23.92942 
L 87.10155 24.97646 
L 88.63605 26.328489 
L 90.17055 27.981511 
L 92.01195 30.33202 
L 94.16025 33.489891 
L 97.53615 38.954725 
L 100.60515 43.822433 
L 102.44655 46.40184 
L 103.98105 48.23769 
L 105.51555 49.724149 
L 106.74315 50.632795 
L 107.97075 51.27778 
L 109.19835 51.654623 
L 110.42595 51.7669 
L 111.65355 51.625723 
L 112.88115 51.248913 
L 114.10875 50.659889 
L 115.64325 49.667742 
L 117.48465 48.182028 
L 119.93985 45.878587 
L 126.69165 39.353624 
L 129.14685 37.342253 
L 131.60205 35.610493 
L 134.05725 34.139446 
L 136.81935 32.736355 
L 140.50215 31.142813 
L 146.02635 29.037151 
L 152.16435 26.921788 
L 156.15405 25.761111 
L 159.52995 24.989552 
L 162.90585 24.449019 
L 166.28175 24.146671 
L 169.65765 24.06341 
L 173.64735 24.195423 
L 178.55775 24.59489 
L 185.92335 25.448053 
L 194.51655 26.658245 
L 201.26835 27.826229 
L 212.31675 29.810647 
L 213.85125 29.995712 
L 213.85125 29.995712 
" style="fill:none;stroke:#00ff00;stroke-linecap:square;stroke-width:0.6;"/>
   </g>
   <g id="line2d_19">
    <path clip-path="url(#p566408f4a6)" d="M 30.01815 26.1775 
L 49.04595 26.284508 
L 53.64945 26.529322 
L 56.71845 26.904627 
L 59.17365 27.426914 
L 61.32195 28.128647 
L 63.16335 28.977927 
L 64.69785 29.907479 
L 66.23235 31.080581 
L 67.76685 32.538409 
L 69.30135 34.322049 
L 70.83585 36.469947 
L 72.37035 39.01563 
L 73.90485 41.984022 
L 75.43935 45.388026 
L 77.28075 50.042909 
L 79.12215 55.279795 
L 81.57735 63.017476 
L 85.56705 76.579676 
L 88.63605 86.689947 
L 90.47745 92.092344 
L 92.01195 95.991677 
L 93.23955 98.622014 
L 94.46715 100.754534 
L 95.38785 101.998001 
L 96.30855 102.918883 
L 97.22925 103.505736 
L 98.14995 103.751257 
L 98.76375 103.723968 
L 99.68445 103.397417 
L 100.60515 102.732895 
L 101.52585 101.740629 
L 102.44655 100.434147 
L 103.67415 98.235311 
L 104.90175 95.56285 
L 106.43625 91.651855 
L 108.27765 86.304512 
L 111.03975 77.482506 
L 115.64325 62.732755 
L 117.79155 56.606867 
L 119.63295 51.988962 
L 121.16745 48.649077 
L 122.70195 45.793063 
L 124.23645 43.418545 
L 125.77095 41.504145 
L 127.30545 40.012639 
L 128.83995 38.894479 
L 130.37445 38.091559 
L 131.90895 37.540735 
L 133.75035 37.121308 
L 136.51245 36.761658 
L 140.50215 36.246283 
L 142.65045 35.760097 
L 144.79875 35.05007 
L 146.94705 34.099864 
L 149.40225 32.74044 
L 152.16435 30.941149 
L 161.67825 24.489875 
L 164.13345 23.228677 
L 166.28175 22.362034 
L 168.43005 21.731278 
L 170.57835 21.334309 
L 172.72665 21.156439 
L 175.18185 21.189033 
L 177.94395 21.468683 
L 181.31985 22.052885 
L 188.07165 23.529626 
L 193.28895 24.554732 
L 197.58555 25.164758 
L 201.57525 25.495851 
L 205.25805 25.584696 
L 208.94085 25.4588 
L 212.62365 25.120844 
L 213.85125 24.964137 
L 213.85125 24.964137 
" style="fill:none;stroke:#ff0000;stroke-linecap:square;stroke-width:0.6;"/>
   </g>
   <g id="line2d_20">
    <path clip-path="url(#p566408f4a6)" d="M 30.32505 26.1775 
L 49.35285 26.070114 
L 54.26325 25.833972 
L 57.94605 25.425398 
L 61.01505 24.836617 
L 63.47025 24.150031 
L 65.92545 23.246716 
L 68.99445 21.832698 
L 75.13245 18.790836 
L 76.97385 18.196175 
L 78.20145 17.99683 
L 79.42905 18.005566 
L 80.65665 18.265771 
L 81.88425 18.818436 
L 83.11185 19.700534 
L 84.33945 20.941641 
L 85.56705 22.562454 
L 86.79465 24.571998 
L 88.02225 26.966237 
L 89.86365 31.233929 
L 91.70505 36.195707 
L 94.16025 43.53898 
L 98.45685 56.55093 
L 100.29825 61.403374 
L 101.52585 64.188778 
L 102.75345 66.537399 
L 103.98105 68.400286 
L 105.20865 69.744421 
L 106.43625 70.554482 
L 107.05005 70.759336 
L 107.66385 70.832946 
L 108.27765 70.778144 
L 108.89145 70.598729 
L 110.11905 69.885424 
L 111.34665 68.739878 
L 112.57425 67.21806 
L 113.80185 65.383025 
L 115.64325 62.189487 
L 118.71225 56.23842 
L 122.39505 49.145311 
L 124.85025 44.943327 
L 126.69165 42.189556 
L 128.53305 39.800553 
L 130.37445 37.766032 
L 132.21585 36.053951 
L 134.05725 34.618736 
L 136.51245 33.045542 
L 138.96765 31.748312 
L 142.65045 30.093591 
L 148.78845 27.629508 
L 153.69885 25.854974 
L 157.38165 24.75532 
L 160.45065 24.052544 
L 163.51965 23.565925 
L 166.58865 23.294592 
L 169.65765 23.223743 
L 173.34045 23.369616 
L 177.63705 23.788604 
L 183.77505 24.656936 
L 213.85125 29.209292 
L 213.85125 29.209292 
" style="fill:none;stroke:#000000;stroke-dasharray:4.44,1.92;stroke-dashoffset:0;stroke-width:1.2;"/>
   </g>
   <g id="line2d_21">
    <path clip-path="url(#p566408f4a6)" d="M 30.32505 26.1775 
L 47.51145 26.274417 
L 51.80805 26.48829 
L 54.87705 26.845384 
L 57.33225 27.362208 
L 59.17365 27.956775 
L 61.01505 28.796541 
L 62.85645 29.959226 
L 64.08405 30.958168 
L 65.31165 32.169641 
L 66.53925 33.624117 
L 67.76685 35.350989 
L 68.99445 37.383351 
L 70.22205 39.75045 
L 71.44965 42.477941 
L 72.67725 45.587583 
L 74.51865 51.00169 
L 76.36005 57.328679 
L 78.20145 64.534052 
L 80.65665 75.334925 
L 83.72565 90.133515 
L 88.02225 110.918153 
L 89.86365 118.873086 
L 91.70505 125.725689 
L 92.93265 129.514324 
L 94.16025 132.579516 
L 95.38785 134.851504 
L 96.00165 135.6731 
L 96.61545 136.278647 
L 97.22925 136.664942 
L 97.84305 136.830151 
L 98.45685 136.773345 
L 99.07065 136.495073 
L 99.68445 135.997551 
L 100.29825 135.284334 
L 100.91205 134.360235 
L 102.13965 131.90291 
L 103.36725 128.686671 
L 104.59485 124.789928 
L 106.43625 117.870283 
L 108.27765 109.975828 
L 111.96045 92.761919 
L 115.02945 78.65829 
L 117.48465 68.507953 
L 119.32605 61.866648 
L 121.16745 56.183144 
L 122.39505 52.948187 
L 123.62265 50.153857 
L 124.85025 47.785229 
L 126.07785 45.819174 
L 127.30545 44.223908 
L 128.53305 42.961732 
L 129.76065 41.991618 
L 130.98825 41.267878 
L 132.21585 40.745653 
L 134.05725 40.239342 
L 136.51245 39.855667 
L 140.19525 39.306914 
L 142.03665 38.841011 
L 143.87805 38.16887 
L 145.71945 37.264177 
L 147.56085 36.12489 
L 150.01605 34.278382 
L 153.08505 31.580547 
L 160.45065 24.83235 
L 162.90585 22.955369 
L 164.74725 21.77172 
L 166.58865 20.804821 
L 168.43005 20.064306 
L 170.27145 19.549491 
L 172.11285 19.24943 
L 173.95425 19.146562 
L 176.40945 19.273233 
L 178.86465 19.639942 
L 181.93365 20.327307 
L 194.20965 23.389428 
L 197.89245 23.941577 
L 201.57525 24.234734 
L 205.25805 24.267314 
L 208.94085 24.051909 
L 212.62365 23.612881 
L 213.85125 23.42309 
L 213.85125 23.42309 
" style="fill:none;stroke:#0000ff;stroke-dasharray:4.44,1.92;stroke-dashoffset:0;stroke-width:1.2;"/>
   </g>
   <g id="line2d_22">
    <path clip-path="url(#p566408f4a6)" d="M 30.32505 26.1775 
L 51.19425 26.080575 
L 56.71845 25.833526 
L 60.40125 25.457699 
L 63.47025 24.938357 
L 66.53925 24.184203 
L 69.60825 23.191588 
L 77.58765 20.376193 
L 79.42905 20.055758 
L 80.65665 20.008157 
L 81.88425 20.127153 
L 83.11185 20.44004 
L 84.33945 20.971255 
L 85.56705 21.740621 
L 86.79465 22.762126 
L 88.02225 24.042265 
L 89.24985 25.578902 
L 91.09125 28.336906 
L 92.93265 31.564944 
L 95.38785 36.37811 
L 100.29825 46.177454 
L 102.13965 49.323443 
L 103.36725 51.121046 
L 104.59485 52.633533 
L 105.82245 53.832736 
L 107.05005 54.701426 
L 108.27765 55.233282 
L 109.50525 55.43229 
L 110.73285 55.312386 
L 111.96045 54.896692 
L 113.18805 54.215261 
L 114.41565 53.303297 
L 116.25705 51.589317 
L 118.71225 48.871716 
L 125.46405 41.034248 
L 127.91925 38.614676 
L 130.37445 36.550305 
L 132.82965 34.828074 
L 135.28485 33.395716 
L 138.35385 31.904552 
L 142.65045 30.1358 
L 149.40225 27.646812 
L 154.31265 26.057528 
L 157.99545 25.103379 
L 161.06445 24.514409 
L 164.13345 24.127292 
L 167.20245 23.936369 
L 170.88525 23.939045 
L 175.18185 24.199325 
L 180.70605 24.798118 
L 191.75445 26.296925 
L 205.87185 28.407785 
L 213.23745 29.417898 
L 213.85125 29.486146 
L 213.85125 29.486146 
" style="fill:none;stroke:#00ff00;stroke-dasharray:4.44,1.92;stroke-dashoffset:0;stroke-width:1.2;"/>
   </g>
   <g id="line2d_23">
    <path clip-path="url(#p566408f4a6)" d="M 30.32505 26.1775 
L 48.12525 26.27323 
L 52.42185 26.478456 
L 55.49085 26.819019 
L 57.94605 27.307625 
L 59.78745 27.864816 
L 61.62885 28.648263 
L 63.47025 29.727647 
L 64.69785 30.650744 
L 65.92545 31.764347 
L 67.15305 33.095213 
L 68.38065 34.670694 
L 69.60825 36.517491 
L 70.83585 38.658417 
L 72.06345 41.11398 
L 73.90485 45.425959 
L 75.74625 50.514202 
L 77.58765 56.369785 
L 79.42905 62.933406 
L 81.88425 72.578044 
L 89.24985 102.678671 
L 91.09125 108.948402 
L 92.31885 112.526993 
L 93.54645 115.532787 
L 94.77405 117.897225 
L 96.00165 119.567276 
L 96.61545 120.130035 
L 97.22925 120.50661 
L 97.84305 120.695067 
L 98.45685 120.694667 
L 99.07065 120.505953 
L 99.68445 120.130405 
L 100.29825 119.570471 
L 100.91205 118.82992 
L 102.13965 116.827253 
L 103.36725 114.173622 
L 104.59485 110.933606 
L 106.43625 105.144117 
L 108.27765 98.506467 
L 111.34665 86.425706 
L 115.02945 72.009121 
L 117.48465 63.397998 
L 119.32605 57.764282 
L 121.16745 52.948498 
L 122.39505 50.210762 
L 123.62265 47.849629 
L 124.85025 45.851733 
L 126.07785 44.195338 
L 127.30545 42.853919 
L 128.53305 41.793818 
L 129.76065 40.976854 
L 130.98825 40.364925 
L 132.82965 39.741914 
L 135.28485 39.253577 
L 140.19525 38.428792 
L 142.03665 37.910741 
L 143.87805 37.19968 
L 145.71945 36.280305 
L 147.56085 35.157122 
L 150.01605 33.386084 
L 153.08505 30.869892 
L 159.22305 25.74955 
L 161.67825 23.99821 
L 164.13345 22.548554 
L 165.97485 21.689413 
L 167.81625 21.034815 
L 169.65765 20.582469 
L 171.49905 20.322641 
L 173.95425 20.244177 
L 176.40945 20.422626 
L 179.47845 20.912353 
L 183.77505 21.878538 
L 191.14065 23.578608 
L 195.43725 24.309049 
L 199.12005 24.709425 
L 202.80285 24.891856 
L 206.48565 24.863435 
L 210.78225 24.586178 
L 213.85125 24.249373 
L 213.85125 24.249373 
" style="fill:none;stroke:#ff0000;stroke-dasharray:4.44,1.92;stroke-dashoffset:0;stroke-width:1.2;"/>
   </g>
   <g id="patch_3">
    <path d="M 29.71125 144.9775 
L 29.71125 6.3775 
" style="fill:none;stroke:#000000;stroke-linecap:square;stroke-linejoin:miter;stroke-width:0.5;"/>
   </g>
   <g id="patch_4">
    <path d="M 213.85125 144.9775 
L 213.85125 6.3775 
" style="fill:none;stroke:#000000;stroke-linecap:square;stroke-linejoin:miter;stroke-width:0.5;"/>
   </g>
   <g id="patch_5">
    <path d="M 29.71125 144.9775 
L 213.85125 144.9775 
" style="fill:none;stroke:#000000;stroke-linecap:square;stroke-linejoin:miter;stroke-width:0.5;"/>
   </g>
   <g id="patch_6">
    <path d="M 29.71125 6.3775 
L 213.85125 6.3775 
" style="fill:none;stroke:#000000;stroke-linecap:square;stroke-linejoin:miter;stroke-width:0.5;"/>
   </g>
   <g id="text_18">
    <!-- $E_x$ at Node A of the Corner -->
    <g transform="translate(48.12525 16.2775)scale(0.08 -0.08)">
     <defs>
      <path d="M 28.46875 6.453125 
Q 21.578125 1.125 19.828125 0.296875 
Q 17.1875 -0.921875 14.203125 -0.921875 
Q 9.578125 -0.921875 6.5625 2.25 
Q 3.5625 5.421875 3.5625 10.59375 
Q 3.5625 13.875 5.03125 16.265625 
Q 7.03125 19.578125 11.984375 22.5 
Q 16.9375 25.4375 28.46875 29.640625 
L 28.46875 31.390625 
Q 28.46875 38.09375 26.34375 40.578125 
Q 24.21875 43.0625 20.171875 43.0625 
Q 17.09375 43.0625 15.28125 41.40625 
Q 13.421875 39.75 13.421875 37.59375 
L 13.53125 34.765625 
Q 13.53125 32.515625 12.375 31.296875 
Q 11.234375 30.078125 9.375 30.078125 
Q 7.5625 30.078125 6.421875 31.34375 
Q 5.28125 32.625 5.28125 34.8125 
Q 5.28125 39.015625 9.578125 42.53125 
Q 13.875 46.046875 21.625 46.046875 
Q 27.59375 46.046875 31.390625 44.046875 
Q 34.28125 42.53125 35.640625 39.3125 
Q 36.53125 37.203125 36.53125 30.71875 
L 36.53125 15.53125 
Q 36.53125 9.125 36.765625 7.6875 
Q 37.015625 6.25 37.578125 5.765625 
Q 38.140625 5.28125 38.875 5.28125 
Q 39.65625 5.28125 40.234375 5.609375 
Q 41.265625 6.25 44.1875 9.1875 
L 44.1875 6.453125 
Q 38.71875 -0.875 33.734375 -0.875 
Q 31.34375 -0.875 29.921875 0.78125 
Q 28.515625 2.4375 28.46875 6.453125 
z
M 28.46875 9.625 
L 28.46875 26.65625 
Q 21.09375 23.734375 18.953125 22.515625 
Q 15.09375 20.359375 13.421875 18.015625 
Q 11.765625 15.671875 11.765625 12.890625 
Q 11.765625 9.375 13.859375 7.046875 
Q 15.96875 4.734375 18.703125 4.734375 
Q 22.40625 4.734375 28.46875 9.625 
z
" id="TimesNewRomanPSMT-97"/>
      <path d="M -1.3125 66.21875 
L 16.65625 66.21875 
L 57.125 16.546875 
L 57.125 54.734375 
Q 57.125 60.84375 55.765625 62.359375 
Q 53.953125 64.40625 50.046875 64.40625 
L 47.75 64.40625 
L 47.75 66.21875 
L 70.796875 66.21875 
L 70.796875 64.40625 
L 68.453125 64.40625 
Q 64.265625 64.40625 62.5 61.859375 
Q 61.421875 60.296875 61.421875 54.734375 
L 61.421875 -1.078125 
L 59.671875 -1.078125 
L 16.015625 52.25 
L 16.015625 11.46875 
Q 16.015625 5.375 17.328125 3.859375 
Q 19.1875 1.8125 23.046875 1.8125 
L 25.390625 1.8125 
L 25.390625 0 
L 2.34375 0 
L 2.34375 1.8125 
L 4.640625 1.8125 
Q 8.890625 1.8125 10.640625 4.34375 
Q 11.71875 5.90625 11.71875 11.46875 
L 11.71875 57.515625 
Q 8.84375 60.890625 7.34375 61.953125 
Q 5.859375 63.03125 2.984375 63.96875 
Q 1.5625 64.40625 -1.3125 64.40625 
z
" id="TimesNewRomanPSMT-78"/>
      <path d="M 25 46.046875 
Q 35.15625 46.046875 41.3125 38.328125 
Q 46.53125 31.734375 46.53125 23.1875 
Q 46.53125 17.1875 43.640625 11.03125 
Q 40.765625 4.890625 35.71875 1.75 
Q 30.671875 -1.375 24.46875 -1.375 
Q 14.359375 -1.375 8.40625 6.6875 
Q 3.375 13.484375 3.375 21.921875 
Q 3.375 28.078125 6.421875 34.15625 
Q 9.46875 40.234375 14.453125 43.140625 
Q 19.4375 46.046875 25 46.046875 
z
M 23.484375 42.875 
Q 20.90625 42.875 18.28125 41.328125 
Q 15.671875 39.796875 14.0625 35.9375 
Q 12.453125 32.078125 12.453125 26.03125 
Q 12.453125 16.265625 16.328125 9.171875 
Q 20.21875 2.09375 26.5625 2.09375 
Q 31.296875 2.09375 34.375 6 
Q 37.453125 9.90625 37.453125 19.4375 
Q 37.453125 31.34375 32.328125 38.1875 
Q 28.859375 42.875 23.484375 42.875 
z
" id="TimesNewRomanPSMT-111"/>
      <path d="M 45.75 22.171875 
L 20.125 22.171875 
L 15.625 11.71875 
Q 13.96875 7.859375 13.96875 5.953125 
Q 13.96875 4.4375 15.40625 3.296875 
Q 16.84375 2.15625 21.625 1.8125 
L 21.625 0 
L 0.78125 0 
L 0.78125 1.8125 
Q 4.9375 2.546875 6.15625 3.71875 
Q 8.640625 6.0625 11.671875 13.234375 
L 34.96875 67.71875 
L 36.671875 67.71875 
L 59.71875 12.640625 
Q 62.5 6 64.765625 4.015625 
Q 67.046875 2.046875 71.09375 1.8125 
L 71.09375 0 
L 44.96875 0 
L 44.96875 1.8125 
Q 48.921875 2 50.3125 3.125 
Q 51.703125 4.25 51.703125 5.859375 
Q 51.703125 8.015625 49.75 12.640625 
z
M 44.390625 25.78125 
L 33.15625 52.546875 
L 21.625 25.78125 
z
" id="TimesNewRomanPSMT-65"/>
      <path d="M 16.265625 69.4375 
L 16.265625 36.71875 
Q 21.6875 42.671875 24.859375 44.359375 
Q 28.03125 46.046875 31.203125 46.046875 
Q 35.015625 46.046875 37.75 43.9375 
Q 40.484375 41.84375 41.796875 37.359375 
Q 42.71875 34.234375 42.71875 25.921875 
L 42.71875 10.109375 
Q 42.71875 5.859375 43.40625 4.296875 
Q 43.890625 3.125 45.0625 2.4375 
Q 46.234375 1.765625 49.359375 1.765625 
L 49.359375 0 
L 27.390625 0 
L 27.390625 1.765625 
L 28.421875 1.765625 
Q 31.546875 1.765625 32.765625 2.703125 
Q 33.984375 3.65625 34.46875 5.515625 
Q 34.625 6.296875 34.625 10.109375 
L 34.625 25.921875 
Q 34.625 33.25 33.859375 35.546875 
Q 33.109375 37.84375 31.4375 38.984375 
Q 29.78125 40.140625 27.4375 40.140625 
Q 25.046875 40.140625 22.453125 38.859375 
Q 19.875 37.59375 16.265625 33.734375 
L 16.265625 10.109375 
Q 16.265625 5.515625 16.765625 4.390625 
Q 17.28125 3.265625 18.671875 2.515625 
Q 20.0625 1.765625 23.484375 1.765625 
L 23.484375 0 
L 1.3125 0 
L 1.3125 1.765625 
Q 4.296875 1.765625 6 2.6875 
Q 6.984375 3.171875 7.5625 4.53125 
Q 8.15625 5.90625 8.15625 10.109375 
L 8.15625 50.59375 
Q 8.15625 58.25 7.78125 60 
Q 7.421875 61.765625 6.65625 62.390625 
Q 5.90625 63.03125 4.640625 63.03125 
Q 3.609375 63.03125 1.3125 62.25 
L 0.640625 63.96875 
L 14.015625 69.4375 
z
" id="TimesNewRomanPSMT-104"/>
      <path d="M 60.203125 67.71875 
L 61.71875 45.21875 
L 60.203125 45.21875 
Q 57.171875 55.328125 51.5625 59.765625 
Q 45.953125 64.203125 38.09375 64.203125 
Q 31.5 64.203125 26.171875 60.859375 
Q 20.84375 57.515625 17.796875 50.1875 
Q 14.75 42.875 14.75 31.984375 
Q 14.75 23 17.625 16.40625 
Q 20.515625 9.8125 26.296875 6.296875 
Q 32.078125 2.78125 39.5 2.78125 
Q 45.953125 2.78125 50.875 5.53125 
Q 55.8125 8.296875 61.71875 16.5 
L 63.234375 15.53125 
Q 58.25 6.6875 51.609375 2.578125 
Q 44.96875 -1.515625 35.84375 -1.515625 
Q 19.390625 -1.515625 10.359375 10.6875 
Q 3.609375 19.78125 3.609375 32.078125 
Q 3.609375 42 8.046875 50.296875 
Q 12.5 58.59375 20.28125 63.15625 
Q 28.078125 67.71875 37.3125 67.71875 
Q 44.484375 67.71875 51.46875 64.203125 
Q 53.515625 63.140625 54.390625 63.140625 
Q 55.71875 63.140625 56.6875 64.0625 
Q 57.953125 65.375 58.5 67.71875 
z
" id="TimesNewRomanPSMT-67"/>
     </defs>
     <use transform="translate(0 0.09375)" xlink:href="#DejaVuSerif-Italic-69"/>
     <use transform="translate(72.998047 -15.478125)scale(0.7)" xlink:href="#DejaVuSerif-Italic-120"/>
     <use transform="translate(115.070898 0.09375)" xlink:href="#TimesNewRomanPSMT-32"/>
     <use transform="translate(140.070898 0.09375)" xlink:href="#TimesNewRomanPSMT-97"/>
     <use transform="translate(184.455664 0.09375)" xlink:href="#TimesNewRomanPSMT-116"/>
     <use transform="translate(212.238867 0.09375)" xlink:href="#TimesNewRomanPSMT-32"/>
     <use transform="translate(237.238867 0.09375)" xlink:href="#TimesNewRomanPSMT-78"/>
     <use transform="translate(309.455664 0.09375)" xlink:href="#TimesNewRomanPSMT-111"/>
     <use transform="translate(359.455664 0.09375)" xlink:href="#TimesNewRomanPSMT-100"/>
     <use transform="translate(409.455664 0.09375)" xlink:href="#TimesNewRomanPSMT-101"/>
     <use transform="translate(453.84043 0.09375)" xlink:href="#TimesNewRomanPSMT-32"/>
     <use transform="translate(478.84043 0.09375)" xlink:href="#TimesNewRomanPSMT-65"/>
     <use transform="translate(551.057227 0.09375)" xlink:href="#TimesNewRomanPSMT-32"/>
     <use transform="translate(576.057227 0.09375)" xlink:href="#TimesNewRomanPSMT-111"/>
     <use transform="translate(626.057227 0.09375)" xlink:href="#TimesNewRomanPSMT-102"/>
     <use transform="translate(659.358008 0.09375)" xlink:href="#TimesNewRomanPSMT-32"/>
     <use transform="translate(684.358008 0.09375)" xlink:href="#TimesNewRomanPSMT-116"/>
     <use transform="translate(712.141211 0.09375)" xlink:href="#TimesNewRomanPSMT-104"/>
     <use transform="translate(762.141211 0.09375)" xlink:href="#TimesNewRomanPSMT-101"/>
     <use transform="translate(806.525977 0.09375)" xlink:href="#TimesNewRomanPSMT-32"/>
     <use transform="translate(831.525977 0.09375)" xlink:href="#TimesNewRomanPSMT-67"/>
     <use transform="translate(898.225195 0.09375)" xlink:href="#TimesNewRomanPSMT-111"/>
     <use transform="translate(948.225195 0.09375)" xlink:href="#TimesNewRomanPSMT-114"/>
     <use transform="translate(981.525977 0.09375)" xlink:href="#TimesNewRomanPSMT-110"/>
     <use transform="translate(1031.525977 0.09375)" xlink:href="#TimesNewRomanPSMT-101"/>
     <use transform="translate(1075.910742 0.09375)" xlink:href="#TimesNewRomanPSMT-114"/>
    </g>
   </g>
   <g id="legend_1">
    <g id="patch_7">
     <path d="M 141.31625 140.9775 
L 208.25125 140.9775 
Q 209.85125 140.9775 209.85125 139.3775 
L 209.85125 77.6875 
Q 209.85125 76.0875 208.25125 76.0875 
L 141.31625 76.0875 
Q 139.71625 76.0875 139.71625 77.6875 
L 139.71625 139.3775 
Q 139.71625 140.9775 141.31625 140.9775 
z
" style="fill:#ffffff;opacity:0.8;stroke:#cccccc;stroke-linejoin:miter;"/>
    </g>
    <g id="line2d_24">
     <path d="M 142.91625 82.0875 
L 158.91625 82.0875 
" style="fill:none;stroke:#000000;stroke-linecap:square;stroke-width:0.6;"/>
    </g>
    <g id="line2d_25"/>
    <g id="text_19">
     <!-- Fine Grid S1 -->
     <g transform="translate(165.31625 84.8875)scale(0.08 -0.08)">
      <defs>
       <path d="M 61.375 67.71875 
L 63.09375 46.828125 
L 61.375 46.828125 
Q 58.796875 54.640625 54.6875 58.59375 
Q 48.78125 64.3125 39.5 64.3125 
Q 26.859375 64.3125 20.265625 54.296875 
Q 14.75 45.84375 14.75 34.1875 
Q 14.75 24.703125 18.40625 16.890625 
Q 22.078125 9.078125 28 5.4375 
Q 33.9375 1.8125 40.1875 1.8125 
Q 43.84375 1.8125 47.265625 2.734375 
Q 50.6875 3.65625 53.859375 5.46875 
L 53.859375 24.609375 
Q 53.859375 29.59375 53.09375 31.125 
Q 52.34375 32.671875 50.75 33.46875 
Q 49.171875 34.28125 45.171875 34.28125 
L 45.171875 36.140625 
L 70.796875 36.140625 
L 70.796875 34.28125 
L 69.578125 34.28125 
Q 65.765625 34.28125 64.359375 31.734375 
Q 63.375 29.9375 63.375 24.609375 
L 63.375 4.34375 
Q 57.765625 1.3125 52.296875 -0.09375 
Q 46.828125 -1.515625 40.140625 -1.515625 
Q 20.953125 -1.515625 10.984375 10.796875 
Q 3.515625 20.015625 3.515625 32.078125 
Q 3.515625 40.828125 7.71875 48.828125 
Q 12.703125 58.34375 21.390625 63.484375 
Q 28.65625 67.71875 38.578125 67.71875 
Q 42.1875 67.71875 45.140625 67.125 
Q 48.09375 66.546875 53.515625 64.546875 
Q 56.25 63.53125 57.171875 63.53125 
Q 58.109375 63.53125 58.765625 64.375 
Q 59.421875 65.234375 59.578125 67.71875 
z
" id="TimesNewRomanPSMT-71"/>
      </defs>
      <use xlink:href="#TimesNewRomanPSMT-70"/>
      <use x="55.615234" xlink:href="#TimesNewRomanPSMT-105"/>
      <use x="83.398438" xlink:href="#TimesNewRomanPSMT-110"/>
      <use x="133.398438" xlink:href="#TimesNewRomanPSMT-101"/>
      <use x="177.783203" xlink:href="#TimesNewRomanPSMT-32"/>
      <use x="202.783203" xlink:href="#TimesNewRomanPSMT-71"/>
      <use x="275" xlink:href="#TimesNewRomanPSMT-114"/>
      <use x="308.300781" xlink:href="#TimesNewRomanPSMT-105"/>
      <use x="336.083984" xlink:href="#TimesNewRomanPSMT-100"/>
      <use x="386.083984" xlink:href="#TimesNewRomanPSMT-32"/>
      <use x="411.083984" xlink:href="#TimesNewRomanPSMT-83"/>
      <use x="466.699219" xlink:href="#TimesNewRomanPSMT-49"/>
     </g>
    </g>
    <g id="line2d_26">
     <path d="M 142.91625 89.39875 
L 158.91625 89.39875 
" style="fill:none;stroke:#0000ff;stroke-linecap:square;stroke-width:0.6;"/>
    </g>
    <g id="line2d_27"/>
    <g id="text_20">
     <!-- Fine Grid S2 -->
     <g transform="translate(165.31625 92.19875)scale(0.08 -0.08)">
      <use xlink:href="#TimesNewRomanPSMT-70"/>
      <use x="55.615234" xlink:href="#TimesNewRomanPSMT-105"/>
      <use x="83.398438" xlink:href="#TimesNewRomanPSMT-110"/>
      <use x="133.398438" xlink:href="#TimesNewRomanPSMT-101"/>
      <use x="177.783203" xlink:href="#TimesNewRomanPSMT-32"/>
      <use x="202.783203" xlink:href="#TimesNewRomanPSMT-71"/>
      <use x="275" xlink:href="#TimesNewRomanPSMT-114"/>
      <use x="308.300781" xlink:href="#TimesNewRomanPSMT-105"/>
      <use x="336.083984" xlink:href="#TimesNewRomanPSMT-100"/>
      <use x="386.083984" xlink:href="#TimesNewRomanPSMT-32"/>
      <use x="411.083984" xlink:href="#TimesNewRomanPSMT-83"/>
      <use x="466.699219" xlink:href="#TimesNewRomanPSMT-50"/>
     </g>
    </g>
    <g id="line2d_28">
     <path d="M 142.91625 96.71 
L 158.91625 96.71 
" style="fill:none;stroke:#00ff00;stroke-linecap:square;stroke-width:0.6;"/>
    </g>
    <g id="line2d_29"/>
    <g id="text_21">
     <!-- Fine Grid S3 -->
     <g transform="translate(165.31625 99.51)scale(0.08 -0.08)">
      <use xlink:href="#TimesNewRomanPSMT-70"/>
      <use x="55.615234" xlink:href="#TimesNewRomanPSMT-105"/>
      <use x="83.398438" xlink:href="#TimesNewRomanPSMT-110"/>
      <use x="133.398438" xlink:href="#TimesNewRomanPSMT-101"/>
      <use x="177.783203" xlink:href="#TimesNewRomanPSMT-32"/>
      <use x="202.783203" xlink:href="#TimesNewRomanPSMT-71"/>
      <use x="275" xlink:href="#TimesNewRomanPSMT-114"/>
      <use x="308.300781" xlink:href="#TimesNewRomanPSMT-105"/>
      <use x="336.083984" xlink:href="#TimesNewRomanPSMT-100"/>
      <use x="386.083984" xlink:href="#TimesNewRomanPSMT-32"/>
      <use x="411.083984" xlink:href="#TimesNewRomanPSMT-83"/>
      <use x="466.699219" xlink:href="#TimesNewRomanPSMT-51"/>
     </g>
    </g>
    <g id="line2d_30">
     <path d="M 142.91625 104.02125 
L 158.91625 104.02125 
" style="fill:none;stroke:#ff0000;stroke-linecap:square;stroke-width:0.6;"/>
    </g>
    <g id="line2d_31"/>
    <g id="text_22">
     <!-- Fine Grid S4 -->
     <g transform="translate(165.31625 106.82125)scale(0.08 -0.08)">
      <use xlink:href="#TimesNewRomanPSMT-70"/>
      <use x="55.615234" xlink:href="#TimesNewRomanPSMT-105"/>
      <use x="83.398438" xlink:href="#TimesNewRomanPSMT-110"/>
      <use x="133.398438" xlink:href="#TimesNewRomanPSMT-101"/>
      <use x="177.783203" xlink:href="#TimesNewRomanPSMT-32"/>
      <use x="202.783203" xlink:href="#TimesNewRomanPSMT-71"/>
      <use x="275" xlink:href="#TimesNewRomanPSMT-114"/>
      <use x="308.300781" xlink:href="#TimesNewRomanPSMT-105"/>
      <use x="336.083984" xlink:href="#TimesNewRomanPSMT-100"/>
      <use x="386.083984" xlink:href="#TimesNewRomanPSMT-32"/>
      <use x="411.083984" xlink:href="#TimesNewRomanPSMT-83"/>
      <use x="466.699219" xlink:href="#TimesNewRomanPSMT-52"/>
     </g>
    </g>
    <g id="line2d_32">
     <path d="M 142.91625 111.3325 
L 158.91625 111.3325 
" style="fill:none;stroke:#000000;stroke-dasharray:4.44,1.92;stroke-dashoffset:0;stroke-width:1.2;"/>
    </g>
    <g id="line2d_33"/>
    <g id="text_23">
     <!-- VIC S1 -->
     <g transform="translate(165.31625 114.1325)scale(0.08 -0.08)">
      <defs>
       <path d="M 30.859375 1.8125 
L 30.859375 0 
L 2.484375 0 
L 2.484375 1.8125 
L 4.828125 1.8125 
Q 8.9375 1.8125 10.796875 4.203125 
Q 11.96875 5.765625 11.96875 11.71875 
L 11.96875 54.5 
Q 11.96875 59.515625 11.328125 61.140625 
Q 10.84375 62.359375 9.328125 63.234375 
Q 7.171875 64.40625 4.828125 64.40625 
L 2.484375 64.40625 
L 2.484375 66.21875 
L 30.859375 66.21875 
L 30.859375 64.40625 
L 28.46875 64.40625 
Q 24.421875 64.40625 22.5625 62.015625 
Q 21.34375 60.453125 21.34375 54.5 
L 21.34375 11.71875 
Q 21.34375 6.6875 21.96875 5.078125 
Q 22.46875 3.859375 24.03125 2.984375 
Q 26.125 1.8125 28.46875 1.8125 
z
" id="TimesNewRomanPSMT-73"/>
      </defs>
      <use xlink:href="#TimesNewRomanPSMT-86"/>
      <use x="72.216797" xlink:href="#TimesNewRomanPSMT-73"/>
      <use x="105.517578" xlink:href="#TimesNewRomanPSMT-67"/>
      <use x="172.216797" xlink:href="#TimesNewRomanPSMT-32"/>
      <use x="197.216797" xlink:href="#TimesNewRomanPSMT-83"/>
      <use x="252.832031" xlink:href="#TimesNewRomanPSMT-49"/>
     </g>
    </g>
    <g id="line2d_34">
     <path d="M 142.91625 118.64375 
L 158.91625 118.64375 
" style="fill:none;stroke:#0000ff;stroke-dasharray:4.44,1.92;stroke-dashoffset:0;stroke-width:1.2;"/>
    </g>
    <g id="line2d_35"/>
    <g id="text_24">
     <!-- VIC S2 -->
     <g transform="translate(165.31625 121.44375)scale(0.08 -0.08)">
      <use xlink:href="#TimesNewRomanPSMT-86"/>
      <use x="72.216797" xlink:href="#TimesNewRomanPSMT-73"/>
      <use x="105.517578" xlink:href="#TimesNewRomanPSMT-67"/>
      <use x="172.216797" xlink:href="#TimesNewRomanPSMT-32"/>
      <use x="197.216797" xlink:href="#TimesNewRomanPSMT-83"/>
      <use x="252.832031" xlink:href="#TimesNewRomanPSMT-50"/>
     </g>
    </g>
    <g id="line2d_36">
     <path d="M 142.91625 125.955 
L 158.91625 125.955 
" style="fill:none;stroke:#00ff00;stroke-dasharray:4.44,1.92;stroke-dashoffset:0;stroke-width:1.2;"/>
    </g>
    <g id="line2d_37"/>
    <g id="text_25">
     <!-- VIC S3 -->
     <g transform="translate(165.31625 128.755)scale(0.08 -0.08)">
      <use xlink:href="#TimesNewRomanPSMT-86"/>
      <use x="72.216797" xlink:href="#TimesNewRomanPSMT-73"/>
      <use x="105.517578" xlink:href="#TimesNewRomanPSMT-67"/>
      <use x="172.216797" xlink:href="#TimesNewRomanPSMT-32"/>
      <use x="197.216797" xlink:href="#TimesNewRomanPSMT-83"/>
      <use x="252.832031" xlink:href="#TimesNewRomanPSMT-51"/>
     </g>
    </g>
    <g id="line2d_38">
     <path d="M 142.91625 133.26625 
L 158.91625 133.26625 
" style="fill:none;stroke:#ff0000;stroke-dasharray:4.44,1.92;stroke-dashoffset:0;stroke-width:1.2;"/>
    </g>
    <g id="line2d_39"/>
    <g id="text_26">
     <!-- VIC S4 -->
     <g transform="translate(165.31625 136.06625)scale(0.08 -0.08)">
      <use xlink:href="#TimesNewRomanPSMT-86"/>
      <use x="72.216797" xlink:href="#TimesNewRomanPSMT-73"/>
      <use x="105.517578" xlink:href="#TimesNewRomanPSMT-67"/>
      <use x="172.216797" xlink:href="#TimesNewRomanPSMT-32"/>
      <use x="197.216797" xlink:href="#TimesNewRomanPSMT-83"/>
      <use x="252.832031" xlink:href="#TimesNewRomanPSMT-52"/>
     </g>
    </g>
   </g>
  </g>
 </g>
 <defs>
  <clipPath id="p566408f4a6">
   <rect height="138.6" width="184.14" x="29.71125" y="6.3775"/>
  </clipPath>
 </defs>
</svg>
