<?xml version="1.0" encoding="utf-8" standalone="no"?>
<!DOCTYPE svg PUBLIC "-//W3C//DTD SVG 1.1//EN"
  "http://www.w3.org/Graphics/SVG/1.1/DTD/svg11.dtd">
<!-- Created with matplotlib (https://matplotlib.org/) -->
<svg height="162.3475pt" version="1.1" viewBox="0 0 220.25125 162.3475" width="220.25125pt" xmlns="http://www.w3.org/2000/svg" xmlns:xlink="http://www.w3.org/1999/xlink">
 <metadata>
  <rdf:RDF xmlns:cc="http://creativecommons.org/ns#" xmlns:dc="http://purl.org/dc/elements/1.1/" xmlns:rdf="http://www.w3.org/1999/02/22-rdf-syntax-ns#">
   <cc:Work>
    <dc:type rdf:resource="http://purl.org/dc/dcmitype/StillImage"/>
    <dc:date>2024-09-02T17:28:27.476637</dc:date>
    <dc:format>image/svg+xml</dc:format>
    <dc:creator>
     <cc:Agent>
      <dc:title>Matplotlib v3.3.4, https://matplotlib.org/</dc:title>
     </cc:Agent>
    </dc:creator>
   </cc:Work>
  </rdf:RDF>
 </metadata>
 <defs>
  <style type="text/css">*{stroke-linecap:butt;stroke-linejoin:round;}</style>
 </defs>
 <g id="figure_1">
  <g id="patch_1">
   <path d="M 0 162.3475 
L 220.25125 162.3475 
L 220.25125 0 
L 0 0 
z
" style="fill:#ffffff;"/>
  </g>
  <g id="axes_1">
   <g id="patch_2">
    <path d="M 26.51125 142.2 
L 210.65125 142.2 
L 210.65125 3.6 
L 26.51125 3.6 
z
" style="fill:#ffffff;"/>
   </g>
   <g id="matplotlib.axis_1">
    <g id="xtick_1">
     <g id="line2d_1">
      <defs>
       <path d="M 0 0 
L 0 -3 
" id="m386641f27d" style="stroke:#000000;stroke-width:0.5;"/>
      </defs>
      <g>
       <use style="stroke:#000000;stroke-width:0.5;" x="26.51125" xlink:href="#m386641f27d" y="142.2"/>
      </g>
     </g>
     <g id="text_1">
      <!-- 0 -->
      <g transform="translate(24.51125 148.755)scale(0.08 -0.08)">
       <defs>
        <path d="M 3.609375 32.71875 
Q 3.609375 44.046875 7.03125 52.21875 
Q 10.453125 60.40625 16.109375 64.40625 
Q 20.515625 67.578125 25.203125 67.578125 
Q 32.8125 67.578125 38.875 59.8125 
Q 46.4375 50.203125 46.4375 33.734375 
Q 46.4375 22.21875 43.109375 14.15625 
Q 39.796875 6.109375 34.640625 2.46875 
Q 29.5 -1.171875 24.703125 -1.171875 
Q 15.234375 -1.171875 8.9375 10.015625 
Q 3.609375 19.4375 3.609375 32.71875 
z
M 13.1875 31.5 
Q 13.1875 17.828125 16.546875 9.1875 
Q 19.34375 1.90625 24.859375 1.90625 
Q 27.484375 1.90625 30.3125 4.265625 
Q 33.15625 6.640625 34.625 12.203125 
Q 36.859375 20.609375 36.859375 35.890625 
Q 36.859375 47.21875 34.515625 54.78125 
Q 32.765625 60.40625 29.984375 62.75 
Q 27.984375 64.359375 25.140625 64.359375 
Q 21.828125 64.359375 19.234375 61.375 
Q 15.71875 57.328125 14.453125 48.625 
Q 13.1875 39.9375 13.1875 31.5 
z
" id="TimesNewRomanPSMT-48"/>
       </defs>
       <use xlink:href="#TimesNewRomanPSMT-48"/>
      </g>
     </g>
    </g>
    <g id="xtick_2">
     <g id="line2d_2">
      <g>
       <use style="stroke:#000000;stroke-width:0.5;" x="57.20125" xlink:href="#m386641f27d" y="142.2"/>
      </g>
     </g>
     <g id="text_2">
      <!-- 100 -->
      <g transform="translate(51.20125 148.755)scale(0.08 -0.08)">
       <defs>
        <path d="M 11.71875 59.71875 
L 27.828125 67.578125 
L 29.4375 67.578125 
L 29.4375 11.671875 
Q 29.4375 6.109375 29.90625 4.734375 
Q 30.375 3.375 31.828125 2.640625 
Q 33.296875 1.90625 37.796875 1.8125 
L 37.796875 0 
L 12.890625 0 
L 12.890625 1.8125 
Q 17.578125 1.90625 18.9375 2.609375 
Q 20.3125 3.328125 20.84375 4.515625 
Q 21.390625 5.71875 21.390625 11.671875 
L 21.390625 47.40625 
Q 21.390625 54.640625 20.90625 56.6875 
Q 20.5625 58.25 19.65625 58.984375 
Q 18.75 59.71875 17.484375 59.71875 
Q 15.671875 59.71875 12.453125 58.203125 
z
" id="TimesNewRomanPSMT-49"/>
       </defs>
       <use xlink:href="#TimesNewRomanPSMT-49"/>
       <use x="50" xlink:href="#TimesNewRomanPSMT-48"/>
       <use x="100" xlink:href="#TimesNewRomanPSMT-48"/>
      </g>
     </g>
    </g>
    <g id="xtick_3">
     <g id="line2d_3">
      <g>
       <use style="stroke:#000000;stroke-width:0.5;" x="87.89125" xlink:href="#m386641f27d" y="142.2"/>
      </g>
     </g>
     <g id="text_3">
      <!-- 200 -->
      <g transform="translate(81.89125 148.755)scale(0.08 -0.08)">
       <defs>
        <path d="M 45.84375 12.75 
L 41.21875 0 
L 2.15625 0 
L 2.15625 1.8125 
Q 19.390625 17.53125 26.421875 27.484375 
Q 33.453125 37.453125 33.453125 45.703125 
Q 33.453125 52 29.59375 56.046875 
Q 25.734375 60.109375 20.359375 60.109375 
Q 15.484375 60.109375 11.59375 57.25 
Q 7.71875 54.390625 5.859375 48.875 
L 4.046875 48.875 
Q 5.28125 57.90625 10.328125 62.734375 
Q 15.375 67.578125 22.953125 67.578125 
Q 31 67.578125 36.390625 62.40625 
Q 41.796875 57.234375 41.796875 50.203125 
Q 41.796875 45.171875 39.453125 40.140625 
Q 35.84375 32.234375 27.734375 23.390625 
Q 15.578125 10.109375 12.546875 7.375 
L 29.828125 7.375 
Q 35.109375 7.375 37.234375 7.765625 
Q 39.359375 8.15625 41.0625 9.34375 
Q 42.78125 10.546875 44.046875 12.75 
z
" id="TimesNewRomanPSMT-50"/>
       </defs>
       <use xlink:href="#TimesNewRomanPSMT-50"/>
       <use x="50" xlink:href="#TimesNewRomanPSMT-48"/>
       <use x="100" xlink:href="#TimesNewRomanPSMT-48"/>
      </g>
     </g>
    </g>
    <g id="xtick_4">
     <g id="line2d_4">
      <g>
       <use style="stroke:#000000;stroke-width:0.5;" x="118.58125" xlink:href="#m386641f27d" y="142.2"/>
      </g>
     </g>
     <g id="text_4">
      <!-- 300 -->
      <g transform="translate(112.58125 148.755)scale(0.08 -0.08)">
       <defs>
        <path d="M 5.078125 53.609375 
Q 7.90625 60.296875 12.21875 63.9375 
Q 16.546875 67.578125 23 67.578125 
Q 30.953125 67.578125 35.203125 62.40625 
Q 38.421875 58.546875 38.421875 54.15625 
Q 38.421875 46.921875 29.34375 39.203125 
Q 35.453125 36.8125 38.578125 32.375 
Q 41.703125 27.9375 41.703125 21.921875 
Q 41.703125 13.328125 36.234375 7.03125 
Q 29.109375 -1.171875 15.578125 -1.171875 
Q 8.890625 -1.171875 6.46875 0.484375 
Q 4.046875 2.15625 4.046875 4.046875 
Q 4.046875 5.46875 5.1875 6.546875 
Q 6.34375 7.625 7.953125 7.625 
Q 9.1875 7.625 10.453125 7.234375 
Q 11.28125 6.984375 14.203125 5.4375 
Q 17.140625 3.90625 18.265625 3.609375 
Q 20.0625 3.078125 22.125 3.078125 
Q 27.09375 3.078125 30.78125 6.9375 
Q 34.46875 10.796875 34.46875 16.0625 
Q 34.46875 19.921875 32.765625 23.578125 
Q 31.5 26.3125 29.984375 27.734375 
Q 27.875 29.6875 24.21875 31.265625 
Q 20.5625 32.859375 16.75 32.859375 
L 15.1875 32.859375 
L 15.1875 34.328125 
Q 19.046875 34.8125 22.921875 37.109375 
Q 26.8125 39.40625 28.5625 42.625 
Q 30.328125 45.84375 30.328125 49.703125 
Q 30.328125 54.734375 27.171875 57.828125 
Q 24.03125 60.9375 19.34375 60.9375 
Q 11.765625 60.9375 6.6875 52.828125 
z
" id="TimesNewRomanPSMT-51"/>
       </defs>
       <use xlink:href="#TimesNewRomanPSMT-51"/>
       <use x="50" xlink:href="#TimesNewRomanPSMT-48"/>
       <use x="100" xlink:href="#TimesNewRomanPSMT-48"/>
      </g>
     </g>
    </g>
    <g id="xtick_5">
     <g id="line2d_5">
      <g>
       <use style="stroke:#000000;stroke-width:0.5;" x="149.27125" xlink:href="#m386641f27d" y="142.2"/>
      </g>
     </g>
     <g id="text_5">
      <!-- 400 -->
      <g transform="translate(143.27125 148.755)scale(0.08 -0.08)">
       <defs>
        <path d="M 46.53125 24.421875 
L 46.53125 17.484375 
L 37.640625 17.484375 
L 37.640625 0 
L 29.59375 0 
L 29.59375 17.484375 
L 1.5625 17.484375 
L 1.5625 23.734375 
L 32.28125 67.578125 
L 37.640625 67.578125 
L 37.640625 24.421875 
z
M 29.59375 24.421875 
L 29.59375 57.28125 
L 6.34375 24.421875 
z
" id="TimesNewRomanPSMT-52"/>
       </defs>
       <use xlink:href="#TimesNewRomanPSMT-52"/>
       <use x="50" xlink:href="#TimesNewRomanPSMT-48"/>
       <use x="100" xlink:href="#TimesNewRomanPSMT-48"/>
      </g>
     </g>
    </g>
    <g id="xtick_6">
     <g id="line2d_6">
      <g>
       <use style="stroke:#000000;stroke-width:0.5;" x="179.96125" xlink:href="#m386641f27d" y="142.2"/>
      </g>
     </g>
     <g id="text_6">
      <!-- 500 -->
      <g transform="translate(173.96125 148.755)scale(0.08 -0.08)">
       <defs>
        <path d="M 43.40625 66.21875 
L 39.59375 57.90625 
L 19.671875 57.90625 
L 15.328125 49.03125 
Q 28.265625 47.125 35.84375 39.40625 
Q 42.328125 32.765625 42.328125 23.78125 
Q 42.328125 18.5625 40.203125 14.109375 
Q 38.09375 9.671875 34.859375 6.546875 
Q 31.640625 3.421875 27.6875 1.515625 
Q 22.078125 -1.171875 16.15625 -1.171875 
Q 10.203125 -1.171875 7.484375 0.84375 
Q 4.78125 2.875 4.78125 5.328125 
Q 4.78125 6.6875 5.90625 7.734375 
Q 7.03125 8.796875 8.734375 8.796875 
Q 10.015625 8.796875 10.96875 8.40625 
Q 11.921875 8.015625 14.203125 6.390625 
Q 17.875 3.859375 21.625 3.859375 
Q 27.34375 3.859375 31.65625 8.171875 
Q 35.984375 12.5 35.984375 18.703125 
Q 35.984375 24.703125 32.125 29.90625 
Q 28.265625 35.109375 21.484375 37.9375 
Q 16.15625 40.140625 6.984375 40.484375 
L 19.671875 66.21875 
z
" id="TimesNewRomanPSMT-53"/>
       </defs>
       <use xlink:href="#TimesNewRomanPSMT-53"/>
       <use x="50" xlink:href="#TimesNewRomanPSMT-48"/>
       <use x="100" xlink:href="#TimesNewRomanPSMT-48"/>
      </g>
     </g>
    </g>
    <g id="xtick_7">
     <g id="line2d_7">
      <g>
       <use style="stroke:#000000;stroke-width:0.5;" x="210.65125" xlink:href="#m386641f27d" y="142.2"/>
      </g>
     </g>
     <g id="text_7">
      <!-- 600 -->
      <g transform="translate(204.65125 148.755)scale(0.08 -0.08)">
       <defs>
        <path d="M 44.828125 67.578125 
L 44.828125 65.765625 
Q 38.375 65.140625 34.296875 63.203125 
Q 30.21875 61.28125 26.234375 57.328125 
Q 22.265625 53.375 19.65625 48.515625 
Q 17.046875 43.65625 15.28125 36.96875 
Q 22.3125 41.796875 29.390625 41.796875 
Q 36.1875 41.796875 41.15625 36.328125 
Q 46.140625 30.859375 46.140625 22.265625 
Q 46.140625 13.96875 41.109375 7.125 
Q 35.0625 -1.171875 25.09375 -1.171875 
Q 18.3125 -1.171875 13.578125 3.328125 
Q 4.296875 12.0625 4.296875 25.984375 
Q 4.296875 34.859375 7.859375 42.859375 
Q 11.421875 50.875 18.03125 57.078125 
Q 24.65625 63.28125 30.703125 65.421875 
Q 36.765625 67.578125 42 67.578125 
z
M 14.453125 33.40625 
Q 13.578125 26.8125 13.578125 22.75 
Q 13.578125 18.0625 15.3125 12.5625 
Q 17.046875 7.078125 20.453125 3.859375 
Q 22.953125 1.5625 26.515625 1.5625 
Q 30.765625 1.5625 34.109375 5.5625 
Q 37.453125 9.578125 37.453125 17 
Q 37.453125 25.34375 34.125 31.4375 
Q 30.8125 37.546875 24.703125 37.546875 
Q 22.859375 37.546875 20.734375 36.765625 
Q 18.609375 35.984375 14.453125 33.40625 
z
" id="TimesNewRomanPSMT-54"/>
       </defs>
       <use xlink:href="#TimesNewRomanPSMT-54"/>
       <use x="50" xlink:href="#TimesNewRomanPSMT-48"/>
       <use x="100" xlink:href="#TimesNewRomanPSMT-48"/>
      </g>
     </g>
    </g>
    <g id="text_8">
     <!-- Time Step (fine grid) -->
     <g transform="translate(84.843125 157.02125)scale(0.08 -0.08)">
      <defs>
       <path d="M 57.859375 66.21875 
L 58.59375 50.6875 
L 56.734375 50.6875 
Q 56.203125 54.78125 55.28125 56.546875 
Q 53.765625 59.375 51.25 60.71875 
Q 48.734375 62.0625 44.625 62.0625 
L 35.296875 62.0625 
L 35.296875 11.46875 
Q 35.296875 5.375 36.625 3.859375 
Q 38.484375 1.8125 42.328125 1.8125 
L 44.625 1.8125 
L 44.625 0 
L 16.546875 0 
L 16.546875 1.8125 
L 18.890625 1.8125 
Q 23.09375 1.8125 24.859375 4.34375 
Q 25.921875 5.90625 25.921875 11.46875 
L 25.921875 62.0625 
L 17.96875 62.0625 
Q 13.328125 62.0625 11.375 61.375 
Q 8.84375 60.453125 7.03125 57.8125 
Q 5.21875 55.171875 4.890625 50.6875 
L 3.03125 50.6875 
L 3.8125 66.21875 
z
" id="TimesNewRomanPSMT-84"/>
       <path d="M 14.5 69.4375 
Q 16.546875 69.4375 17.984375 67.984375 
Q 19.4375 66.546875 19.4375 64.5 
Q 19.4375 62.453125 17.984375 60.984375 
Q 16.546875 59.515625 14.5 59.515625 
Q 12.453125 59.515625 10.984375 60.984375 
Q 9.515625 62.453125 9.515625 64.5 
Q 9.515625 66.546875 10.953125 67.984375 
Q 12.40625 69.4375 14.5 69.4375 
z
M 18.5625 46.046875 
L 18.5625 10.109375 
Q 18.5625 5.90625 19.171875 4.515625 
Q 19.78125 3.125 20.96875 2.4375 
Q 22.171875 1.765625 25.34375 1.765625 
L 25.34375 0 
L 3.609375 0 
L 3.609375 1.765625 
Q 6.890625 1.765625 8 2.390625 
Q 9.125 3.03125 9.78125 4.484375 
Q 10.453125 5.953125 10.453125 10.109375 
L 10.453125 27.34375 
Q 10.453125 34.625 10.015625 36.765625 
Q 9.671875 38.328125 8.9375 38.9375 
Q 8.203125 39.546875 6.9375 39.546875 
Q 5.5625 39.546875 3.609375 38.8125 
L 2.9375 40.578125 
L 16.40625 46.046875 
z
" id="TimesNewRomanPSMT-105"/>
       <path d="M 16.40625 36.53125 
Q 21.296875 41.40625 22.171875 42.140625 
Q 24.359375 44 26.890625 45.015625 
Q 29.4375 46.046875 31.9375 46.046875 
Q 36.140625 46.046875 39.15625 43.59375 
Q 42.1875 41.15625 43.21875 36.53125 
Q 48.25 42.390625 51.703125 44.21875 
Q 55.171875 46.046875 58.84375 46.046875 
Q 62.40625 46.046875 65.15625 44.21875 
Q 67.921875 42.390625 69.53125 38.234375 
Q 70.609375 35.40625 70.609375 29.34375 
L 70.609375 10.109375 
Q 70.609375 5.90625 71.234375 4.34375 
Q 71.734375 3.265625 73.046875 2.515625 
Q 74.359375 1.765625 77.34375 1.765625 
L 77.34375 0 
L 55.28125 0 
L 55.28125 1.765625 
L 56.203125 1.765625 
Q 59.078125 1.765625 60.6875 2.875 
Q 61.8125 3.65625 62.3125 5.375 
Q 62.5 6.203125 62.5 10.109375 
L 62.5 29.34375 
Q 62.5 34.8125 61.1875 37.0625 
Q 59.28125 40.1875 55.078125 40.1875 
Q 52.484375 40.1875 49.875 38.890625 
Q 47.265625 37.59375 43.5625 34.078125 
L 43.453125 33.546875 
L 43.5625 31.453125 
L 43.5625 10.109375 
Q 43.5625 5.515625 44.0625 4.390625 
Q 44.578125 3.265625 45.984375 2.515625 
Q 47.40625 1.765625 50.828125 1.765625 
L 50.828125 0 
L 28.21875 0 
L 28.21875 1.765625 
Q 31.9375 1.765625 33.328125 2.640625 
Q 34.71875 3.515625 35.25 5.28125 
Q 35.5 6.109375 35.5 10.109375 
L 35.5 29.34375 
Q 35.5 34.8125 33.890625 37.203125 
Q 31.734375 40.328125 27.875 40.328125 
Q 25.25 40.328125 22.65625 38.921875 
Q 18.609375 36.765625 16.40625 34.078125 
L 16.40625 10.109375 
Q 16.40625 5.71875 17.015625 4.390625 
Q 17.625 3.078125 18.8125 2.421875 
Q 20.015625 1.765625 23.6875 1.765625 
L 23.6875 0 
L 1.5625 0 
L 1.5625 1.765625 
Q 4.640625 1.765625 5.859375 2.421875 
Q 7.078125 3.078125 7.703125 4.515625 
Q 8.34375 5.953125 8.34375 10.109375 
L 8.34375 27.203125 
Q 8.34375 34.578125 7.90625 36.71875 
Q 7.5625 38.328125 6.828125 38.9375 
Q 6.109375 39.546875 4.828125 39.546875 
Q 3.46875 39.546875 1.5625 38.8125 
L 0.828125 40.578125 
L 14.3125 46.046875 
L 16.40625 46.046875 
z
" id="TimesNewRomanPSMT-109"/>
       <path d="M 10.640625 27.875 
Q 10.59375 17.921875 15.484375 12.25 
Q 20.359375 6.59375 26.953125 6.59375 
Q 31.34375 6.59375 34.59375 9 
Q 37.84375 11.421875 40.046875 17.28125 
L 41.546875 16.3125 
Q 40.53125 9.625 35.59375 4.125 
Q 30.671875 -1.375 23.25 -1.375 
Q 15.1875 -1.375 9.453125 4.90625 
Q 3.71875 11.1875 3.71875 21.78125 
Q 3.71875 33.25 9.59375 39.671875 
Q 15.484375 46.09375 24.359375 46.09375 
Q 31.890625 46.09375 36.71875 41.140625 
Q 41.546875 36.1875 41.546875 27.875 
z
M 10.640625 30.71875 
L 31.34375 30.71875 
Q 31.109375 35.015625 30.328125 36.765625 
Q 29.109375 39.5 26.6875 41.0625 
Q 24.265625 42.625 21.625 42.625 
Q 17.578125 42.625 14.375 39.46875 
Q 11.1875 36.328125 10.640625 30.71875 
z
" id="TimesNewRomanPSMT-101"/>
       <path id="TimesNewRomanPSMT-32"/>
       <path d="M 45.84375 67.71875 
L 45.84375 44.828125 
L 44.046875 44.828125 
Q 43.171875 51.421875 40.890625 55.328125 
Q 38.625 59.234375 34.421875 61.515625 
Q 30.21875 63.8125 25.734375 63.8125 
Q 20.65625 63.8125 17.328125 60.71875 
Q 14.015625 57.625 14.015625 53.65625 
Q 14.015625 50.640625 16.109375 48.140625 
Q 19.140625 44.484375 30.515625 38.375 
Q 39.796875 33.40625 43.1875 30.734375 
Q 46.578125 28.078125 48.40625 24.453125 
Q 50.25 20.84375 50.25 16.890625 
Q 50.25 9.375 44.40625 3.921875 
Q 38.578125 -1.515625 29.390625 -1.515625 
Q 26.515625 -1.515625 23.96875 -1.078125 
Q 22.46875 -0.828125 17.703125 0.703125 
Q 12.9375 2.25 11.671875 2.25 
Q 10.453125 2.25 9.734375 1.515625 
Q 9.03125 0.78125 8.6875 -1.515625 
L 6.890625 -1.515625 
L 6.890625 21.1875 
L 8.6875 21.1875 
Q 9.96875 14.0625 12.109375 10.515625 
Q 14.265625 6.984375 18.671875 4.640625 
Q 23.09375 2.296875 28.375 2.296875 
Q 34.46875 2.296875 38 5.515625 
Q 41.546875 8.734375 41.546875 13.140625 
Q 41.546875 15.578125 40.203125 18.0625 
Q 38.875 20.5625 36.03125 22.703125 
Q 34.125 24.171875 25.625 28.921875 
Q 17.140625 33.6875 13.546875 36.515625 
Q 9.96875 39.359375 8.109375 42.765625 
Q 6.25 46.1875 6.25 50.296875 
Q 6.25 57.421875 11.71875 62.5625 
Q 17.1875 67.71875 25.640625 67.71875 
Q 30.90625 67.71875 36.8125 65.140625 
Q 39.546875 63.921875 40.671875 63.921875 
Q 41.9375 63.921875 42.75 64.671875 
Q 43.5625 65.4375 44.046875 67.71875 
z
" id="TimesNewRomanPSMT-83"/>
       <path d="M 16.109375 59.421875 
L 16.109375 44.734375 
L 26.5625 44.734375 
L 26.5625 41.3125 
L 16.109375 41.3125 
L 16.109375 12.3125 
Q 16.109375 7.953125 17.359375 6.4375 
Q 18.609375 4.9375 20.5625 4.9375 
Q 22.171875 4.9375 23.6875 5.9375 
Q 25.203125 6.9375 26.03125 8.890625 
L 27.9375 8.890625 
Q 26.21875 4.109375 23.09375 1.6875 
Q 19.96875 -0.734375 16.65625 -0.734375 
Q 14.40625 -0.734375 12.25 0.515625 
Q 10.109375 1.765625 9.078125 4.078125 
Q 8.0625 6.390625 8.0625 11.234375 
L 8.0625 41.3125 
L 0.984375 41.3125 
L 0.984375 42.921875 
Q 3.65625 44 6.46875 46.5625 
Q 9.28125 49.125 11.46875 52.640625 
Q 12.59375 54.5 14.59375 59.421875 
z
" id="TimesNewRomanPSMT-116"/>
       <path d="M -0.09375 40.28125 
L 13.671875 45.84375 
L 15.53125 45.84375 
L 15.53125 35.40625 
Q 19 41.3125 22.484375 43.671875 
Q 25.984375 46.046875 29.828125 46.046875 
Q 36.578125 46.046875 41.0625 40.765625 
Q 46.578125 34.328125 46.578125 23.96875 
Q 46.578125 12.40625 39.9375 4.828125 
Q 34.46875 -1.375 26.171875 -1.375 
Q 22.5625 -1.375 19.921875 -0.34375 
Q 17.96875 0.390625 15.53125 2.59375 
L 15.53125 -11.03125 
Q 15.53125 -15.625 16.09375 -16.859375 
Q 16.65625 -18.109375 18.046875 -18.84375 
Q 19.4375 -19.578125 23.09375 -19.578125 
L 23.09375 -21.390625 
L -0.34375 -21.390625 
L -0.34375 -19.578125 
L 0.875 -19.578125 
Q 3.5625 -19.625 5.46875 -18.5625 
Q 6.390625 -18.015625 6.90625 -16.8125 
Q 7.421875 -15.625 7.421875 -10.75 
L 7.421875 31.546875 
Q 7.421875 35.890625 7.03125 37.0625 
Q 6.640625 38.234375 5.78125 38.8125 
Q 4.9375 39.40625 3.46875 39.40625 
Q 2.296875 39.40625 0.484375 38.71875 
z
M 15.53125 32.515625 
L 15.53125 15.828125 
Q 15.53125 10.40625 15.96875 8.6875 
Q 16.65625 5.859375 19.3125 3.703125 
Q 21.96875 1.5625 26.03125 1.5625 
Q 30.90625 1.5625 33.9375 5.375 
Q 37.890625 10.359375 37.890625 19.390625 
Q 37.890625 29.640625 33.40625 35.15625 
Q 30.28125 38.96875 25.984375 38.96875 
Q 23.640625 38.96875 21.34375 37.796875 
Q 19.578125 36.921875 15.53125 32.515625 
z
" id="TimesNewRomanPSMT-112"/>
       <path d="M 31.0625 -19.578125 
L 31.0625 -21.390625 
Q 23.6875 -17.671875 18.75 -12.703125 
Q 11.71875 -5.609375 7.90625 4 
Q 4.109375 13.625 4.109375 23.96875 
Q 4.109375 39.109375 11.578125 51.578125 
Q 19.046875 64.0625 31.0625 69.4375 
L 31.0625 67.390625 
Q 25.046875 64.0625 21.1875 58.296875 
Q 17.328125 52.546875 15.421875 43.703125 
Q 13.53125 34.859375 13.53125 25.25 
Q 13.53125 14.796875 15.140625 6.25 
Q 16.40625 -0.484375 18.203125 -4.5625 
Q 20.015625 -8.640625 23.0625 -12.390625 
Q 26.125 -16.15625 31.0625 -19.578125 
z
" id="TimesNewRomanPSMT-40"/>
       <path d="M 20.609375 41.21875 
L 20.609375 11.8125 
Q 20.609375 5.5625 21.96875 3.90625 
Q 23.78125 1.765625 26.8125 1.765625 
L 30.859375 1.765625 
L 30.859375 0 
L 4.15625 0 
L 4.15625 1.765625 
L 6.15625 1.765625 
Q 8.109375 1.765625 9.71875 2.734375 
Q 11.328125 3.71875 11.9375 5.375 
Q 12.546875 7.03125 12.546875 11.8125 
L 12.546875 41.21875 
L 3.859375 41.21875 
L 3.859375 44.734375 
L 12.546875 44.734375 
L 12.546875 47.65625 
Q 12.546875 54.34375 14.6875 58.984375 
Q 16.84375 63.625 21.265625 66.484375 
Q 25.6875 69.34375 31.203125 69.34375 
Q 36.328125 69.34375 40.625 66.015625 
Q 43.453125 63.8125 43.453125 61.078125 
Q 43.453125 59.625 42.1875 58.328125 
Q 40.921875 57.03125 39.453125 57.03125 
Q 38.328125 57.03125 37.078125 57.828125 
Q 35.84375 58.640625 34.03125 61.296875 
Q 32.234375 63.96875 30.71875 64.890625 
Q 29.203125 65.828125 27.34375 65.828125 
Q 25.09375 65.828125 23.53125 64.625 
Q 21.96875 63.421875 21.28125 60.90625 
Q 20.609375 58.40625 20.609375 47.953125 
L 20.609375 44.734375 
L 32.125 44.734375 
L 32.125 41.21875 
z
" id="TimesNewRomanPSMT-102"/>
       <path d="M 16.15625 36.578125 
Q 24.03125 46.046875 31.15625 46.046875 
Q 34.8125 46.046875 37.453125 44.21875 
Q 40.09375 42.390625 41.65625 38.1875 
Q 42.71875 35.25 42.71875 29.203125 
L 42.71875 10.109375 
Q 42.71875 5.859375 43.40625 4.34375 
Q 43.953125 3.125 45.140625 2.4375 
Q 46.34375 1.765625 49.5625 1.765625 
L 49.5625 0 
L 27.4375 0 
L 27.4375 1.765625 
L 28.375 1.765625 
Q 31.5 1.765625 32.734375 2.703125 
Q 33.984375 3.65625 34.46875 5.515625 
Q 34.671875 6.25 34.671875 10.109375 
L 34.671875 28.421875 
Q 34.671875 34.515625 33.078125 37.28125 
Q 31.5 40.046875 27.734375 40.046875 
Q 21.921875 40.046875 16.15625 33.6875 
L 16.15625 10.109375 
Q 16.15625 5.5625 16.703125 4.5 
Q 17.390625 3.078125 18.578125 2.421875 
Q 19.78125 1.765625 23.4375 1.765625 
L 23.4375 0 
L 1.3125 0 
L 1.3125 1.765625 
L 2.296875 1.765625 
Q 5.71875 1.765625 6.90625 3.484375 
Q 8.109375 5.21875 8.109375 10.109375 
L 8.109375 26.703125 
Q 8.109375 34.765625 7.734375 36.515625 
Q 7.375 38.28125 6.609375 38.90625 
Q 5.859375 39.546875 4.59375 39.546875 
Q 3.21875 39.546875 1.3125 38.8125 
L 0.59375 40.578125 
L 14.0625 46.046875 
L 16.15625 46.046875 
z
" id="TimesNewRomanPSMT-110"/>
       <path d="M 15.09375 16.3125 
Q 10.984375 18.3125 8.78125 21.890625 
Q 6.59375 25.484375 6.59375 29.828125 
Q 6.59375 36.46875 11.59375 41.25 
Q 16.609375 46.046875 24.421875 46.046875 
Q 30.8125 46.046875 35.5 42.921875 
L 44.96875 42.921875 
Q 47.078125 42.921875 47.40625 42.796875 
Q 47.75 42.671875 47.90625 42.390625 
Q 48.1875 41.9375 48.1875 40.828125 
Q 48.1875 39.546875 47.953125 39.0625 
Q 47.796875 38.8125 47.4375 38.671875 
Q 47.078125 38.53125 44.96875 38.53125 
L 39.15625 38.53125 
Q 41.890625 35.015625 41.890625 29.546875 
Q 41.890625 23.296875 37.109375 18.84375 
Q 32.328125 14.40625 24.265625 14.40625 
Q 20.953125 14.40625 17.484375 15.375 
Q 15.328125 13.53125 14.5625 12.140625 
Q 13.8125 10.75 13.8125 9.765625 
Q 13.8125 8.9375 14.625 8.15625 
Q 15.4375 7.375 17.78125 7.03125 
Q 19.140625 6.84375 24.609375 6.6875 
Q 34.671875 6.453125 37.640625 6 
Q 42.1875 5.375 44.890625 2.640625 
Q 47.609375 -0.09375 47.609375 -4.109375 
Q 47.609375 -9.625 42.4375 -14.453125 
Q 34.8125 -21.578125 22.5625 -21.578125 
Q 13.140625 -21.578125 6.640625 -17.328125 
Q 2.984375 -14.890625 2.984375 -12.25 
Q 2.984375 -11.078125 3.515625 -9.90625 
Q 4.34375 -8.109375 6.9375 -4.890625 
Q 7.28125 -4.4375 11.921875 0.390625 
Q 9.375 1.90625 8.328125 3.09375 
Q 7.28125 4.296875 7.28125 5.8125 
Q 7.28125 7.515625 8.671875 9.8125 
Q 10.0625 12.109375 15.09375 16.3125 
z
M 23.578125 43.703125 
Q 19.96875 43.703125 17.53125 40.8125 
Q 15.09375 37.9375 15.09375 31.984375 
Q 15.09375 24.265625 18.40625 20.015625 
Q 20.953125 16.796875 24.859375 16.796875 
Q 28.5625 16.796875 30.953125 19.578125 
Q 33.34375 22.359375 33.34375 28.328125 
Q 33.34375 36.078125 29.984375 40.484375 
Q 27.484375 43.703125 23.578125 43.703125 
z
M 14.59375 0 
Q 12.3125 -2.484375 11.140625 -4.625 
Q 9.96875 -6.78125 9.96875 -8.59375 
Q 9.96875 -10.9375 12.796875 -12.703125 
Q 17.671875 -15.71875 26.90625 -15.71875 
Q 35.6875 -15.71875 39.859375 -12.609375 
Q 44.046875 -9.515625 44.046875 -6 
Q 44.046875 -3.46875 41.546875 -2.390625 
Q 39.015625 -1.3125 31.5 -1.125 
Q 20.515625 -0.828125 14.59375 0 
z
" id="TimesNewRomanPSMT-103"/>
       <path d="M 16.21875 46.046875 
L 16.21875 35.984375 
Q 21.828125 46.046875 27.734375 46.046875 
Q 30.421875 46.046875 32.171875 44.40625 
Q 33.9375 42.78125 33.9375 40.625 
Q 33.9375 38.71875 32.65625 37.390625 
Q 31.390625 36.078125 29.640625 36.078125 
Q 27.9375 36.078125 25.8125 37.765625 
Q 23.6875 39.453125 22.65625 39.453125 
Q 21.78125 39.453125 20.75 38.484375 
Q 18.5625 36.46875 16.21875 31.890625 
L 16.21875 10.453125 
Q 16.21875 6.734375 17.140625 4.828125 
Q 17.78125 3.515625 19.390625 2.640625 
Q 21 1.765625 24.03125 1.765625 
L 24.03125 0 
L 1.125 0 
L 1.125 1.765625 
Q 4.546875 1.765625 6.203125 2.828125 
Q 7.421875 3.609375 7.90625 5.328125 
Q 8.15625 6.15625 8.15625 10.0625 
L 8.15625 27.390625 
Q 8.15625 35.203125 7.828125 36.6875 
Q 7.515625 38.1875 6.65625 38.859375 
Q 5.8125 39.546875 4.546875 39.546875 
Q 3.03125 39.546875 1.125 38.8125 
L 0.640625 40.578125 
L 14.15625 46.046875 
z
" id="TimesNewRomanPSMT-114"/>
       <path d="M 34.71875 5.03125 
Q 31.453125 1.609375 28.328125 0.109375 
Q 25.203125 -1.375 21.578125 -1.375 
Q 14.265625 -1.375 8.796875 4.75 
Q 3.328125 10.890625 3.328125 20.515625 
Q 3.328125 30.125 9.375 38.109375 
Q 15.4375 46.09375 24.953125 46.09375 
Q 30.859375 46.09375 34.71875 42.328125 
L 34.71875 50.59375 
Q 34.71875 58.25 34.34375 60 
Q 33.984375 61.765625 33.203125 62.390625 
Q 32.421875 63.03125 31.25 63.03125 
Q 29.984375 63.03125 27.875 62.25 
L 27.25 63.96875 
L 40.578125 69.4375 
L 42.78125 69.4375 
L 42.78125 17.71875 
Q 42.78125 9.859375 43.140625 8.125 
Q 43.5 6.390625 44.3125 5.703125 
Q 45.125 5.03125 46.1875 5.03125 
Q 47.515625 5.03125 49.703125 5.859375 
L 50.25 4.15625 
L 36.96875 -1.375 
L 34.71875 -1.375 
z
M 34.71875 8.453125 
L 34.71875 31.5 
Q 34.421875 34.8125 32.953125 37.546875 
Q 31.5 40.28125 29.078125 41.671875 
Q 26.65625 43.0625 24.359375 43.0625 
Q 20.0625 43.0625 16.703125 39.203125 
Q 12.25 34.125 12.25 24.359375 
Q 12.25 14.5 16.546875 9.25 
Q 20.84375 4 26.125 4 
Q 30.5625 4 34.71875 8.453125 
z
" id="TimesNewRomanPSMT-100"/>
       <path d="M 2.25 67.390625 
L 2.25 69.4375 
Q 9.671875 65.765625 14.59375 60.796875 
Q 21.578125 53.65625 25.390625 44.0625 
Q 29.203125 34.46875 29.203125 24.078125 
Q 29.203125 8.9375 21.75 -3.53125 
Q 14.3125 -16.015625 2.25 -21.390625 
L 2.25 -19.578125 
Q 8.25 -16.21875 12.125 -10.46875 
Q 16.015625 -4.734375 17.890625 4.125 
Q 19.78125 12.984375 19.78125 22.609375 
Q 19.78125 33.015625 18.171875 41.609375 
Q 16.9375 48.34375 15.109375 52.390625 
Q 13.28125 56.453125 10.25 60.203125 
Q 7.234375 63.96875 2.25 67.390625 
z
" id="TimesNewRomanPSMT-41"/>
      </defs>
      <use xlink:href="#TimesNewRomanPSMT-84"/>
      <use x="57.583984" xlink:href="#TimesNewRomanPSMT-105"/>
      <use x="85.367188" xlink:href="#TimesNewRomanPSMT-109"/>
      <use x="163.150391" xlink:href="#TimesNewRomanPSMT-101"/>
      <use x="207.535156" xlink:href="#TimesNewRomanPSMT-32"/>
      <use x="232.535156" xlink:href="#TimesNewRomanPSMT-83"/>
      <use x="288.150391" xlink:href="#TimesNewRomanPSMT-116"/>
      <use x="315.933594" xlink:href="#TimesNewRomanPSMT-101"/>
      <use x="360.318359" xlink:href="#TimesNewRomanPSMT-112"/>
      <use x="410.318359" xlink:href="#TimesNewRomanPSMT-32"/>
      <use x="435.318359" xlink:href="#TimesNewRomanPSMT-40"/>
      <use x="468.619141" xlink:href="#TimesNewRomanPSMT-102"/>
      <use x="501.919922" xlink:href="#TimesNewRomanPSMT-105"/>
      <use x="529.703125" xlink:href="#TimesNewRomanPSMT-110"/>
      <use x="579.703125" xlink:href="#TimesNewRomanPSMT-101"/>
      <use x="624.087891" xlink:href="#TimesNewRomanPSMT-32"/>
      <use x="649.087891" xlink:href="#TimesNewRomanPSMT-103"/>
      <use x="699.087891" xlink:href="#TimesNewRomanPSMT-114"/>
      <use x="732.388672" xlink:href="#TimesNewRomanPSMT-105"/>
      <use x="760.171875" xlink:href="#TimesNewRomanPSMT-100"/>
      <use x="810.171875" xlink:href="#TimesNewRomanPSMT-41"/>
     </g>
    </g>
   </g>
   <g id="matplotlib.axis_2">
    <g id="ytick_1">
     <g id="line2d_8">
      <defs>
       <path d="M 0 0 
L 3 0 
" id="m34e88f7efe" style="stroke:#000000;stroke-width:0.5;"/>
      </defs>
      <g>
       <use style="stroke:#000000;stroke-width:0.5;" x="26.51125" xlink:href="#m34e88f7efe" y="128.34"/>
      </g>
     </g>
     <g id="text_9">
      <!-- −20 -->
      <g transform="translate(13 131.1175)scale(0.08 -0.08)">
       <defs>
        <path d="M 54.4375 31.25 
L 1.8125 31.25 
L 1.8125 35.25 
L 54.4375 35.25 
z
" id="TimesNewRomanPSMT-8722"/>
       </defs>
       <use xlink:href="#TimesNewRomanPSMT-8722"/>
       <use x="56.396484" xlink:href="#TimesNewRomanPSMT-50"/>
       <use x="106.396484" xlink:href="#TimesNewRomanPSMT-48"/>
      </g>
     </g>
    </g>
    <g id="ytick_2">
     <g id="line2d_9">
      <g>
       <use style="stroke:#000000;stroke-width:0.5;" x="26.51125" xlink:href="#m34e88f7efe" y="100.62"/>
      </g>
     </g>
     <g id="text_10">
      <!-- 0 -->
      <g transform="translate(21.51125 103.3975)scale(0.08 -0.08)">
       <use xlink:href="#TimesNewRomanPSMT-48"/>
      </g>
     </g>
    </g>
    <g id="ytick_3">
     <g id="line2d_10">
      <g>
       <use style="stroke:#000000;stroke-width:0.5;" x="26.51125" xlink:href="#m34e88f7efe" y="72.9"/>
      </g>
     </g>
     <g id="text_11">
      <!-- 20 -->
      <g transform="translate(17.51125 75.6775)scale(0.08 -0.08)">
       <use xlink:href="#TimesNewRomanPSMT-50"/>
       <use x="50" xlink:href="#TimesNewRomanPSMT-48"/>
      </g>
     </g>
    </g>
    <g id="ytick_4">
     <g id="line2d_11">
      <g>
       <use style="stroke:#000000;stroke-width:0.5;" x="26.51125" xlink:href="#m34e88f7efe" y="45.18"/>
      </g>
     </g>
     <g id="text_12">
      <!-- 40 -->
      <g transform="translate(17.51125 47.9575)scale(0.08 -0.08)">
       <use xlink:href="#TimesNewRomanPSMT-52"/>
       <use x="50" xlink:href="#TimesNewRomanPSMT-48"/>
      </g>
     </g>
    </g>
    <g id="ytick_5">
     <g id="line2d_12">
      <g>
       <use style="stroke:#000000;stroke-width:0.5;" x="26.51125" xlink:href="#m34e88f7efe" y="17.46"/>
      </g>
     </g>
     <g id="text_13">
      <!-- 60 -->
      <g transform="translate(17.51125 20.2375)scale(0.08 -0.08)">
       <use xlink:href="#TimesNewRomanPSMT-54"/>
       <use x="50" xlink:href="#TimesNewRomanPSMT-48"/>
      </g>
     </g>
    </g>
    <g id="text_14">
     <!-- Electric Field $E_y$ (V/m) -->
     <g transform="translate(9.44 110.94)rotate(-90)scale(0.08 -0.08)">
      <defs>
       <path d="M 20.90625 62.59375 
L 20.90625 36.421875 
L 35.453125 36.421875 
Q 41.109375 36.421875 43.015625 38.140625 
Q 45.5625 40.375 45.84375 46.046875 
L 47.65625 46.046875 
L 47.65625 23 
L 45.84375 23 
Q 45.171875 27.828125 44.484375 29.203125 
Q 43.609375 30.90625 41.59375 31.875 
Q 39.59375 32.859375 35.453125 32.859375 
L 20.90625 32.859375 
L 20.90625 11.03125 
Q 20.90625 6.640625 21.296875 5.6875 
Q 21.6875 4.734375 22.65625 4.171875 
Q 23.640625 3.609375 26.375 3.609375 
L 37.59375 3.609375 
Q 43.21875 3.609375 45.75 4.390625 
Q 48.296875 5.171875 50.640625 7.46875 
Q 53.65625 10.5 56.84375 16.609375 
L 58.796875 16.609375 
L 53.078125 0 
L 2.046875 0 
L 2.046875 1.8125 
L 4.390625 1.8125 
Q 6.734375 1.8125 8.84375 2.9375 
Q 10.40625 3.71875 10.96875 5.28125 
Q 11.53125 6.84375 11.53125 11.671875 
L 11.53125 54.6875 
Q 11.53125 60.984375 10.25 62.453125 
Q 8.5 64.40625 4.390625 64.40625 
L 2.046875 64.40625 
L 2.046875 66.21875 
L 53.078125 66.21875 
L 53.8125 51.703125 
L 51.90625 51.703125 
Q 50.875 56.9375 49.625 58.890625 
Q 48.390625 60.84375 45.953125 61.859375 
Q 44 62.59375 39.0625 62.59375 
z
" id="TimesNewRomanPSMT-69"/>
       <path d="M 18.5 69.4375 
L 18.5 10.109375 
Q 18.5 5.90625 19.109375 4.53125 
Q 19.734375 3.171875 21 2.46875 
Q 22.265625 1.765625 25.734375 1.765625 
L 25.734375 0 
L 3.8125 0 
L 3.8125 1.765625 
Q 6.890625 1.765625 8 2.390625 
Q 9.125 3.03125 9.765625 4.484375 
Q 10.40625 5.953125 10.40625 10.109375 
L 10.40625 50.734375 
Q 10.40625 58.296875 10.0625 60.03125 
Q 9.71875 61.765625 8.953125 62.390625 
Q 8.203125 63.03125 7.03125 63.03125 
Q 5.765625 63.03125 3.8125 62.25 
L 2.984375 63.96875 
L 16.3125 69.4375 
z
" id="TimesNewRomanPSMT-108"/>
       <path d="M 41.109375 17 
Q 39.3125 8.15625 34.03125 3.390625 
Q 28.765625 -1.375 22.359375 -1.375 
Q 14.75 -1.375 9.078125 5.015625 
Q 3.421875 11.421875 3.421875 22.3125 
Q 3.421875 32.859375 9.6875 39.453125 
Q 15.96875 46.046875 24.75 46.046875 
Q 31.34375 46.046875 35.59375 42.546875 
Q 39.84375 39.0625 39.84375 35.296875 
Q 39.84375 33.453125 38.640625 32.296875 
Q 37.453125 31.15625 35.296875 31.15625 
Q 32.421875 31.15625 30.953125 33.015625 
Q 30.125 34.03125 29.859375 36.90625 
Q 29.59375 39.796875 27.875 41.3125 
Q 26.171875 42.78125 23.140625 42.78125 
Q 18.265625 42.78125 15.28125 39.15625 
Q 11.328125 34.375 11.328125 26.515625 
Q 11.328125 18.5 15.25 12.375 
Q 19.1875 6.25 25.875 6.25 
Q 30.671875 6.25 34.46875 9.515625 
Q 37.15625 11.765625 39.703125 17.671875 
z
" id="TimesNewRomanPSMT-99"/>
       <path d="M 20.453125 62.59375 
L 20.453125 36.578125 
L 32.515625 36.578125 
Q 36.671875 36.578125 38.59375 38.40625 
Q 40.53125 40.234375 41.15625 45.65625 
L 42.96875 45.65625 
L 42.96875 23.25 
L 41.15625 23.25 
Q 41.109375 27.09375 40.15625 28.90625 
Q 39.203125 30.71875 37.515625 31.609375 
Q 35.84375 32.515625 32.515625 32.515625 
L 20.453125 32.515625 
L 20.453125 11.71875 
Q 20.453125 6.6875 21.09375 5.078125 
Q 21.578125 3.859375 23.140625 2.984375 
Q 25.296875 1.8125 27.640625 1.8125 
L 30.03125 1.8125 
L 30.03125 0 
L 1.609375 0 
L 1.609375 1.8125 
L 3.953125 1.8125 
Q 8.0625 1.8125 9.90625 4.203125 
Q 11.078125 5.765625 11.078125 11.71875 
L 11.078125 54.5 
Q 11.078125 59.515625 10.453125 61.140625 
Q 9.96875 62.359375 8.453125 63.234375 
Q 6.34375 64.40625 3.953125 64.40625 
L 1.609375 64.40625 
L 1.609375 66.21875 
L 50.875 66.21875 
L 51.515625 51.65625 
L 49.8125 51.65625 
Q 48.53125 56.296875 46.84375 58.46875 
Q 45.171875 60.640625 42.703125 61.609375 
Q 40.234375 62.59375 35.0625 62.59375 
z
" id="TimesNewRomanPSMT-70"/>
       <path d="M -1.515625 0 
L -0.53125 5.171875 
L 8.734375 5.171875 
L 20.90625 67.671875 
L 11.625 67.671875 
L 12.640625 72.90625 
L 71.34375 72.90625 
L 68.21875 56.6875 
L 62.203125 56.6875 
L 64.15625 66.890625 
L 30.671875 66.890625 
L 25.921875 42.484375 
L 49.8125 42.484375 
L 51.5625 51.609375 
L 57.5625 51.609375 
L 52.875 27.390625 
L 46.875 27.390625 
L 48.640625 36.53125 
L 24.75 36.53125 
L 18.84375 6 
L 53.125 6 
L 55.078125 16.21875 
L 61.078125 16.21875 
L 57.953125 0 
z
" id="DejaVuSerif-Italic-69"/>
       <path d="M 57.515625 51.46875 
Q 52.6875 23.53125 44.1875 8.796875 
Q 31.734375 -12.84375 21.734375 -19.34375 
Q 17.28125 -22.21875 5.5625 -22.21875 
Q 3.265625 -22.21875 0.9375 -21.828125 
Q -1.375 -21.4375 -3.71875 -20.703125 
L -1.765625 -10.796875 
L 2.828125 -10.796875 
Q 2.734375 -11.578125 2.734375 -12.3125 
Q 2.734375 -14.359375 3.609375 -15.53125 
Q 4.828125 -17.1875 8.015625 -17.1875 
Q 16.609375 -17.1875 24.078125 -9.71875 
L 11.8125 46.6875 
L 5.90625 46.6875 
L 6.9375 51.90625 
L 20.359375 51.90625 
L 31.890625 0.390625 
Q 39.75 12.15625 41.65625 17 
Q 47.796875 32.171875 49.03125 46.234375 
L 43.109375 46.234375 
L 44.140625 51.46875 
z
" id="DejaVuSerif-Italic-121"/>
       <path d="M 71 66.21875 
L 71 64.40625 
Q 67.484375 63.765625 65.671875 62.15625 
Q 63.09375 59.765625 61.078125 54.828125 
L 37.984375 -1.515625 
L 36.1875 -1.515625 
L 11.375 55.5625 
Q 9.46875 59.96875 8.6875 60.9375 
Q 7.46875 62.453125 5.6875 63.296875 
Q 3.90625 64.15625 0.875 64.40625 
L 0.875 66.21875 
L 27.9375 66.21875 
L 27.9375 64.40625 
Q 23.34375 63.96875 21.96875 62.84375 
Q 20.609375 61.71875 20.609375 59.96875 
Q 20.609375 57.515625 22.859375 52.34375 
L 39.703125 13.53125 
L 55.328125 51.859375 
Q 57.625 57.515625 57.625 59.71875 
Q 57.625 61.140625 56.203125 62.421875 
Q 54.78125 63.71875 51.421875 64.265625 
Q 51.171875 64.3125 50.59375 64.40625 
L 50.59375 66.21875 
z
" id="TimesNewRomanPSMT-86"/>
       <path d="M 28.03125 69.4375 
L 4.046875 -1.375 
L 0.140625 -1.375 
L 24.125 69.4375 
z
" id="TimesNewRomanPSMT-47"/>
      </defs>
      <use transform="translate(0 0.09375)" xlink:href="#TimesNewRomanPSMT-69"/>
      <use transform="translate(61.083984 0.09375)" xlink:href="#TimesNewRomanPSMT-108"/>
      <use transform="translate(88.867188 0.09375)" xlink:href="#TimesNewRomanPSMT-101"/>
      <use transform="translate(133.251953 0.09375)" xlink:href="#TimesNewRomanPSMT-99"/>
      <use transform="translate(177.636719 0.09375)" xlink:href="#TimesNewRomanPSMT-116"/>
      <use transform="translate(205.419922 0.09375)" xlink:href="#TimesNewRomanPSMT-114"/>
      <use transform="translate(238.720703 0.09375)" xlink:href="#TimesNewRomanPSMT-105"/>
      <use transform="translate(266.503906 0.09375)" xlink:href="#TimesNewRomanPSMT-99"/>
      <use transform="translate(310.888672 0.09375)" xlink:href="#TimesNewRomanPSMT-32"/>
      <use transform="translate(335.888672 0.09375)" xlink:href="#TimesNewRomanPSMT-70"/>
      <use transform="translate(391.503906 0.09375)" xlink:href="#TimesNewRomanPSMT-105"/>
      <use transform="translate(419.287109 0.09375)" xlink:href="#TimesNewRomanPSMT-101"/>
      <use transform="translate(463.671875 0.09375)" xlink:href="#TimesNewRomanPSMT-108"/>
      <use transform="translate(491.455078 0.09375)" xlink:href="#TimesNewRomanPSMT-100"/>
      <use transform="translate(541.455078 0.09375)" xlink:href="#TimesNewRomanPSMT-32"/>
      <use transform="translate(566.455078 0.09375)" xlink:href="#DejaVuSerif-Italic-69"/>
      <use transform="translate(639.453125 -15.478125)scale(0.7)" xlink:href="#DejaVuSerif-Italic-121"/>
      <use transform="translate(681.594336 0.09375)" xlink:href="#TimesNewRomanPSMT-32"/>
      <use transform="translate(706.594336 0.09375)" xlink:href="#TimesNewRomanPSMT-40"/>
      <use transform="translate(739.895117 0.09375)" xlink:href="#TimesNewRomanPSMT-86"/>
      <use transform="translate(812.111914 0.09375)" xlink:href="#TimesNewRomanPSMT-47"/>
      <use transform="translate(839.895117 0.09375)" xlink:href="#TimesNewRomanPSMT-109"/>
      <use transform="translate(917.67832 0.09375)" xlink:href="#TimesNewRomanPSMT-41"/>
     </g>
    </g>
   </g>
   <g id="line2d_13">
    <path clip-path="url(#p6d79aacc0f)" d="M 26.81815 100.62 
L 40.93555 100.510244 
L 44.92525 100.290383 
L 47.99425 99.905751 
L 50.14255 99.439023 
L 51.98395 98.83807 
L 53.82535 97.984341 
L 55.35985 97.02525 
L 56.89435 95.788223 
L 58.42885 94.219348 
L 59.96335 92.2627 
L 61.49785 89.863957 
L 63.03235 86.975227 
L 64.56685 83.560522 
L 66.10135 79.601265 
L 67.94275 74.139062 
L 69.78415 67.960431 
L 72.23935 58.838836 
L 78.37735 35.331337 
L 79.91185 30.390978 
L 81.13945 27.014736 
L 82.36705 24.264906 
L 83.28775 22.670196 
L 84.20845 21.513931 
L 84.82225 21.000329 
L 85.43605 20.700289 
L 86.04985 20.618582 
L 86.66365 20.758679 
L 87.27745 21.122258 
L 87.89125 21.709497 
L 88.81195 23.005859 
L 89.73265 24.78942 
L 90.65335 27.039824 
L 91.88095 30.71713 
L 93.10855 35.08812 
L 94.64305 41.366767 
L 96.79135 51.250369 
L 103.54315 83.283722 
L 105.38455 90.551263 
L 106.91905 95.764994 
L 108.45355 100.142256 
L 109.68115 103.026121 
L 110.90875 105.366753 
L 112.13635 107.184018 
L 113.05705 108.221733 
L 113.97775 108.998375 
L 114.89845 109.532312 
L 115.81915 109.843351 
L 116.73985 109.95224 
L 117.66055 109.880263 
L 118.88815 109.539658 
L 120.11575 108.96467 
L 121.65025 107.987902 
L 123.49165 106.548783 
L 126.86755 103.55094 
L 130.55035 100.345578 
L 133.00555 98.504447 
L 135.15385 97.181276 
L 136.99525 96.293427 
L 138.83665 95.647126 
L 140.67805 95.245348 
L 142.51945 95.081948 
L 144.36085 95.142772 
L 146.20225 95.406551 
L 148.35055 95.934174 
L 150.80575 96.762941 
L 154.48855 98.275155 
L 160.62655 100.829622 
L 163.69555 101.861786 
L 166.45765 102.574387 
L 169.21975 103.072886 
L 172.28875 103.396964 
L 175.97155 103.536057 
L 181.80265 103.474996 
L 187.32685 103.480555 
L 191.00965 103.700598 
L 194.38555 104.134422 
L 197.45455 104.751757 
L 200.83045 105.676993 
L 204.51325 106.928303 
L 210.65125 109.210041 
L 210.65125 109.210041 
" style="fill:none;stroke:#000000;stroke-linecap:square;stroke-width:0.6;"/>
   </g>
   <g id="line2d_14">
    <path clip-path="url(#p6d79aacc0f)" d="M 26.81815 100.62 
L 42.16315 100.511305 
L 46.15285 100.305529 
L 48.91495 100.002591 
L 51.37015 99.538556 
L 53.51845 98.902858 
L 55.35985 98.118381 
L 56.89435 97.249742 
L 58.42885 96.142486 
L 59.96335 94.75305 
L 61.49785 93.037032 
L 63.03235 90.951863 
L 64.56685 88.460127 
L 66.10135 85.534328 
L 67.63585 82.158406 
L 69.47725 77.516858 
L 71.31865 72.26757 
L 73.46695 65.496299 
L 76.84285 54.002617 
L 80.52565 41.671021 
L 82.36705 36.212896 
L 83.90155 32.284026 
L 85.12915 29.646008 
L 86.35675 27.523484 
L 87.27745 26.299705 
L 88.19815 25.410075 
L 89.11885 24.86464 
L 90.03955 24.670347 
L 90.65335 24.737579 
L 91.26715 24.959968 
L 92.18785 25.58315 
L 93.10855 26.543126 
L 94.02925 27.825561 
L 95.25685 30.005303 
L 96.48445 32.67175 
L 98.01895 36.59142 
L 99.86035 41.970132 
L 102.62245 50.878993 
L 107.53285 66.85539 
L 109.68115 73.098613 
L 111.52255 77.84706 
L 113.36395 81.959096 
L 114.89845 84.875617 
L 116.43295 87.328227 
L 117.96745 89.33228 
L 119.50195 90.915193 
L 121.03645 92.113947 
L 122.57095 92.972762 
L 124.10545 93.540696 
L 125.63995 93.869366 
L 127.48135 94.021606 
L 129.93655 93.95674 
L 136.99525 93.58153 
L 139.14355 93.742533 
L 141.29185 94.112317 
L 143.44015 94.697808 
L 145.89535 95.610697 
L 148.65745 96.885878 
L 152.95405 99.152709 
L 157.55755 101.530649 
L 160.62655 102.866707 
L 163.38865 103.813627 
L 165.84385 104.42882 
L 168.29905 104.831685 
L 171.06115 105.052677 
L 174.13015 105.058645 
L 177.81295 104.829693 
L 185.48545 104.047969 
L 190.70275 103.653145 
L 194.99935 103.561862 
L 198.98905 103.711387 
L 202.97875 104.095065 
L 207.27535 104.745689 
L 210.65125 105.387863 
L 210.65125 105.387863 
" style="fill:none;stroke:#0000ff;stroke-linecap:square;stroke-width:0.6;"/>
   </g>
   <g id="line2d_15">
    <path clip-path="url(#p6d79aacc0f)" d="M 26.81815 100.62 
L 40.01485 100.516119 
L 44.31145 100.292749 
L 47.07355 99.946507 
L 49.22185 99.490846 
L 51.06325 98.900602 
L 52.59775 98.211807 
L 54.13225 97.291887 
L 55.66675 96.085923 
L 57.20125 94.534939 
L 58.42885 93.002176 
L 59.65645 91.171983 
L 60.88405 89.00985 
L 62.41855 85.79277 
L 63.95305 81.958957 
L 65.48755 77.478918 
L 67.02205 72.348905 
L 68.86345 65.37711 
L 71.01175 56.282136 
L 74.38765 40.781662 
L 77.14975 28.37237 
L 78.99115 21.068481 
L 80.21875 16.923174 
L 81.44635 13.52505 
L 82.36705 11.546683 
L 83.28775 10.112611 
L 83.90155 9.480325 
L 84.51535 9.119694 
L 85.12915 9.039579 
L 85.74295 9.246976 
L 86.35675 9.746758 
L 86.97055 10.541724 
L 87.58435 11.632368 
L 88.50505 13.818501 
L 89.42575 16.650277 
L 90.65335 21.382711 
L 91.88095 27.12163 
L 93.41545 35.519917 
L 95.25685 46.995046 
L 98.32585 67.936239 
L 101.70175 90.565597 
L 103.54315 101.534091 
L 105.07765 109.534838 
L 106.61215 116.32932 
L 107.83975 120.835128 
L 109.06735 124.496812 
L 109.98805 126.694203 
L 110.90875 128.434214 
L 111.82945 129.735251 
L 112.75015 130.620829 
L 113.67085 131.118795 
L 114.59155 131.260174 
L 115.51225 131.078325 
L 116.43295 130.608028 
L 117.35365 129.884541 
L 118.58125 128.586528 
L 120.11575 126.540604 
L 121.95715 123.655233 
L 125.33305 117.816383 
L 129.01585 111.592825 
L 131.47105 107.899444 
L 133.61935 105.074275 
L 135.46075 102.981465 
L 137.30215 101.198999 
L 139.14355 99.723931 
L 140.98495 98.546592 
L 142.82635 97.652725 
L 144.66775 97.024828 
L 146.50915 96.642458 
L 148.35055 96.482105 
L 150.49885 96.539657 
L 152.64715 96.81542 
L 155.40925 97.409816 
L 159.39895 98.54496 
L 166.45765 100.592656 
L 170.44735 101.485456 
L 174.43705 102.141704 
L 180.57505 102.875957 
L 185.79235 103.574393 
L 189.16825 104.243796 
L 192.23725 105.089984 
L 194.99935 106.083596 
L 197.76145 107.30801 
L 200.83045 108.914587 
L 205.43395 111.622757 
L 209.73055 114.076224 
L 210.65125 114.541711 
L 210.65125 114.541711 
" style="fill:none;stroke:#00ff00;stroke-linecap:square;stroke-width:0.6;"/>
   </g>
   <g id="line2d_16">
    <path clip-path="url(#p6d79aacc0f)" d="M 26.81815 100.62 
L 42.77695 100.513341 
L 47.99425 100.209304 
L 50.75635 99.842965 
L 53.21155 99.299196 
L 55.05295 98.70086 
L 56.89435 97.884013 
L 58.73575 96.800433 
L 60.27025 95.652502 
L 61.80475 94.24853 
L 63.33925 92.560734 
L 64.87375 90.566922 
L 66.40825 88.254149 
L 68.24965 85.05678 
L 70.09105 81.421756 
L 72.23935 76.711786 
L 75.61525 68.685353 
L 78.99115 60.760519 
L 80.83255 56.905572 
L 82.36705 54.134283 
L 83.59465 52.283271 
L 84.82225 50.810033 
L 85.74295 49.977298 
L 86.66365 49.392141 
L 87.58435 49.063823 
L 88.50505 48.99904 
L 89.42575 49.199021 
L 90.34645 49.661088 
L 91.26715 50.379921 
L 92.18785 51.345903 
L 93.41545 52.993766 
L 94.64305 55.015961 
L 96.17755 57.995297 
L 98.01895 62.088223 
L 100.78105 68.859526 
L 105.38455 80.177924 
L 107.53285 84.871386 
L 109.37425 88.408507 
L 111.21565 91.434781 
L 112.75015 93.549258 
L 114.28465 95.295207 
L 115.81915 96.687041 
L 117.35365 97.748742 
L 118.88815 98.511191 
L 120.42265 99.009755 
L 121.95715 99.282209 
L 123.79855 99.364996 
L 125.94685 99.208306 
L 128.70895 98.757396 
L 136.07455 97.407205 
L 138.83665 97.180645 
L 141.29185 97.185559 
L 144.05395 97.429837 
L 146.81605 97.903072 
L 150.19195 98.719647 
L 156.94375 100.670514 
L 161.24035 101.781385 
L 164.92315 102.499256 
L 168.29905 102.932707 
L 171.98185 103.174356 
L 176.27845 103.218873 
L 183.64405 103.017981 
L 190.39585 102.921761 
L 195.30625 103.073549 
L 200.21665 103.460173 
L 205.74085 104.144387 
L 210.65125 104.876102 
L 210.65125 104.876102 
" style="fill:none;stroke:#ff0000;stroke-linecap:square;stroke-width:0.6;"/>
   </g>
   <g id="line2d_17">
    <path clip-path="url(#p6d79aacc0f)" d="M 27.12505 100.62 
L 41.24245 100.518993 
L 45.53905 100.304953 
L 48.60805 99.938141 
L 51.06325 99.396616 
L 52.90465 98.767736 
L 54.74605 97.874305 
L 56.58745 96.635484 
L 57.81505 95.572122 
L 59.04265 94.284114 
L 60.27025 92.741697 
L 61.49785 90.914563 
L 62.72545 88.775307 
L 63.95305 86.300018 
L 65.18065 83.47021 
L 67.02205 78.541294 
L 68.86345 72.803212 
L 70.70485 66.329984 
L 73.16005 56.827696 
L 78.07045 37.295243 
L 79.91185 30.930527 
L 81.13945 27.315484 
L 82.36705 24.343545 
L 83.59465 22.122419 
L 84.20845 21.322648 
L 84.82225 20.742963 
L 85.43605 20.391161 
L 86.04985 20.273581 
L 86.66365 20.39473 
L 87.27745 20.757159 
L 87.89125 21.361661 
L 88.50505 22.207198 
L 89.11885 23.29079 
L 90.34645 26.150264 
L 91.57405 29.878453 
L 92.80165 34.386552 
L 94.64305 42.358766 
L 97.09825 54.523217 
L 102.00865 79.652682 
L 103.85005 87.972665 
L 105.69145 95.181019 
L 106.91905 99.2784 
L 108.14665 102.777704 
L 109.37425 105.674618 
L 110.60185 107.982437 
L 111.82945 109.728798 
L 113.05705 110.953224 
L 114.28465 111.702988 
L 115.51225 112.030989 
L 116.73985 111.992439 
L 117.96745 111.642863 
L 119.19505 111.036456 
L 121.03645 109.756181 
L 122.87785 108.168981 
L 126.56065 104.589204 
L 130.24345 101.108462 
L 132.69865 99.101117 
L 134.54005 97.827704 
L 136.38145 96.779213 
L 138.22285 95.968172 
L 140.06425 95.399083 
L 141.90565 95.069157 
L 143.74705 94.969309 
L 145.58845 95.084798 
L 147.42985 95.395013 
L 149.88505 96.06584 
L 152.95405 97.210458 
L 163.38865 101.505616 
L 166.45765 102.377436 
L 169.52665 102.98038 
L 172.59565 103.340934 
L 176.27845 103.527749 
L 181.80265 103.534133 
L 187.94065 103.565797 
L 191.62345 103.778971 
L 195.30625 104.215482 
L 198.98905 104.896402 
L 202.67185 105.808901 
L 206.96845 107.105887 
L 210.65125 108.322209 
L 210.65125 108.322209 
" style="fill:none;stroke:#000000;stroke-dasharray:4.44,1.92;stroke-dashoffset:0;stroke-width:1.2;"/>
   </g>
   <g id="line2d_18">
    <path clip-path="url(#p6d79aacc0f)" d="M 27.12505 100.62 
L 41.85625 100.522309 
L 46.76665 100.259525 
L 49.83565 99.865594 
L 52.29085 99.315864 
L 54.13225 98.69617 
L 55.97365 97.841785 
L 57.81505 96.686381 
L 59.65645 95.155323 
L 60.88405 93.89398 
L 62.11165 92.410829 
L 63.33925 90.690958 
L 65.18065 87.621369 
L 67.02205 83.935653 
L 68.86345 79.621037 
L 70.70485 74.697474 
L 73.16005 67.316243 
L 76.22905 57.216058 
L 80.52565 43.120763 
L 82.36705 37.784861 
L 84.20845 33.243377 
L 85.43605 30.768791 
L 86.66365 28.806923 
L 87.89125 27.401123 
L 88.50505 26.917421 
L 89.11885 26.584022 
L 89.73265 26.402535 
L 90.34645 26.373276 
L 90.96025 26.49717 
L 91.57405 26.77333 
L 92.18785 27.198735 
L 93.41545 28.484866 
L 94.64305 30.326287 
L 95.87065 32.67351 
L 97.09825 35.472343 
L 98.93965 40.373264 
L 101.39485 47.836565 
L 108.76045 71.134809 
L 110.60185 76.122588 
L 112.44325 80.517778 
L 114.28465 84.26596 
L 116.12605 87.352447 
L 117.35365 89.048231 
L 118.58125 90.469117 
L 119.80885 91.629988 
L 121.03645 92.551366 
L 122.26405 93.255011 
L 123.49165 93.766279 
L 125.33305 94.227023 
L 127.17445 94.400418 
L 129.62965 94.334406 
L 137.60905 93.79476 
L 140.06425 93.991211 
L 142.51945 94.464481 
L 144.97465 95.212448 
L 147.42985 96.199747 
L 150.49885 97.675152 
L 159.09205 102.000007 
L 162.16105 103.204892 
L 164.61625 103.947125 
L 167.07145 104.480075 
L 169.52665 104.810524 
L 172.59565 104.97256 
L 175.66465 104.914047 
L 179.96125 104.599048 
L 190.39585 103.717863 
L 194.69245 103.606118 
L 198.98905 103.721517 
L 203.28565 104.068779 
L 208.19605 104.718369 
L 210.65125 105.122075 
L 210.65125 105.122075 
" style="fill:none;stroke:#0000ff;stroke-dasharray:4.44,1.92;stroke-dashoffset:0;stroke-width:1.2;"/>
   </g>
   <g id="line2d_19">
    <path clip-path="url(#p6d79aacc0f)" d="M 27.12505 100.62 
L 41.24245 100.510805 
L 45.53905 100.273517 
L 48.60805 99.868547 
L 50.44945 99.450309 
L 52.29085 98.833417 
L 54.13225 97.946699 
L 55.35985 97.162951 
L 56.58745 96.19032 
L 57.81505 94.996704 
L 59.04265 93.547826 
L 60.27025 91.808357 
L 61.49785 89.743283 
L 62.72545 87.319654 
L 63.95305 84.508667 
L 65.18065 81.287167 
L 67.02205 75.658368 
L 68.86345 69.080429 
L 70.70485 61.631999 
L 73.16005 50.653665 
L 78.07045 27.982441 
L 79.91185 20.602826 
L 81.13945 16.436047 
L 82.36705 13.048015 
L 83.59465 10.576401 
L 84.20845 9.722365 
L 84.82225 9.140148 
L 85.43605 8.840485 
L 86.04985 8.832316 
L 86.66365 9.122463 
L 87.27745 9.715426 
L 87.89125 10.613405 
L 88.50505 11.81627 
L 89.11885 13.321566 
L 90.34645 17.217173 
L 91.57405 22.231962 
L 92.80165 28.261689 
L 94.64305 38.90169 
L 97.09825 55.155242 
L 102.00865 88.905708 
L 103.85005 100.108826 
L 105.69145 109.788276 
L 106.91905 115.254595 
L 108.14665 119.877028 
L 109.37425 123.640936 
L 110.60185 126.55789 
L 111.82945 128.661625 
L 112.44325 129.424151 
L 113.05705 130.004117 
L 113.67085 130.410241 
L 114.28465 130.651792 
L 114.89845 130.738548 
L 115.51225 130.680653 
L 116.12605 130.488445 
L 117.35365 129.742957 
L 118.58125 128.585986 
L 119.80885 127.098987 
L 121.65025 124.415915 
L 124.10545 120.347147 
L 129.01585 112.054526 
L 131.47105 108.362893 
L 133.31245 105.911789 
L 135.15385 103.760296 
L 136.99525 101.915229 
L 138.83665 100.372934 
L 140.67805 99.122989 
L 142.51945 98.151545 
L 144.36085 97.442459 
L 146.20225 96.97825 
L 148.04365 96.739024 
L 149.88505 96.702313 
L 152.34025 96.922623 
L 154.79545 97.384831 
L 158.47825 98.360813 
L 167.07145 100.783854 
L 171.36805 101.700729 
L 176.27845 102.488733 
L 187.94065 104.176564 
L 191.62345 105.025913 
L 194.69245 105.953969 
L 197.76145 107.093539 
L 201.44425 108.713082 
L 206.35465 111.159089 
L 210.65125 113.32283 
L 210.65125 113.32283 
" style="fill:none;stroke:#00ff00;stroke-dasharray:4.44,1.92;stroke-dashoffset:0;stroke-width:1.2;"/>
   </g>
   <g id="line2d_20">
    <path clip-path="url(#p6d79aacc0f)" d="M 27.12505 100.62 
L 41.85625 100.527536 
L 46.76665 100.280151 
L 49.83565 99.911067 
L 52.29085 99.398027 
L 54.13225 98.820938 
L 55.97365 98.029146 
L 57.81505 96.960553 
L 59.65645 95.548934 
L 61.49785 93.736479 
L 63.33925 91.458222 
L 65.18065 88.660935 
L 67.02205 85.318437 
L 68.86345 81.422332 
L 70.70485 77.001676 
L 73.16005 70.419067 
L 76.84285 59.703379 
L 79.91185 50.957629 
L 81.75325 46.257779 
L 83.59465 42.25113 
L 84.82225 40.068855 
L 86.04985 38.339311 
L 87.27745 37.107649 
L 88.50505 36.400432 
L 89.11885 36.251339 
L 89.73265 36.240167 
L 90.34645 36.365838 
L 90.96025 36.628271 
L 91.57405 37.026274 
L 92.80165 38.217468 
L 94.02925 39.911255 
L 95.25685 42.06702 
L 96.48445 44.633174 
L 98.32585 49.125419 
L 100.78105 55.963031 
L 107.53285 75.614063 
L 109.37425 80.294231 
L 111.21565 84.435804 
L 113.05705 87.974809 
L 114.89845 90.885518 
L 116.12605 92.47996 
L 117.35365 93.807599 
L 118.58125 94.883704 
L 119.80885 95.724213 
L 121.03645 96.352079 
L 122.26405 96.788627 
L 124.10545 97.139715 
L 125.94685 97.200688 
L 128.40205 96.97485 
L 133.31245 96.130518 
L 136.38145 95.740166 
L 138.83665 95.652959 
L 141.29185 95.811168 
L 143.74705 96.222877 
L 146.20225 96.862311 
L 149.27125 97.909733 
L 155.40925 100.357434 
L 159.70585 101.921514 
L 162.77485 102.805273 
L 165.84385 103.446422 
L 168.91285 103.84372 
L 171.98185 104.024071 
L 175.66465 104.021652 
L 181.80265 103.740303 
L 189.16825 103.43793 
L 194.07865 103.466966 
L 198.37525 103.69684 
L 203.28565 104.188608 
L 208.80985 104.970903 
L 210.65125 105.264416 
L 210.65125 105.264416 
" style="fill:none;stroke:#ff0000;stroke-dasharray:4.44,1.92;stroke-dashoffset:0;stroke-width:1.2;"/>
   </g>
   <g id="patch_3">
    <path d="M 26.51125 142.2 
L 26.51125 3.6 
" style="fill:none;stroke:#000000;stroke-linecap:square;stroke-linejoin:miter;stroke-width:0.5;"/>
   </g>
   <g id="patch_4">
    <path d="M 210.65125 142.2 
L 210.65125 3.6 
" style="fill:none;stroke:#000000;stroke-linecap:square;stroke-linejoin:miter;stroke-width:0.5;"/>
   </g>
   <g id="patch_5">
    <path d="M 26.51125 142.2 
L 210.65125 142.2 
" style="fill:none;stroke:#000000;stroke-linecap:square;stroke-linejoin:miter;stroke-width:0.5;"/>
   </g>
   <g id="patch_6">
    <path d="M 26.51125 3.6 
L 210.65125 3.6 
" style="fill:none;stroke:#000000;stroke-linecap:square;stroke-linejoin:miter;stroke-width:0.5;"/>
   </g>
   <g id="text_15">
    <!-- $E_y$ at Node B of the Corner -->
    <g transform="translate(118.58125 17.46)scale(0.08 -0.08)">
     <defs>
      <path d="M 28.46875 6.453125 
Q 21.578125 1.125 19.828125 0.296875 
Q 17.1875 -0.921875 14.203125 -0.921875 
Q 9.578125 -0.921875 6.5625 2.25 
Q 3.5625 5.421875 3.5625 10.59375 
Q 3.5625 13.875 5.03125 16.265625 
Q 7.03125 19.578125 11.984375 22.5 
Q 16.9375 25.4375 28.46875 29.640625 
L 28.46875 31.390625 
Q 28.46875 38.09375 26.34375 40.578125 
Q 24.21875 43.0625 20.171875 43.0625 
Q 17.09375 43.0625 15.28125 41.40625 
Q 13.421875 39.75 13.421875 37.59375 
L 13.53125 34.765625 
Q 13.53125 32.515625 12.375 31.296875 
Q 11.234375 30.078125 9.375 30.078125 
Q 7.5625 30.078125 6.421875 31.34375 
Q 5.28125 32.625 5.28125 34.8125 
Q 5.28125 39.015625 9.578125 42.53125 
Q 13.875 46.046875 21.625 46.046875 
Q 27.59375 46.046875 31.390625 44.046875 
Q 34.28125 42.53125 35.640625 39.3125 
Q 36.53125 37.203125 36.53125 30.71875 
L 36.53125 15.53125 
Q 36.53125 9.125 36.765625 7.6875 
Q 37.015625 6.25 37.578125 5.765625 
Q 38.140625 5.28125 38.875 5.28125 
Q 39.65625 5.28125 40.234375 5.609375 
Q 41.265625 6.25 44.1875 9.1875 
L 44.1875 6.453125 
Q 38.71875 -0.875 33.734375 -0.875 
Q 31.34375 -0.875 29.921875 0.78125 
Q 28.515625 2.4375 28.46875 6.453125 
z
M 28.46875 9.625 
L 28.46875 26.65625 
Q 21.09375 23.734375 18.953125 22.515625 
Q 15.09375 20.359375 13.421875 18.015625 
Q 11.765625 15.671875 11.765625 12.890625 
Q 11.765625 9.375 13.859375 7.046875 
Q 15.96875 4.734375 18.703125 4.734375 
Q 22.40625 4.734375 28.46875 9.625 
z
" id="TimesNewRomanPSMT-97"/>
      <path d="M -1.3125 66.21875 
L 16.65625 66.21875 
L 57.125 16.546875 
L 57.125 54.734375 
Q 57.125 60.84375 55.765625 62.359375 
Q 53.953125 64.40625 50.046875 64.40625 
L 47.75 64.40625 
L 47.75 66.21875 
L 70.796875 66.21875 
L 70.796875 64.40625 
L 68.453125 64.40625 
Q 64.265625 64.40625 62.5 61.859375 
Q 61.421875 60.296875 61.421875 54.734375 
L 61.421875 -1.078125 
L 59.671875 -1.078125 
L 16.015625 52.25 
L 16.015625 11.46875 
Q 16.015625 5.375 17.328125 3.859375 
Q 19.1875 1.8125 23.046875 1.8125 
L 25.390625 1.8125 
L 25.390625 0 
L 2.34375 0 
L 2.34375 1.8125 
L 4.640625 1.8125 
Q 8.890625 1.8125 10.640625 4.34375 
Q 11.71875 5.90625 11.71875 11.46875 
L 11.71875 57.515625 
Q 8.84375 60.890625 7.34375 61.953125 
Q 5.859375 63.03125 2.984375 63.96875 
Q 1.5625 64.40625 -1.3125 64.40625 
z
" id="TimesNewRomanPSMT-78"/>
      <path d="M 25 46.046875 
Q 35.15625 46.046875 41.3125 38.328125 
Q 46.53125 31.734375 46.53125 23.1875 
Q 46.53125 17.1875 43.640625 11.03125 
Q 40.765625 4.890625 35.71875 1.75 
Q 30.671875 -1.375 24.46875 -1.375 
Q 14.359375 -1.375 8.40625 6.6875 
Q 3.375 13.484375 3.375 21.921875 
Q 3.375 28.078125 6.421875 34.15625 
Q 9.46875 40.234375 14.453125 43.140625 
Q 19.4375 46.046875 25 46.046875 
z
M 23.484375 42.875 
Q 20.90625 42.875 18.28125 41.328125 
Q 15.671875 39.796875 14.0625 35.9375 
Q 12.453125 32.078125 12.453125 26.03125 
Q 12.453125 16.265625 16.328125 9.171875 
Q 20.21875 2.09375 26.5625 2.09375 
Q 31.296875 2.09375 34.375 6 
Q 37.453125 9.90625 37.453125 19.4375 
Q 37.453125 31.34375 32.328125 38.1875 
Q 28.859375 42.875 23.484375 42.875 
z
" id="TimesNewRomanPSMT-111"/>
      <path d="M 46.1875 33.796875 
Q 53.078125 32.328125 56.5 29.109375 
Q 61.234375 24.609375 61.234375 18.109375 
Q 61.234375 13.1875 58.109375 8.671875 
Q 54.984375 4.15625 49.53125 2.078125 
Q 44.09375 0 32.90625 0 
L 1.65625 0 
L 1.65625 1.8125 
L 4.15625 1.8125 
Q 8.296875 1.8125 10.109375 4.4375 
Q 11.234375 6.15625 11.234375 11.71875 
L 11.234375 54.5 
Q 11.234375 60.640625 9.8125 62.25 
Q 7.90625 64.40625 4.15625 64.40625 
L 1.65625 64.40625 
L 1.65625 66.21875 
L 30.28125 66.21875 
Q 38.28125 66.21875 43.109375 65.046875 
Q 50.4375 63.28125 54.296875 58.8125 
Q 58.15625 54.34375 58.15625 48.53125 
Q 58.15625 43.5625 55.125 39.625 
Q 52.09375 35.6875 46.1875 33.796875 
z
M 20.609375 36.421875 
Q 22.40625 36.078125 24.71875 35.90625 
Q 27.046875 35.75 29.828125 35.75 
Q 36.96875 35.75 40.546875 37.28125 
Q 44.140625 38.8125 46.046875 41.984375 
Q 47.953125 45.171875 47.953125 48.921875 
Q 47.953125 54.734375 43.21875 58.828125 
Q 38.484375 62.9375 29.390625 62.9375 
Q 24.515625 62.9375 20.609375 61.859375 
z
M 20.609375 4.78125 
Q 26.265625 3.46875 31.78125 3.46875 
Q 40.625 3.46875 45.265625 7.4375 
Q 49.90625 11.421875 49.90625 17.28125 
Q 49.90625 21.140625 47.796875 24.703125 
Q 45.703125 28.265625 40.96875 30.3125 
Q 36.234375 32.375 29.25 32.375 
Q 26.21875 32.375 24.0625 32.265625 
Q 21.921875 32.171875 20.609375 31.9375 
z
" id="TimesNewRomanPSMT-66"/>
      <path d="M 16.265625 69.4375 
L 16.265625 36.71875 
Q 21.6875 42.671875 24.859375 44.359375 
Q 28.03125 46.046875 31.203125 46.046875 
Q 35.015625 46.046875 37.75 43.9375 
Q 40.484375 41.84375 41.796875 37.359375 
Q 42.71875 34.234375 42.71875 25.921875 
L 42.71875 10.109375 
Q 42.71875 5.859375 43.40625 4.296875 
Q 43.890625 3.125 45.0625 2.4375 
Q 46.234375 1.765625 49.359375 1.765625 
L 49.359375 0 
L 27.390625 0 
L 27.390625 1.765625 
L 28.421875 1.765625 
Q 31.546875 1.765625 32.765625 2.703125 
Q 33.984375 3.65625 34.46875 5.515625 
Q 34.625 6.296875 34.625 10.109375 
L 34.625 25.921875 
Q 34.625 33.25 33.859375 35.546875 
Q 33.109375 37.84375 31.4375 38.984375 
Q 29.78125 40.140625 27.4375 40.140625 
Q 25.046875 40.140625 22.453125 38.859375 
Q 19.875 37.59375 16.265625 33.734375 
L 16.265625 10.109375 
Q 16.265625 5.515625 16.765625 4.390625 
Q 17.28125 3.265625 18.671875 2.515625 
Q 20.0625 1.765625 23.484375 1.765625 
L 23.484375 0 
L 1.3125 0 
L 1.3125 1.765625 
Q 4.296875 1.765625 6 2.6875 
Q 6.984375 3.171875 7.5625 4.53125 
Q 8.15625 5.90625 8.15625 10.109375 
L 8.15625 50.59375 
Q 8.15625 58.25 7.78125 60 
Q 7.421875 61.765625 6.65625 62.390625 
Q 5.90625 63.03125 4.640625 63.03125 
Q 3.609375 63.03125 1.3125 62.25 
L 0.640625 63.96875 
L 14.015625 69.4375 
z
" id="TimesNewRomanPSMT-104"/>
      <path d="M 60.203125 67.71875 
L 61.71875 45.21875 
L 60.203125 45.21875 
Q 57.171875 55.328125 51.5625 59.765625 
Q 45.953125 64.203125 38.09375 64.203125 
Q 31.5 64.203125 26.171875 60.859375 
Q 20.84375 57.515625 17.796875 50.1875 
Q 14.75 42.875 14.75 31.984375 
Q 14.75 23 17.625 16.40625 
Q 20.515625 9.8125 26.296875 6.296875 
Q 32.078125 2.78125 39.5 2.78125 
Q 45.953125 2.78125 50.875 5.53125 
Q 55.8125 8.296875 61.71875 16.5 
L 63.234375 15.53125 
Q 58.25 6.6875 51.609375 2.578125 
Q 44.96875 -1.515625 35.84375 -1.515625 
Q 19.390625 -1.515625 10.359375 10.6875 
Q 3.609375 19.78125 3.609375 32.078125 
Q 3.609375 42 8.046875 50.296875 
Q 12.5 58.59375 20.28125 63.15625 
Q 28.078125 67.71875 37.3125 67.71875 
Q 44.484375 67.71875 51.46875 64.203125 
Q 53.515625 63.140625 54.390625 63.140625 
Q 55.71875 63.140625 56.6875 64.0625 
Q 57.953125 65.375 58.5 67.71875 
z
" id="TimesNewRomanPSMT-67"/>
     </defs>
     <use transform="translate(0 0.09375)" xlink:href="#DejaVuSerif-Italic-69"/>
     <use transform="translate(72.998047 -15.478125)scale(0.7)" xlink:href="#DejaVuSerif-Italic-121"/>
     <use transform="translate(115.139258 0.09375)" xlink:href="#TimesNewRomanPSMT-32"/>
     <use transform="translate(140.139258 0.09375)" xlink:href="#TimesNewRomanPSMT-97"/>
     <use transform="translate(184.524023 0.09375)" xlink:href="#TimesNewRomanPSMT-116"/>
     <use transform="translate(212.307227 0.09375)" xlink:href="#TimesNewRomanPSMT-32"/>
     <use transform="translate(237.307227 0.09375)" xlink:href="#TimesNewRomanPSMT-78"/>
     <use transform="translate(309.524023 0.09375)" xlink:href="#TimesNewRomanPSMT-111"/>
     <use transform="translate(359.524023 0.09375)" xlink:href="#TimesNewRomanPSMT-100"/>
     <use transform="translate(409.524023 0.09375)" xlink:href="#TimesNewRomanPSMT-101"/>
     <use transform="translate(453.908789 0.09375)" xlink:href="#TimesNewRomanPSMT-32"/>
     <use transform="translate(478.908789 0.09375)" xlink:href="#TimesNewRomanPSMT-66"/>
     <use transform="translate(545.608008 0.09375)" xlink:href="#TimesNewRomanPSMT-32"/>
     <use transform="translate(570.608008 0.09375)" xlink:href="#TimesNewRomanPSMT-111"/>
     <use transform="translate(620.608008 0.09375)" xlink:href="#TimesNewRomanPSMT-102"/>
     <use transform="translate(653.908789 0.09375)" xlink:href="#TimesNewRomanPSMT-32"/>
     <use transform="translate(678.908789 0.09375)" xlink:href="#TimesNewRomanPSMT-116"/>
     <use transform="translate(706.691992 0.09375)" xlink:href="#TimesNewRomanPSMT-104"/>
     <use transform="translate(756.691992 0.09375)" xlink:href="#TimesNewRomanPSMT-101"/>
     <use transform="translate(801.076758 0.09375)" xlink:href="#TimesNewRomanPSMT-32"/>
     <use transform="translate(826.076758 0.09375)" xlink:href="#TimesNewRomanPSMT-67"/>
     <use transform="translate(892.775977 0.09375)" xlink:href="#TimesNewRomanPSMT-111"/>
     <use transform="translate(942.775977 0.09375)" xlink:href="#TimesNewRomanPSMT-114"/>
     <use transform="translate(976.076758 0.09375)" xlink:href="#TimesNewRomanPSMT-110"/>
     <use transform="translate(1026.076758 0.09375)" xlink:href="#TimesNewRomanPSMT-101"/>
     <use transform="translate(1070.461523 0.09375)" xlink:href="#TimesNewRomanPSMT-114"/>
    </g>
   </g>
   <g id="legend_1">
    <g id="patch_7">
     <path d="M 138.11625 72.49 
L 205.05125 72.49 
Q 206.65125 72.49 206.65125 70.89 
L 206.65125 9.2 
Q 206.65125 7.6 205.05125 7.6 
L 138.11625 7.6 
Q 136.51625 7.6 136.51625 9.2 
L 136.51625 70.89 
Q 136.51625 72.49 138.11625 72.49 
z
" style="fill:#ffffff;opacity:0.8;stroke:#cccccc;stroke-linejoin:miter;"/>
    </g>
    <g id="line2d_21">
     <path d="M 139.71625 13.6 
L 155.71625 13.6 
" style="fill:none;stroke:#000000;stroke-linecap:square;stroke-width:0.6;"/>
    </g>
    <g id="line2d_22"/>
    <g id="text_16">
     <!-- Fine Grid S1 -->
     <g transform="translate(162.11625 16.4)scale(0.08 -0.08)">
      <defs>
       <path d="M 61.375 67.71875 
L 63.09375 46.828125 
L 61.375 46.828125 
Q 58.796875 54.640625 54.6875 58.59375 
Q 48.78125 64.3125 39.5 64.3125 
Q 26.859375 64.3125 20.265625 54.296875 
Q 14.75 45.84375 14.75 34.1875 
Q 14.75 24.703125 18.40625 16.890625 
Q 22.078125 9.078125 28 5.4375 
Q 33.9375 1.8125 40.1875 1.8125 
Q 43.84375 1.8125 47.265625 2.734375 
Q 50.6875 3.65625 53.859375 5.46875 
L 53.859375 24.609375 
Q 53.859375 29.59375 53.09375 31.125 
Q 52.34375 32.671875 50.75 33.46875 
Q 49.171875 34.28125 45.171875 34.28125 
L 45.171875 36.140625 
L 70.796875 36.140625 
L 70.796875 34.28125 
L 69.578125 34.28125 
Q 65.765625 34.28125 64.359375 31.734375 
Q 63.375 29.9375 63.375 24.609375 
L 63.375 4.34375 
Q 57.765625 1.3125 52.296875 -0.09375 
Q 46.828125 -1.515625 40.140625 -1.515625 
Q 20.953125 -1.515625 10.984375 10.796875 
Q 3.515625 20.015625 3.515625 32.078125 
Q 3.515625 40.828125 7.71875 48.828125 
Q 12.703125 58.34375 21.390625 63.484375 
Q 28.65625 67.71875 38.578125 67.71875 
Q 42.1875 67.71875 45.140625 67.125 
Q 48.09375 66.546875 53.515625 64.546875 
Q 56.25 63.53125 57.171875 63.53125 
Q 58.109375 63.53125 58.765625 64.375 
Q 59.421875 65.234375 59.578125 67.71875 
z
" id="TimesNewRomanPSMT-71"/>
      </defs>
      <use xlink:href="#TimesNewRomanPSMT-70"/>
      <use x="55.615234" xlink:href="#TimesNewRomanPSMT-105"/>
      <use x="83.398438" xlink:href="#TimesNewRomanPSMT-110"/>
      <use x="133.398438" xlink:href="#TimesNewRomanPSMT-101"/>
      <use x="177.783203" xlink:href="#TimesNewRomanPSMT-32"/>
      <use x="202.783203" xlink:href="#TimesNewRomanPSMT-71"/>
      <use x="275" xlink:href="#TimesNewRomanPSMT-114"/>
      <use x="308.300781" xlink:href="#TimesNewRomanPSMT-105"/>
      <use x="336.083984" xlink:href="#TimesNewRomanPSMT-100"/>
      <use x="386.083984" xlink:href="#TimesNewRomanPSMT-32"/>
      <use x="411.083984" xlink:href="#TimesNewRomanPSMT-83"/>
      <use x="466.699219" xlink:href="#TimesNewRomanPSMT-49"/>
     </g>
    </g>
    <g id="line2d_23">
     <path d="M 139.71625 20.91125 
L 155.71625 20.91125 
" style="fill:none;stroke:#0000ff;stroke-linecap:square;stroke-width:0.6;"/>
    </g>
    <g id="line2d_24"/>
    <g id="text_17">
     <!-- Fine Grid S2 -->
     <g transform="translate(162.11625 23.71125)scale(0.08 -0.08)">
      <use xlink:href="#TimesNewRomanPSMT-70"/>
      <use x="55.615234" xlink:href="#TimesNewRomanPSMT-105"/>
      <use x="83.398438" xlink:href="#TimesNewRomanPSMT-110"/>
      <use x="133.398438" xlink:href="#TimesNewRomanPSMT-101"/>
      <use x="177.783203" xlink:href="#TimesNewRomanPSMT-32"/>
      <use x="202.783203" xlink:href="#TimesNewRomanPSMT-71"/>
      <use x="275" xlink:href="#TimesNewRomanPSMT-114"/>
      <use x="308.300781" xlink:href="#TimesNewRomanPSMT-105"/>
      <use x="336.083984" xlink:href="#TimesNewRomanPSMT-100"/>
      <use x="386.083984" xlink:href="#TimesNewRomanPSMT-32"/>
      <use x="411.083984" xlink:href="#TimesNewRomanPSMT-83"/>
      <use x="466.699219" xlink:href="#TimesNewRomanPSMT-50"/>
     </g>
    </g>
    <g id="line2d_25">
     <path d="M 139.71625 28.2225 
L 155.71625 28.2225 
" style="fill:none;stroke:#00ff00;stroke-linecap:square;stroke-width:0.6;"/>
    </g>
    <g id="line2d_26"/>
    <g id="text_18">
     <!-- Fine Grid S3 -->
     <g transform="translate(162.11625 31.0225)scale(0.08 -0.08)">
      <use xlink:href="#TimesNewRomanPSMT-70"/>
      <use x="55.615234" xlink:href="#TimesNewRomanPSMT-105"/>
      <use x="83.398438" xlink:href="#TimesNewRomanPSMT-110"/>
      <use x="133.398438" xlink:href="#TimesNewRomanPSMT-101"/>
      <use x="177.783203" xlink:href="#TimesNewRomanPSMT-32"/>
      <use x="202.783203" xlink:href="#TimesNewRomanPSMT-71"/>
      <use x="275" xlink:href="#TimesNewRomanPSMT-114"/>
      <use x="308.300781" xlink:href="#TimesNewRomanPSMT-105"/>
      <use x="336.083984" xlink:href="#TimesNewRomanPSMT-100"/>
      <use x="386.083984" xlink:href="#TimesNewRomanPSMT-32"/>
      <use x="411.083984" xlink:href="#TimesNewRomanPSMT-83"/>
      <use x="466.699219" xlink:href="#TimesNewRomanPSMT-51"/>
     </g>
    </g>
    <g id="line2d_27">
     <path d="M 139.71625 35.53375 
L 155.71625 35.53375 
" style="fill:none;stroke:#ff0000;stroke-linecap:square;stroke-width:0.6;"/>
    </g>
    <g id="line2d_28"/>
    <g id="text_19">
     <!-- Fine Grid S4 -->
     <g transform="translate(162.11625 38.33375)scale(0.08 -0.08)">
      <use xlink:href="#TimesNewRomanPSMT-70"/>
      <use x="55.615234" xlink:href="#TimesNewRomanPSMT-105"/>
      <use x="83.398438" xlink:href="#TimesNewRomanPSMT-110"/>
      <use x="133.398438" xlink:href="#TimesNewRomanPSMT-101"/>
      <use x="177.783203" xlink:href="#TimesNewRomanPSMT-32"/>
      <use x="202.783203" xlink:href="#TimesNewRomanPSMT-71"/>
      <use x="275" xlink:href="#TimesNewRomanPSMT-114"/>
      <use x="308.300781" xlink:href="#TimesNewRomanPSMT-105"/>
      <use x="336.083984" xlink:href="#TimesNewRomanPSMT-100"/>
      <use x="386.083984" xlink:href="#TimesNewRomanPSMT-32"/>
      <use x="411.083984" xlink:href="#TimesNewRomanPSMT-83"/>
      <use x="466.699219" xlink:href="#TimesNewRomanPSMT-52"/>
     </g>
    </g>
    <g id="line2d_29">
     <path d="M 139.71625 42.845 
L 155.71625 42.845 
" style="fill:none;stroke:#000000;stroke-dasharray:4.44,1.92;stroke-dashoffset:0;stroke-width:1.2;"/>
    </g>
    <g id="line2d_30"/>
    <g id="text_20">
     <!-- VIC S1 -->
     <g transform="translate(162.11625 45.645)scale(0.08 -0.08)">
      <defs>
       <path d="M 30.859375 1.8125 
L 30.859375 0 
L 2.484375 0 
L 2.484375 1.8125 
L 4.828125 1.8125 
Q 8.9375 1.8125 10.796875 4.203125 
Q 11.96875 5.765625 11.96875 11.71875 
L 11.96875 54.5 
Q 11.96875 59.515625 11.328125 61.140625 
Q 10.84375 62.359375 9.328125 63.234375 
Q 7.171875 64.40625 4.828125 64.40625 
L 2.484375 64.40625 
L 2.484375 66.21875 
L 30.859375 66.21875 
L 30.859375 64.40625 
L 28.46875 64.40625 
Q 24.421875 64.40625 22.5625 62.015625 
Q 21.34375 60.453125 21.34375 54.5 
L 21.34375 11.71875 
Q 21.34375 6.6875 21.96875 5.078125 
Q 22.46875 3.859375 24.03125 2.984375 
Q 26.125 1.8125 28.46875 1.8125 
z
" id="TimesNewRomanPSMT-73"/>
      </defs>
      <use xlink:href="#TimesNewRomanPSMT-86"/>
      <use x="72.216797" xlink:href="#TimesNewRomanPSMT-73"/>
      <use x="105.517578" xlink:href="#TimesNewRomanPSMT-67"/>
      <use x="172.216797" xlink:href="#TimesNewRomanPSMT-32"/>
      <use x="197.216797" xlink:href="#TimesNewRomanPSMT-83"/>
      <use x="252.832031" xlink:href="#TimesNewRomanPSMT-49"/>
     </g>
    </g>
    <g id="line2d_31">
     <path d="M 139.71625 50.15625 
L 155.71625 50.15625 
" style="fill:none;stroke:#0000ff;stroke-dasharray:4.44,1.92;stroke-dashoffset:0;stroke-width:1.2;"/>
    </g>
    <g id="line2d_32"/>
    <g id="text_21">
     <!-- VIC S2 -->
     <g transform="translate(162.11625 52.95625)scale(0.08 -0.08)">
      <use xlink:href="#TimesNewRomanPSMT-86"/>
      <use x="72.216797" xlink:href="#TimesNewRomanPSMT-73"/>
      <use x="105.517578" xlink:href="#TimesNewRomanPSMT-67"/>
      <use x="172.216797" xlink:href="#TimesNewRomanPSMT-32"/>
      <use x="197.216797" xlink:href="#TimesNewRomanPSMT-83"/>
      <use x="252.832031" xlink:href="#TimesNewRomanPSMT-50"/>
     </g>
    </g>
    <g id="line2d_33">
     <path d="M 139.71625 57.4675 
L 155.71625 57.4675 
" style="fill:none;stroke:#00ff00;stroke-dasharray:4.44,1.92;stroke-dashoffset:0;stroke-width:1.2;"/>
    </g>
    <g id="line2d_34"/>
    <g id="text_22">
     <!-- VIC S3 -->
     <g transform="translate(162.11625 60.2675)scale(0.08 -0.08)">
      <use xlink:href="#TimesNewRomanPSMT-86"/>
      <use x="72.216797" xlink:href="#TimesNewRomanPSMT-73"/>
      <use x="105.517578" xlink:href="#TimesNewRomanPSMT-67"/>
      <use x="172.216797" xlink:href="#TimesNewRomanPSMT-32"/>
      <use x="197.216797" xlink:href="#TimesNewRomanPSMT-83"/>
      <use x="252.832031" xlink:href="#TimesNewRomanPSMT-51"/>
     </g>
    </g>
    <g id="line2d_35">
     <path d="M 139.71625 64.77875 
L 155.71625 64.77875 
" style="fill:none;stroke:#ff0000;stroke-dasharray:4.44,1.92;stroke-dashoffset:0;stroke-width:1.2;"/>
    </g>
    <g id="line2d_36"/>
    <g id="text_23">
     <!-- VIC S4 -->
     <g transform="translate(162.11625 67.57875)scale(0.08 -0.08)">
      <use xlink:href="#TimesNewRomanPSMT-86"/>
      <use x="72.216797" xlink:href="#TimesNewRomanPSMT-73"/>
      <use x="105.517578" xlink:href="#TimesNewRomanPSMT-67"/>
      <use x="172.216797" xlink:href="#TimesNewRomanPSMT-32"/>
      <use x="197.216797" xlink:href="#TimesNewRomanPSMT-83"/>
      <use x="252.832031" xlink:href="#TimesNewRomanPSMT-52"/>
     </g>
    </g>
   </g>
  </g>
 </g>
 <defs>
  <clipPath id="p6d79aacc0f">
   <rect height="138.6" width="184.14" x="26.51125" y="3.6"/>
  </clipPath>
 </defs>
</svg>
