<?xml version="1.0" encoding="utf-8" standalone="no"?>
<!DOCTYPE svg PUBLIC "-//W3C//DTD SVG 1.1//EN"
  "http://www.w3.org/Graphics/SVG/1.1/DTD/svg11.dtd">
<!-- Created with matplotlib (https://matplotlib.org/) -->
<svg height="162.3475pt" version="1.1" viewBox="0 0 219.74 162.3475" width="219.74pt" xmlns="http://www.w3.org/2000/svg" xmlns:xlink="http://www.w3.org/1999/xlink">
 <metadata>
  <rdf:RDF xmlns:cc="http://creativecommons.org/ns#" xmlns:dc="http://purl.org/dc/elements/1.1/" xmlns:rdf="http://www.w3.org/1999/02/22-rdf-syntax-ns#">
   <cc:Work>
    <dc:type rdf:resource="http://purl.org/dc/dcmitype/StillImage"/>
    <dc:date>2024-09-02T17:28:35.383061</dc:date>
    <dc:format>image/svg+xml</dc:format>
    <dc:creator>
     <cc:Agent>
      <dc:title>Matplotlib v3.3.4, https://matplotlib.org/</dc:title>
     </cc:Agent>
    </dc:creator>
   </cc:Work>
  </rdf:RDF>
 </metadata>
 <defs>
  <style type="text/css">*{stroke-linecap:butt;stroke-linejoin:round;}</style>
 </defs>
 <g id="figure_1">
  <g id="patch_1">
   <path d="M 0 162.3475 
L 219.74 162.3475 
L 219.74 0 
L 0 0 
z
" style="fill:#ffffff;"/>
  </g>
  <g id="axes_1">
   <g id="patch_2">
    <path d="M 26 142.2 
L 210.14 142.2 
L 210.14 3.6 
L 26 3.6 
z
" style="fill:#ffffff;"/>
   </g>
   <g id="matplotlib.axis_1">
    <g id="xtick_1">
     <g id="line2d_1">
      <defs>
       <path d="M 0 0 
L 0 -3 
" id="md059b93051" style="stroke:#000000;stroke-width:0.5;"/>
      </defs>
      <g>
       <use style="stroke:#000000;stroke-width:0.5;" x="26" xlink:href="#md059b93051" y="142.2"/>
      </g>
     </g>
     <g id="text_1">
      <!-- 0 -->
      <g transform="translate(24 148.755)scale(0.08 -0.08)">
       <defs>
        <path d="M 3.609375 32.71875 
Q 3.609375 44.046875 7.03125 52.21875 
Q 10.453125 60.40625 16.109375 64.40625 
Q 20.515625 67.578125 25.203125 67.578125 
Q 32.8125 67.578125 38.875 59.8125 
Q 46.4375 50.203125 46.4375 33.734375 
Q 46.4375 22.21875 43.109375 14.15625 
Q 39.796875 6.109375 34.640625 2.46875 
Q 29.5 -1.171875 24.703125 -1.171875 
Q 15.234375 -1.171875 8.9375 10.015625 
Q 3.609375 19.4375 3.609375 32.71875 
z
M 13.1875 31.5 
Q 13.1875 17.828125 16.546875 9.1875 
Q 19.34375 1.90625 24.859375 1.90625 
Q 27.484375 1.90625 30.3125 4.265625 
Q 33.15625 6.640625 34.625 12.203125 
Q 36.859375 20.609375 36.859375 35.890625 
Q 36.859375 47.21875 34.515625 54.78125 
Q 32.765625 60.40625 29.984375 62.75 
Q 27.984375 64.359375 25.140625 64.359375 
Q 21.828125 64.359375 19.234375 61.375 
Q 15.71875 57.328125 14.453125 48.625 
Q 13.1875 39.9375 13.1875 31.5 
z
" id="TimesNewRomanPSMT-48"/>
       </defs>
       <use xlink:href="#TimesNewRomanPSMT-48"/>
      </g>
     </g>
    </g>
    <g id="xtick_2">
     <g id="line2d_2">
      <g>
       <use style="stroke:#000000;stroke-width:0.5;" x="56.69" xlink:href="#md059b93051" y="142.2"/>
      </g>
     </g>
     <g id="text_2">
      <!-- 100 -->
      <g transform="translate(50.69 148.755)scale(0.08 -0.08)">
       <defs>
        <path d="M 11.71875 59.71875 
L 27.828125 67.578125 
L 29.4375 67.578125 
L 29.4375 11.671875 
Q 29.4375 6.109375 29.90625 4.734375 
Q 30.375 3.375 31.828125 2.640625 
Q 33.296875 1.90625 37.796875 1.8125 
L 37.796875 0 
L 12.890625 0 
L 12.890625 1.8125 
Q 17.578125 1.90625 18.9375 2.609375 
Q 20.3125 3.328125 20.84375 4.515625 
Q 21.390625 5.71875 21.390625 11.671875 
L 21.390625 47.40625 
Q 21.390625 54.640625 20.90625 56.6875 
Q 20.5625 58.25 19.65625 58.984375 
Q 18.75 59.71875 17.484375 59.71875 
Q 15.671875 59.71875 12.453125 58.203125 
z
" id="TimesNewRomanPSMT-49"/>
       </defs>
       <use xlink:href="#TimesNewRomanPSMT-49"/>
       <use x="50" xlink:href="#TimesNewRomanPSMT-48"/>
       <use x="100" xlink:href="#TimesNewRomanPSMT-48"/>
      </g>
     </g>
    </g>
    <g id="xtick_3">
     <g id="line2d_3">
      <g>
       <use style="stroke:#000000;stroke-width:0.5;" x="87.38" xlink:href="#md059b93051" y="142.2"/>
      </g>
     </g>
     <g id="text_3">
      <!-- 200 -->
      <g transform="translate(81.38 148.755)scale(0.08 -0.08)">
       <defs>
        <path d="M 45.84375 12.75 
L 41.21875 0 
L 2.15625 0 
L 2.15625 1.8125 
Q 19.390625 17.53125 26.421875 27.484375 
Q 33.453125 37.453125 33.453125 45.703125 
Q 33.453125 52 29.59375 56.046875 
Q 25.734375 60.109375 20.359375 60.109375 
Q 15.484375 60.109375 11.59375 57.25 
Q 7.71875 54.390625 5.859375 48.875 
L 4.046875 48.875 
Q 5.28125 57.90625 10.328125 62.734375 
Q 15.375 67.578125 22.953125 67.578125 
Q 31 67.578125 36.390625 62.40625 
Q 41.796875 57.234375 41.796875 50.203125 
Q 41.796875 45.171875 39.453125 40.140625 
Q 35.84375 32.234375 27.734375 23.390625 
Q 15.578125 10.109375 12.546875 7.375 
L 29.828125 7.375 
Q 35.109375 7.375 37.234375 7.765625 
Q 39.359375 8.15625 41.0625 9.34375 
Q 42.78125 10.546875 44.046875 12.75 
z
" id="TimesNewRomanPSMT-50"/>
       </defs>
       <use xlink:href="#TimesNewRomanPSMT-50"/>
       <use x="50" xlink:href="#TimesNewRomanPSMT-48"/>
       <use x="100" xlink:href="#TimesNewRomanPSMT-48"/>
      </g>
     </g>
    </g>
    <g id="xtick_4">
     <g id="line2d_4">
      <g>
       <use style="stroke:#000000;stroke-width:0.5;" x="118.07" xlink:href="#md059b93051" y="142.2"/>
      </g>
     </g>
     <g id="text_4">
      <!-- 300 -->
      <g transform="translate(112.07 148.755)scale(0.08 -0.08)">
       <defs>
        <path d="M 5.078125 53.609375 
Q 7.90625 60.296875 12.21875 63.9375 
Q 16.546875 67.578125 23 67.578125 
Q 30.953125 67.578125 35.203125 62.40625 
Q 38.421875 58.546875 38.421875 54.15625 
Q 38.421875 46.921875 29.34375 39.203125 
Q 35.453125 36.8125 38.578125 32.375 
Q 41.703125 27.9375 41.703125 21.921875 
Q 41.703125 13.328125 36.234375 7.03125 
Q 29.109375 -1.171875 15.578125 -1.171875 
Q 8.890625 -1.171875 6.46875 0.484375 
Q 4.046875 2.15625 4.046875 4.046875 
Q 4.046875 5.46875 5.1875 6.546875 
Q 6.34375 7.625 7.953125 7.625 
Q 9.1875 7.625 10.453125 7.234375 
Q 11.28125 6.984375 14.203125 5.4375 
Q 17.140625 3.90625 18.265625 3.609375 
Q 20.0625 3.078125 22.125 3.078125 
Q 27.09375 3.078125 30.78125 6.9375 
Q 34.46875 10.796875 34.46875 16.0625 
Q 34.46875 19.921875 32.765625 23.578125 
Q 31.5 26.3125 29.984375 27.734375 
Q 27.875 29.6875 24.21875 31.265625 
Q 20.5625 32.859375 16.75 32.859375 
L 15.1875 32.859375 
L 15.1875 34.328125 
Q 19.046875 34.8125 22.921875 37.109375 
Q 26.8125 39.40625 28.5625 42.625 
Q 30.328125 45.84375 30.328125 49.703125 
Q 30.328125 54.734375 27.171875 57.828125 
Q 24.03125 60.9375 19.34375 60.9375 
Q 11.765625 60.9375 6.6875 52.828125 
z
" id="TimesNewRomanPSMT-51"/>
       </defs>
       <use xlink:href="#TimesNewRomanPSMT-51"/>
       <use x="50" xlink:href="#TimesNewRomanPSMT-48"/>
       <use x="100" xlink:href="#TimesNewRomanPSMT-48"/>
      </g>
     </g>
    </g>
    <g id="xtick_5">
     <g id="line2d_5">
      <g>
       <use style="stroke:#000000;stroke-width:0.5;" x="148.76" xlink:href="#md059b93051" y="142.2"/>
      </g>
     </g>
     <g id="text_5">
      <!-- 400 -->
      <g transform="translate(142.76 148.755)scale(0.08 -0.08)">
       <defs>
        <path d="M 46.53125 24.421875 
L 46.53125 17.484375 
L 37.640625 17.484375 
L 37.640625 0 
L 29.59375 0 
L 29.59375 17.484375 
L 1.5625 17.484375 
L 1.5625 23.734375 
L 32.28125 67.578125 
L 37.640625 67.578125 
L 37.640625 24.421875 
z
M 29.59375 24.421875 
L 29.59375 57.28125 
L 6.34375 24.421875 
z
" id="TimesNewRomanPSMT-52"/>
       </defs>
       <use xlink:href="#TimesNewRomanPSMT-52"/>
       <use x="50" xlink:href="#TimesNewRomanPSMT-48"/>
       <use x="100" xlink:href="#TimesNewRomanPSMT-48"/>
      </g>
     </g>
    </g>
    <g id="xtick_6">
     <g id="line2d_6">
      <g>
       <use style="stroke:#000000;stroke-width:0.5;" x="179.45" xlink:href="#md059b93051" y="142.2"/>
      </g>
     </g>
     <g id="text_6">
      <!-- 500 -->
      <g transform="translate(173.45 148.755)scale(0.08 -0.08)">
       <defs>
        <path d="M 43.40625 66.21875 
L 39.59375 57.90625 
L 19.671875 57.90625 
L 15.328125 49.03125 
Q 28.265625 47.125 35.84375 39.40625 
Q 42.328125 32.765625 42.328125 23.78125 
Q 42.328125 18.5625 40.203125 14.109375 
Q 38.09375 9.671875 34.859375 6.546875 
Q 31.640625 3.421875 27.6875 1.515625 
Q 22.078125 -1.171875 16.15625 -1.171875 
Q 10.203125 -1.171875 7.484375 0.84375 
Q 4.78125 2.875 4.78125 5.328125 
Q 4.78125 6.6875 5.90625 7.734375 
Q 7.03125 8.796875 8.734375 8.796875 
Q 10.015625 8.796875 10.96875 8.40625 
Q 11.921875 8.015625 14.203125 6.390625 
Q 17.875 3.859375 21.625 3.859375 
Q 27.34375 3.859375 31.65625 8.171875 
Q 35.984375 12.5 35.984375 18.703125 
Q 35.984375 24.703125 32.125 29.90625 
Q 28.265625 35.109375 21.484375 37.9375 
Q 16.15625 40.140625 6.984375 40.484375 
L 19.671875 66.21875 
z
" id="TimesNewRomanPSMT-53"/>
       </defs>
       <use xlink:href="#TimesNewRomanPSMT-53"/>
       <use x="50" xlink:href="#TimesNewRomanPSMT-48"/>
       <use x="100" xlink:href="#TimesNewRomanPSMT-48"/>
      </g>
     </g>
    </g>
    <g id="xtick_7">
     <g id="line2d_7">
      <g>
       <use style="stroke:#000000;stroke-width:0.5;" x="210.14" xlink:href="#md059b93051" y="142.2"/>
      </g>
     </g>
     <g id="text_7">
      <!-- 600 -->
      <g transform="translate(204.14 148.755)scale(0.08 -0.08)">
       <defs>
        <path d="M 44.828125 67.578125 
L 44.828125 65.765625 
Q 38.375 65.140625 34.296875 63.203125 
Q 30.21875 61.28125 26.234375 57.328125 
Q 22.265625 53.375 19.65625 48.515625 
Q 17.046875 43.65625 15.28125 36.96875 
Q 22.3125 41.796875 29.390625 41.796875 
Q 36.1875 41.796875 41.15625 36.328125 
Q 46.140625 30.859375 46.140625 22.265625 
Q 46.140625 13.96875 41.109375 7.125 
Q 35.0625 -1.171875 25.09375 -1.171875 
Q 18.3125 -1.171875 13.578125 3.328125 
Q 4.296875 12.0625 4.296875 25.984375 
Q 4.296875 34.859375 7.859375 42.859375 
Q 11.421875 50.875 18.03125 57.078125 
Q 24.65625 63.28125 30.703125 65.421875 
Q 36.765625 67.578125 42 67.578125 
z
M 14.453125 33.40625 
Q 13.578125 26.8125 13.578125 22.75 
Q 13.578125 18.0625 15.3125 12.5625 
Q 17.046875 7.078125 20.453125 3.859375 
Q 22.953125 1.5625 26.515625 1.5625 
Q 30.765625 1.5625 34.109375 5.5625 
Q 37.453125 9.578125 37.453125 17 
Q 37.453125 25.34375 34.125 31.4375 
Q 30.8125 37.546875 24.703125 37.546875 
Q 22.859375 37.546875 20.734375 36.765625 
Q 18.609375 35.984375 14.453125 33.40625 
z
" id="TimesNewRomanPSMT-54"/>
       </defs>
       <use xlink:href="#TimesNewRomanPSMT-54"/>
       <use x="50" xlink:href="#TimesNewRomanPSMT-48"/>
       <use x="100" xlink:href="#TimesNewRomanPSMT-48"/>
      </g>
     </g>
    </g>
    <g id="text_8">
     <!-- Time Step (fine grid) -->
     <g transform="translate(84.331875 157.02125)scale(0.08 -0.08)">
      <defs>
       <path d="M 57.859375 66.21875 
L 58.59375 50.6875 
L 56.734375 50.6875 
Q 56.203125 54.78125 55.28125 56.546875 
Q 53.765625 59.375 51.25 60.71875 
Q 48.734375 62.0625 44.625 62.0625 
L 35.296875 62.0625 
L 35.296875 11.46875 
Q 35.296875 5.375 36.625 3.859375 
Q 38.484375 1.8125 42.328125 1.8125 
L 44.625 1.8125 
L 44.625 0 
L 16.546875 0 
L 16.546875 1.8125 
L 18.890625 1.8125 
Q 23.09375 1.8125 24.859375 4.34375 
Q 25.921875 5.90625 25.921875 11.46875 
L 25.921875 62.0625 
L 17.96875 62.0625 
Q 13.328125 62.0625 11.375 61.375 
Q 8.84375 60.453125 7.03125 57.8125 
Q 5.21875 55.171875 4.890625 50.6875 
L 3.03125 50.6875 
L 3.8125 66.21875 
z
" id="TimesNewRomanPSMT-84"/>
       <path d="M 14.5 69.4375 
Q 16.546875 69.4375 17.984375 67.984375 
Q 19.4375 66.546875 19.4375 64.5 
Q 19.4375 62.453125 17.984375 60.984375 
Q 16.546875 59.515625 14.5 59.515625 
Q 12.453125 59.515625 10.984375 60.984375 
Q 9.515625 62.453125 9.515625 64.5 
Q 9.515625 66.546875 10.953125 67.984375 
Q 12.40625 69.4375 14.5 69.4375 
z
M 18.5625 46.046875 
L 18.5625 10.109375 
Q 18.5625 5.90625 19.171875 4.515625 
Q 19.78125 3.125 20.96875 2.4375 
Q 22.171875 1.765625 25.34375 1.765625 
L 25.34375 0 
L 3.609375 0 
L 3.609375 1.765625 
Q 6.890625 1.765625 8 2.390625 
Q 9.125 3.03125 9.78125 4.484375 
Q 10.453125 5.953125 10.453125 10.109375 
L 10.453125 27.34375 
Q 10.453125 34.625 10.015625 36.765625 
Q 9.671875 38.328125 8.9375 38.9375 
Q 8.203125 39.546875 6.9375 39.546875 
Q 5.5625 39.546875 3.609375 38.8125 
L 2.9375 40.578125 
L 16.40625 46.046875 
z
" id="TimesNewRomanPSMT-105"/>
       <path d="M 16.40625 36.53125 
Q 21.296875 41.40625 22.171875 42.140625 
Q 24.359375 44 26.890625 45.015625 
Q 29.4375 46.046875 31.9375 46.046875 
Q 36.140625 46.046875 39.15625 43.59375 
Q 42.1875 41.15625 43.21875 36.53125 
Q 48.25 42.390625 51.703125 44.21875 
Q 55.171875 46.046875 58.84375 46.046875 
Q 62.40625 46.046875 65.15625 44.21875 
Q 67.921875 42.390625 69.53125 38.234375 
Q 70.609375 35.40625 70.609375 29.34375 
L 70.609375 10.109375 
Q 70.609375 5.90625 71.234375 4.34375 
Q 71.734375 3.265625 73.046875 2.515625 
Q 74.359375 1.765625 77.34375 1.765625 
L 77.34375 0 
L 55.28125 0 
L 55.28125 1.765625 
L 56.203125 1.765625 
Q 59.078125 1.765625 60.6875 2.875 
Q 61.8125 3.65625 62.3125 5.375 
Q 62.5 6.203125 62.5 10.109375 
L 62.5 29.34375 
Q 62.5 34.8125 61.1875 37.0625 
Q 59.28125 40.1875 55.078125 40.1875 
Q 52.484375 40.1875 49.875 38.890625 
Q 47.265625 37.59375 43.5625 34.078125 
L 43.453125 33.546875 
L 43.5625 31.453125 
L 43.5625 10.109375 
Q 43.5625 5.515625 44.0625 4.390625 
Q 44.578125 3.265625 45.984375 2.515625 
Q 47.40625 1.765625 50.828125 1.765625 
L 50.828125 0 
L 28.21875 0 
L 28.21875 1.765625 
Q 31.9375 1.765625 33.328125 2.640625 
Q 34.71875 3.515625 35.25 5.28125 
Q 35.5 6.109375 35.5 10.109375 
L 35.5 29.34375 
Q 35.5 34.8125 33.890625 37.203125 
Q 31.734375 40.328125 27.875 40.328125 
Q 25.25 40.328125 22.65625 38.921875 
Q 18.609375 36.765625 16.40625 34.078125 
L 16.40625 10.109375 
Q 16.40625 5.71875 17.015625 4.390625 
Q 17.625 3.078125 18.8125 2.421875 
Q 20.015625 1.765625 23.6875 1.765625 
L 23.6875 0 
L 1.5625 0 
L 1.5625 1.765625 
Q 4.640625 1.765625 5.859375 2.421875 
Q 7.078125 3.078125 7.703125 4.515625 
Q 8.34375 5.953125 8.34375 10.109375 
L 8.34375 27.203125 
Q 8.34375 34.578125 7.90625 36.71875 
Q 7.5625 38.328125 6.828125 38.9375 
Q 6.109375 39.546875 4.828125 39.546875 
Q 3.46875 39.546875 1.5625 38.8125 
L 0.828125 40.578125 
L 14.3125 46.046875 
L 16.40625 46.046875 
z
" id="TimesNewRomanPSMT-109"/>
       <path d="M 10.640625 27.875 
Q 10.59375 17.921875 15.484375 12.25 
Q 20.359375 6.59375 26.953125 6.59375 
Q 31.34375 6.59375 34.59375 9 
Q 37.84375 11.421875 40.046875 17.28125 
L 41.546875 16.3125 
Q 40.53125 9.625 35.59375 4.125 
Q 30.671875 -1.375 23.25 -1.375 
Q 15.1875 -1.375 9.453125 4.90625 
Q 3.71875 11.1875 3.71875 21.78125 
Q 3.71875 33.25 9.59375 39.671875 
Q 15.484375 46.09375 24.359375 46.09375 
Q 31.890625 46.09375 36.71875 41.140625 
Q 41.546875 36.1875 41.546875 27.875 
z
M 10.640625 30.71875 
L 31.34375 30.71875 
Q 31.109375 35.015625 30.328125 36.765625 
Q 29.109375 39.5 26.6875 41.0625 
Q 24.265625 42.625 21.625 42.625 
Q 17.578125 42.625 14.375 39.46875 
Q 11.1875 36.328125 10.640625 30.71875 
z
" id="TimesNewRomanPSMT-101"/>
       <path id="TimesNewRomanPSMT-32"/>
       <path d="M 45.84375 67.71875 
L 45.84375 44.828125 
L 44.046875 44.828125 
Q 43.171875 51.421875 40.890625 55.328125 
Q 38.625 59.234375 34.421875 61.515625 
Q 30.21875 63.8125 25.734375 63.8125 
Q 20.65625 63.8125 17.328125 60.71875 
Q 14.015625 57.625 14.015625 53.65625 
Q 14.015625 50.640625 16.109375 48.140625 
Q 19.140625 44.484375 30.515625 38.375 
Q 39.796875 33.40625 43.1875 30.734375 
Q 46.578125 28.078125 48.40625 24.453125 
Q 50.25 20.84375 50.25 16.890625 
Q 50.25 9.375 44.40625 3.921875 
Q 38.578125 -1.515625 29.390625 -1.515625 
Q 26.515625 -1.515625 23.96875 -1.078125 
Q 22.46875 -0.828125 17.703125 0.703125 
Q 12.9375 2.25 11.671875 2.25 
Q 10.453125 2.25 9.734375 1.515625 
Q 9.03125 0.78125 8.6875 -1.515625 
L 6.890625 -1.515625 
L 6.890625 21.1875 
L 8.6875 21.1875 
Q 9.96875 14.0625 12.109375 10.515625 
Q 14.265625 6.984375 18.671875 4.640625 
Q 23.09375 2.296875 28.375 2.296875 
Q 34.46875 2.296875 38 5.515625 
Q 41.546875 8.734375 41.546875 13.140625 
Q 41.546875 15.578125 40.203125 18.0625 
Q 38.875 20.5625 36.03125 22.703125 
Q 34.125 24.171875 25.625 28.921875 
Q 17.140625 33.6875 13.546875 36.515625 
Q 9.96875 39.359375 8.109375 42.765625 
Q 6.25 46.1875 6.25 50.296875 
Q 6.25 57.421875 11.71875 62.5625 
Q 17.1875 67.71875 25.640625 67.71875 
Q 30.90625 67.71875 36.8125 65.140625 
Q 39.546875 63.921875 40.671875 63.921875 
Q 41.9375 63.921875 42.75 64.671875 
Q 43.5625 65.4375 44.046875 67.71875 
z
" id="TimesNewRomanPSMT-83"/>
       <path d="M 16.109375 59.421875 
L 16.109375 44.734375 
L 26.5625 44.734375 
L 26.5625 41.3125 
L 16.109375 41.3125 
L 16.109375 12.3125 
Q 16.109375 7.953125 17.359375 6.4375 
Q 18.609375 4.9375 20.5625 4.9375 
Q 22.171875 4.9375 23.6875 5.9375 
Q 25.203125 6.9375 26.03125 8.890625 
L 27.9375 8.890625 
Q 26.21875 4.109375 23.09375 1.6875 
Q 19.96875 -0.734375 16.65625 -0.734375 
Q 14.40625 -0.734375 12.25 0.515625 
Q 10.109375 1.765625 9.078125 4.078125 
Q 8.0625 6.390625 8.0625 11.234375 
L 8.0625 41.3125 
L 0.984375 41.3125 
L 0.984375 42.921875 
Q 3.65625 44 6.46875 46.5625 
Q 9.28125 49.125 11.46875 52.640625 
Q 12.59375 54.5 14.59375 59.421875 
z
" id="TimesNewRomanPSMT-116"/>
       <path d="M -0.09375 40.28125 
L 13.671875 45.84375 
L 15.53125 45.84375 
L 15.53125 35.40625 
Q 19 41.3125 22.484375 43.671875 
Q 25.984375 46.046875 29.828125 46.046875 
Q 36.578125 46.046875 41.0625 40.765625 
Q 46.578125 34.328125 46.578125 23.96875 
Q 46.578125 12.40625 39.9375 4.828125 
Q 34.46875 -1.375 26.171875 -1.375 
Q 22.5625 -1.375 19.921875 -0.34375 
Q 17.96875 0.390625 15.53125 2.59375 
L 15.53125 -11.03125 
Q 15.53125 -15.625 16.09375 -16.859375 
Q 16.65625 -18.109375 18.046875 -18.84375 
Q 19.4375 -19.578125 23.09375 -19.578125 
L 23.09375 -21.390625 
L -0.34375 -21.390625 
L -0.34375 -19.578125 
L 0.875 -19.578125 
Q 3.5625 -19.625 5.46875 -18.5625 
Q 6.390625 -18.015625 6.90625 -16.8125 
Q 7.421875 -15.625 7.421875 -10.75 
L 7.421875 31.546875 
Q 7.421875 35.890625 7.03125 37.0625 
Q 6.640625 38.234375 5.78125 38.8125 
Q 4.9375 39.40625 3.46875 39.40625 
Q 2.296875 39.40625 0.484375 38.71875 
z
M 15.53125 32.515625 
L 15.53125 15.828125 
Q 15.53125 10.40625 15.96875 8.6875 
Q 16.65625 5.859375 19.3125 3.703125 
Q 21.96875 1.5625 26.03125 1.5625 
Q 30.90625 1.5625 33.9375 5.375 
Q 37.890625 10.359375 37.890625 19.390625 
Q 37.890625 29.640625 33.40625 35.15625 
Q 30.28125 38.96875 25.984375 38.96875 
Q 23.640625 38.96875 21.34375 37.796875 
Q 19.578125 36.921875 15.53125 32.515625 
z
" id="TimesNewRomanPSMT-112"/>
       <path d="M 31.0625 -19.578125 
L 31.0625 -21.390625 
Q 23.6875 -17.671875 18.75 -12.703125 
Q 11.71875 -5.609375 7.90625 4 
Q 4.109375 13.625 4.109375 23.96875 
Q 4.109375 39.109375 11.578125 51.578125 
Q 19.046875 64.0625 31.0625 69.4375 
L 31.0625 67.390625 
Q 25.046875 64.0625 21.1875 58.296875 
Q 17.328125 52.546875 15.421875 43.703125 
Q 13.53125 34.859375 13.53125 25.25 
Q 13.53125 14.796875 15.140625 6.25 
Q 16.40625 -0.484375 18.203125 -4.5625 
Q 20.015625 -8.640625 23.0625 -12.390625 
Q 26.125 -16.15625 31.0625 -19.578125 
z
" id="TimesNewRomanPSMT-40"/>
       <path d="M 20.609375 41.21875 
L 20.609375 11.8125 
Q 20.609375 5.5625 21.96875 3.90625 
Q 23.78125 1.765625 26.8125 1.765625 
L 30.859375 1.765625 
L 30.859375 0 
L 4.15625 0 
L 4.15625 1.765625 
L 6.15625 1.765625 
Q 8.109375 1.765625 9.71875 2.734375 
Q 11.328125 3.71875 11.9375 5.375 
Q 12.546875 7.03125 12.546875 11.8125 
L 12.546875 41.21875 
L 3.859375 41.21875 
L 3.859375 44.734375 
L 12.546875 44.734375 
L 12.546875 47.65625 
Q 12.546875 54.34375 14.6875 58.984375 
Q 16.84375 63.625 21.265625 66.484375 
Q 25.6875 69.34375 31.203125 69.34375 
Q 36.328125 69.34375 40.625 66.015625 
Q 43.453125 63.8125 43.453125 61.078125 
Q 43.453125 59.625 42.1875 58.328125 
Q 40.921875 57.03125 39.453125 57.03125 
Q 38.328125 57.03125 37.078125 57.828125 
Q 35.84375 58.640625 34.03125 61.296875 
Q 32.234375 63.96875 30.71875 64.890625 
Q 29.203125 65.828125 27.34375 65.828125 
Q 25.09375 65.828125 23.53125 64.625 
Q 21.96875 63.421875 21.28125 60.90625 
Q 20.609375 58.40625 20.609375 47.953125 
L 20.609375 44.734375 
L 32.125 44.734375 
L 32.125 41.21875 
z
" id="TimesNewRomanPSMT-102"/>
       <path d="M 16.15625 36.578125 
Q 24.03125 46.046875 31.15625 46.046875 
Q 34.8125 46.046875 37.453125 44.21875 
Q 40.09375 42.390625 41.65625 38.1875 
Q 42.71875 35.25 42.71875 29.203125 
L 42.71875 10.109375 
Q 42.71875 5.859375 43.40625 4.34375 
Q 43.953125 3.125 45.140625 2.4375 
Q 46.34375 1.765625 49.5625 1.765625 
L 49.5625 0 
L 27.4375 0 
L 27.4375 1.765625 
L 28.375 1.765625 
Q 31.5 1.765625 32.734375 2.703125 
Q 33.984375 3.65625 34.46875 5.515625 
Q 34.671875 6.25 34.671875 10.109375 
L 34.671875 28.421875 
Q 34.671875 34.515625 33.078125 37.28125 
Q 31.5 40.046875 27.734375 40.046875 
Q 21.921875 40.046875 16.15625 33.6875 
L 16.15625 10.109375 
Q 16.15625 5.5625 16.703125 4.5 
Q 17.390625 3.078125 18.578125 2.421875 
Q 19.78125 1.765625 23.4375 1.765625 
L 23.4375 0 
L 1.3125 0 
L 1.3125 1.765625 
L 2.296875 1.765625 
Q 5.71875 1.765625 6.90625 3.484375 
Q 8.109375 5.21875 8.109375 10.109375 
L 8.109375 26.703125 
Q 8.109375 34.765625 7.734375 36.515625 
Q 7.375 38.28125 6.609375 38.90625 
Q 5.859375 39.546875 4.59375 39.546875 
Q 3.21875 39.546875 1.3125 38.8125 
L 0.59375 40.578125 
L 14.0625 46.046875 
L 16.15625 46.046875 
z
" id="TimesNewRomanPSMT-110"/>
       <path d="M 15.09375 16.3125 
Q 10.984375 18.3125 8.78125 21.890625 
Q 6.59375 25.484375 6.59375 29.828125 
Q 6.59375 36.46875 11.59375 41.25 
Q 16.609375 46.046875 24.421875 46.046875 
Q 30.8125 46.046875 35.5 42.921875 
L 44.96875 42.921875 
Q 47.078125 42.921875 47.40625 42.796875 
Q 47.75 42.671875 47.90625 42.390625 
Q 48.1875 41.9375 48.1875 40.828125 
Q 48.1875 39.546875 47.953125 39.0625 
Q 47.796875 38.8125 47.4375 38.671875 
Q 47.078125 38.53125 44.96875 38.53125 
L 39.15625 38.53125 
Q 41.890625 35.015625 41.890625 29.546875 
Q 41.890625 23.296875 37.109375 18.84375 
Q 32.328125 14.40625 24.265625 14.40625 
Q 20.953125 14.40625 17.484375 15.375 
Q 15.328125 13.53125 14.5625 12.140625 
Q 13.8125 10.75 13.8125 9.765625 
Q 13.8125 8.9375 14.625 8.15625 
Q 15.4375 7.375 17.78125 7.03125 
Q 19.140625 6.84375 24.609375 6.6875 
Q 34.671875 6.453125 37.640625 6 
Q 42.1875 5.375 44.890625 2.640625 
Q 47.609375 -0.09375 47.609375 -4.109375 
Q 47.609375 -9.625 42.4375 -14.453125 
Q 34.8125 -21.578125 22.5625 -21.578125 
Q 13.140625 -21.578125 6.640625 -17.328125 
Q 2.984375 -14.890625 2.984375 -12.25 
Q 2.984375 -11.078125 3.515625 -9.90625 
Q 4.34375 -8.109375 6.9375 -4.890625 
Q 7.28125 -4.4375 11.921875 0.390625 
Q 9.375 1.90625 8.328125 3.09375 
Q 7.28125 4.296875 7.28125 5.8125 
Q 7.28125 7.515625 8.671875 9.8125 
Q 10.0625 12.109375 15.09375 16.3125 
z
M 23.578125 43.703125 
Q 19.96875 43.703125 17.53125 40.8125 
Q 15.09375 37.9375 15.09375 31.984375 
Q 15.09375 24.265625 18.40625 20.015625 
Q 20.953125 16.796875 24.859375 16.796875 
Q 28.5625 16.796875 30.953125 19.578125 
Q 33.34375 22.359375 33.34375 28.328125 
Q 33.34375 36.078125 29.984375 40.484375 
Q 27.484375 43.703125 23.578125 43.703125 
z
M 14.59375 0 
Q 12.3125 -2.484375 11.140625 -4.625 
Q 9.96875 -6.78125 9.96875 -8.59375 
Q 9.96875 -10.9375 12.796875 -12.703125 
Q 17.671875 -15.71875 26.90625 -15.71875 
Q 35.6875 -15.71875 39.859375 -12.609375 
Q 44.046875 -9.515625 44.046875 -6 
Q 44.046875 -3.46875 41.546875 -2.390625 
Q 39.015625 -1.3125 31.5 -1.125 
Q 20.515625 -0.828125 14.59375 0 
z
" id="TimesNewRomanPSMT-103"/>
       <path d="M 16.21875 46.046875 
L 16.21875 35.984375 
Q 21.828125 46.046875 27.734375 46.046875 
Q 30.421875 46.046875 32.171875 44.40625 
Q 33.9375 42.78125 33.9375 40.625 
Q 33.9375 38.71875 32.65625 37.390625 
Q 31.390625 36.078125 29.640625 36.078125 
Q 27.9375 36.078125 25.8125 37.765625 
Q 23.6875 39.453125 22.65625 39.453125 
Q 21.78125 39.453125 20.75 38.484375 
Q 18.5625 36.46875 16.21875 31.890625 
L 16.21875 10.453125 
Q 16.21875 6.734375 17.140625 4.828125 
Q 17.78125 3.515625 19.390625 2.640625 
Q 21 1.765625 24.03125 1.765625 
L 24.03125 0 
L 1.125 0 
L 1.125 1.765625 
Q 4.546875 1.765625 6.203125 2.828125 
Q 7.421875 3.609375 7.90625 5.328125 
Q 8.15625 6.15625 8.15625 10.0625 
L 8.15625 27.390625 
Q 8.15625 35.203125 7.828125 36.6875 
Q 7.515625 38.1875 6.65625 38.859375 
Q 5.8125 39.546875 4.546875 39.546875 
Q 3.03125 39.546875 1.125 38.8125 
L 0.640625 40.578125 
L 14.15625 46.046875 
z
" id="TimesNewRomanPSMT-114"/>
       <path d="M 34.71875 5.03125 
Q 31.453125 1.609375 28.328125 0.109375 
Q 25.203125 -1.375 21.578125 -1.375 
Q 14.265625 -1.375 8.796875 4.75 
Q 3.328125 10.890625 3.328125 20.515625 
Q 3.328125 30.125 9.375 38.109375 
Q 15.4375 46.09375 24.953125 46.09375 
Q 30.859375 46.09375 34.71875 42.328125 
L 34.71875 50.59375 
Q 34.71875 58.25 34.34375 60 
Q 33.984375 61.765625 33.203125 62.390625 
Q 32.421875 63.03125 31.25 63.03125 
Q 29.984375 63.03125 27.875 62.25 
L 27.25 63.96875 
L 40.578125 69.4375 
L 42.78125 69.4375 
L 42.78125 17.71875 
Q 42.78125 9.859375 43.140625 8.125 
Q 43.5 6.390625 44.3125 5.703125 
Q 45.125 5.03125 46.1875 5.03125 
Q 47.515625 5.03125 49.703125 5.859375 
L 50.25 4.15625 
L 36.96875 -1.375 
L 34.71875 -1.375 
z
M 34.71875 8.453125 
L 34.71875 31.5 
Q 34.421875 34.8125 32.953125 37.546875 
Q 31.5 40.28125 29.078125 41.671875 
Q 26.65625 43.0625 24.359375 43.0625 
Q 20.0625 43.0625 16.703125 39.203125 
Q 12.25 34.125 12.25 24.359375 
Q 12.25 14.5 16.546875 9.25 
Q 20.84375 4 26.125 4 
Q 30.5625 4 34.71875 8.453125 
z
" id="TimesNewRomanPSMT-100"/>
       <path d="M 2.25 67.390625 
L 2.25 69.4375 
Q 9.671875 65.765625 14.59375 60.796875 
Q 21.578125 53.65625 25.390625 44.0625 
Q 29.203125 34.46875 29.203125 24.078125 
Q 29.203125 8.9375 21.75 -3.53125 
Q 14.3125 -16.015625 2.25 -21.390625 
L 2.25 -19.578125 
Q 8.25 -16.21875 12.125 -10.46875 
Q 16.015625 -4.734375 17.890625 4.125 
Q 19.78125 12.984375 19.78125 22.609375 
Q 19.78125 33.015625 18.171875 41.609375 
Q 16.9375 48.34375 15.109375 52.390625 
Q 13.28125 56.453125 10.25 60.203125 
Q 7.234375 63.96875 2.25 67.390625 
z
" id="TimesNewRomanPSMT-41"/>
      </defs>
      <use xlink:href="#TimesNewRomanPSMT-84"/>
      <use x="57.583984" xlink:href="#TimesNewRomanPSMT-105"/>
      <use x="85.367188" xlink:href="#TimesNewRomanPSMT-109"/>
      <use x="163.150391" xlink:href="#TimesNewRomanPSMT-101"/>
      <use x="207.535156" xlink:href="#TimesNewRomanPSMT-32"/>
      <use x="232.535156" xlink:href="#TimesNewRomanPSMT-83"/>
      <use x="288.150391" xlink:href="#TimesNewRomanPSMT-116"/>
      <use x="315.933594" xlink:href="#TimesNewRomanPSMT-101"/>
      <use x="360.318359" xlink:href="#TimesNewRomanPSMT-112"/>
      <use x="410.318359" xlink:href="#TimesNewRomanPSMT-32"/>
      <use x="435.318359" xlink:href="#TimesNewRomanPSMT-40"/>
      <use x="468.619141" xlink:href="#TimesNewRomanPSMT-102"/>
      <use x="501.919922" xlink:href="#TimesNewRomanPSMT-105"/>
      <use x="529.703125" xlink:href="#TimesNewRomanPSMT-110"/>
      <use x="579.703125" xlink:href="#TimesNewRomanPSMT-101"/>
      <use x="624.087891" xlink:href="#TimesNewRomanPSMT-32"/>
      <use x="649.087891" xlink:href="#TimesNewRomanPSMT-103"/>
      <use x="699.087891" xlink:href="#TimesNewRomanPSMT-114"/>
      <use x="732.388672" xlink:href="#TimesNewRomanPSMT-105"/>
      <use x="760.171875" xlink:href="#TimesNewRomanPSMT-100"/>
      <use x="810.171875" xlink:href="#TimesNewRomanPSMT-41"/>
     </g>
    </g>
   </g>
   <g id="matplotlib.axis_2">
    <g id="ytick_1">
     <g id="line2d_8">
      <defs>
       <path d="M 0 0 
L 3 0 
" id="m7cf9b360c9" style="stroke:#000000;stroke-width:0.5;"/>
      </defs>
      <g>
       <use style="stroke:#000000;stroke-width:0.5;" x="26" xlink:href="#m7cf9b360c9" y="136.173913"/>
      </g>
     </g>
     <g id="text_9">
      <!-- 0 -->
      <g transform="translate(21 138.951413)scale(0.08 -0.08)">
       <use xlink:href="#TimesNewRomanPSMT-48"/>
      </g>
     </g>
    </g>
    <g id="ytick_2">
     <g id="line2d_9">
      <g>
       <use style="stroke:#000000;stroke-width:0.5;" x="26" xlink:href="#m7cf9b360c9" y="106.043478"/>
      </g>
     </g>
     <g id="text_10">
      <!-- 50 -->
      <g transform="translate(17 108.820978)scale(0.08 -0.08)">
       <use xlink:href="#TimesNewRomanPSMT-53"/>
       <use x="50" xlink:href="#TimesNewRomanPSMT-48"/>
      </g>
     </g>
    </g>
    <g id="ytick_3">
     <g id="line2d_10">
      <g>
       <use style="stroke:#000000;stroke-width:0.5;" x="26" xlink:href="#m7cf9b360c9" y="75.913043"/>
      </g>
     </g>
     <g id="text_11">
      <!-- 100 -->
      <g transform="translate(13 78.690543)scale(0.08 -0.08)">
       <use xlink:href="#TimesNewRomanPSMT-49"/>
       <use x="50" xlink:href="#TimesNewRomanPSMT-48"/>
       <use x="100" xlink:href="#TimesNewRomanPSMT-48"/>
      </g>
     </g>
    </g>
    <g id="ytick_4">
     <g id="line2d_11">
      <g>
       <use style="stroke:#000000;stroke-width:0.5;" x="26" xlink:href="#m7cf9b360c9" y="45.782609"/>
      </g>
     </g>
     <g id="text_12">
      <!-- 150 -->
      <g transform="translate(13 48.560109)scale(0.08 -0.08)">
       <use xlink:href="#TimesNewRomanPSMT-49"/>
       <use x="50" xlink:href="#TimesNewRomanPSMT-53"/>
       <use x="100" xlink:href="#TimesNewRomanPSMT-48"/>
      </g>
     </g>
    </g>
    <g id="ytick_5">
     <g id="line2d_12">
      <g>
       <use style="stroke:#000000;stroke-width:0.5;" x="26" xlink:href="#m7cf9b360c9" y="15.652174"/>
      </g>
     </g>
     <g id="text_13">
      <!-- 200 -->
      <g transform="translate(13 18.429674)scale(0.08 -0.08)">
       <use xlink:href="#TimesNewRomanPSMT-50"/>
       <use x="50" xlink:href="#TimesNewRomanPSMT-48"/>
       <use x="100" xlink:href="#TimesNewRomanPSMT-48"/>
      </g>
     </g>
    </g>
    <g id="text_14">
     <!-- Electric Field $E_y$ (V/m) -->
     <g transform="translate(9.44 110.94)rotate(-90)scale(0.08 -0.08)">
      <defs>
       <path d="M 20.90625 62.59375 
L 20.90625 36.421875 
L 35.453125 36.421875 
Q 41.109375 36.421875 43.015625 38.140625 
Q 45.5625 40.375 45.84375 46.046875 
L 47.65625 46.046875 
L 47.65625 23 
L 45.84375 23 
Q 45.171875 27.828125 44.484375 29.203125 
Q 43.609375 30.90625 41.59375 31.875 
Q 39.59375 32.859375 35.453125 32.859375 
L 20.90625 32.859375 
L 20.90625 11.03125 
Q 20.90625 6.640625 21.296875 5.6875 
Q 21.6875 4.734375 22.65625 4.171875 
Q 23.640625 3.609375 26.375 3.609375 
L 37.59375 3.609375 
Q 43.21875 3.609375 45.75 4.390625 
Q 48.296875 5.171875 50.640625 7.46875 
Q 53.65625 10.5 56.84375 16.609375 
L 58.796875 16.609375 
L 53.078125 0 
L 2.046875 0 
L 2.046875 1.8125 
L 4.390625 1.8125 
Q 6.734375 1.8125 8.84375 2.9375 
Q 10.40625 3.71875 10.96875 5.28125 
Q 11.53125 6.84375 11.53125 11.671875 
L 11.53125 54.6875 
Q 11.53125 60.984375 10.25 62.453125 
Q 8.5 64.40625 4.390625 64.40625 
L 2.046875 64.40625 
L 2.046875 66.21875 
L 53.078125 66.21875 
L 53.8125 51.703125 
L 51.90625 51.703125 
Q 50.875 56.9375 49.625 58.890625 
Q 48.390625 60.84375 45.953125 61.859375 
Q 44 62.59375 39.0625 62.59375 
z
" id="TimesNewRomanPSMT-69"/>
       <path d="M 18.5 69.4375 
L 18.5 10.109375 
Q 18.5 5.90625 19.109375 4.53125 
Q 19.734375 3.171875 21 2.46875 
Q 22.265625 1.765625 25.734375 1.765625 
L 25.734375 0 
L 3.8125 0 
L 3.8125 1.765625 
Q 6.890625 1.765625 8 2.390625 
Q 9.125 3.03125 9.765625 4.484375 
Q 10.40625 5.953125 10.40625 10.109375 
L 10.40625 50.734375 
Q 10.40625 58.296875 10.0625 60.03125 
Q 9.71875 61.765625 8.953125 62.390625 
Q 8.203125 63.03125 7.03125 63.03125 
Q 5.765625 63.03125 3.8125 62.25 
L 2.984375 63.96875 
L 16.3125 69.4375 
z
" id="TimesNewRomanPSMT-108"/>
       <path d="M 41.109375 17 
Q 39.3125 8.15625 34.03125 3.390625 
Q 28.765625 -1.375 22.359375 -1.375 
Q 14.75 -1.375 9.078125 5.015625 
Q 3.421875 11.421875 3.421875 22.3125 
Q 3.421875 32.859375 9.6875 39.453125 
Q 15.96875 46.046875 24.75 46.046875 
Q 31.34375 46.046875 35.59375 42.546875 
Q 39.84375 39.0625 39.84375 35.296875 
Q 39.84375 33.453125 38.640625 32.296875 
Q 37.453125 31.15625 35.296875 31.15625 
Q 32.421875 31.15625 30.953125 33.015625 
Q 30.125 34.03125 29.859375 36.90625 
Q 29.59375 39.796875 27.875 41.3125 
Q 26.171875 42.78125 23.140625 42.78125 
Q 18.265625 42.78125 15.28125 39.15625 
Q 11.328125 34.375 11.328125 26.515625 
Q 11.328125 18.5 15.25 12.375 
Q 19.1875 6.25 25.875 6.25 
Q 30.671875 6.25 34.46875 9.515625 
Q 37.15625 11.765625 39.703125 17.671875 
z
" id="TimesNewRomanPSMT-99"/>
       <path d="M 20.453125 62.59375 
L 20.453125 36.578125 
L 32.515625 36.578125 
Q 36.671875 36.578125 38.59375 38.40625 
Q 40.53125 40.234375 41.15625 45.65625 
L 42.96875 45.65625 
L 42.96875 23.25 
L 41.15625 23.25 
Q 41.109375 27.09375 40.15625 28.90625 
Q 39.203125 30.71875 37.515625 31.609375 
Q 35.84375 32.515625 32.515625 32.515625 
L 20.453125 32.515625 
L 20.453125 11.71875 
Q 20.453125 6.6875 21.09375 5.078125 
Q 21.578125 3.859375 23.140625 2.984375 
Q 25.296875 1.8125 27.640625 1.8125 
L 30.03125 1.8125 
L 30.03125 0 
L 1.609375 0 
L 1.609375 1.8125 
L 3.953125 1.8125 
Q 8.0625 1.8125 9.90625 4.203125 
Q 11.078125 5.765625 11.078125 11.71875 
L 11.078125 54.5 
Q 11.078125 59.515625 10.453125 61.140625 
Q 9.96875 62.359375 8.453125 63.234375 
Q 6.34375 64.40625 3.953125 64.40625 
L 1.609375 64.40625 
L 1.609375 66.21875 
L 50.875 66.21875 
L 51.515625 51.65625 
L 49.8125 51.65625 
Q 48.53125 56.296875 46.84375 58.46875 
Q 45.171875 60.640625 42.703125 61.609375 
Q 40.234375 62.59375 35.0625 62.59375 
z
" id="TimesNewRomanPSMT-70"/>
       <path d="M -1.515625 0 
L -0.53125 5.171875 
L 8.734375 5.171875 
L 20.90625 67.671875 
L 11.625 67.671875 
L 12.640625 72.90625 
L 71.34375 72.90625 
L 68.21875 56.6875 
L 62.203125 56.6875 
L 64.15625 66.890625 
L 30.671875 66.890625 
L 25.921875 42.484375 
L 49.8125 42.484375 
L 51.5625 51.609375 
L 57.5625 51.609375 
L 52.875 27.390625 
L 46.875 27.390625 
L 48.640625 36.53125 
L 24.75 36.53125 
L 18.84375 6 
L 53.125 6 
L 55.078125 16.21875 
L 61.078125 16.21875 
L 57.953125 0 
z
" id="DejaVuSerif-Italic-69"/>
       <path d="M 57.515625 51.46875 
Q 52.6875 23.53125 44.1875 8.796875 
Q 31.734375 -12.84375 21.734375 -19.34375 
Q 17.28125 -22.21875 5.5625 -22.21875 
Q 3.265625 -22.21875 0.9375 -21.828125 
Q -1.375 -21.4375 -3.71875 -20.703125 
L -1.765625 -10.796875 
L 2.828125 -10.796875 
Q 2.734375 -11.578125 2.734375 -12.3125 
Q 2.734375 -14.359375 3.609375 -15.53125 
Q 4.828125 -17.1875 8.015625 -17.1875 
Q 16.609375 -17.1875 24.078125 -9.71875 
L 11.8125 46.6875 
L 5.90625 46.6875 
L 6.9375 51.90625 
L 20.359375 51.90625 
L 31.890625 0.390625 
Q 39.75 12.15625 41.65625 17 
Q 47.796875 32.171875 49.03125 46.234375 
L 43.109375 46.234375 
L 44.140625 51.46875 
z
" id="DejaVuSerif-Italic-121"/>
       <path d="M 71 66.21875 
L 71 64.40625 
Q 67.484375 63.765625 65.671875 62.15625 
Q 63.09375 59.765625 61.078125 54.828125 
L 37.984375 -1.515625 
L 36.1875 -1.515625 
L 11.375 55.5625 
Q 9.46875 59.96875 8.6875 60.9375 
Q 7.46875 62.453125 5.6875 63.296875 
Q 3.90625 64.15625 0.875 64.40625 
L 0.875 66.21875 
L 27.9375 66.21875 
L 27.9375 64.40625 
Q 23.34375 63.96875 21.96875 62.84375 
Q 20.609375 61.71875 20.609375 59.96875 
Q 20.609375 57.515625 22.859375 52.34375 
L 39.703125 13.53125 
L 55.328125 51.859375 
Q 57.625 57.515625 57.625 59.71875 
Q 57.625 61.140625 56.203125 62.421875 
Q 54.78125 63.71875 51.421875 64.265625 
Q 51.171875 64.3125 50.59375 64.40625 
L 50.59375 66.21875 
z
" id="TimesNewRomanPSMT-86"/>
       <path d="M 28.03125 69.4375 
L 4.046875 -1.375 
L 0.140625 -1.375 
L 24.125 69.4375 
z
" id="TimesNewRomanPSMT-47"/>
      </defs>
      <use transform="translate(0 0.09375)" xlink:href="#TimesNewRomanPSMT-69"/>
      <use transform="translate(61.083984 0.09375)" xlink:href="#TimesNewRomanPSMT-108"/>
      <use transform="translate(88.867188 0.09375)" xlink:href="#TimesNewRomanPSMT-101"/>
      <use transform="translate(133.251953 0.09375)" xlink:href="#TimesNewRomanPSMT-99"/>
      <use transform="translate(177.636719 0.09375)" xlink:href="#TimesNewRomanPSMT-116"/>
      <use transform="translate(205.419922 0.09375)" xlink:href="#TimesNewRomanPSMT-114"/>
      <use transform="translate(238.720703 0.09375)" xlink:href="#TimesNewRomanPSMT-105"/>
      <use transform="translate(266.503906 0.09375)" xlink:href="#TimesNewRomanPSMT-99"/>
      <use transform="translate(310.888672 0.09375)" xlink:href="#TimesNewRomanPSMT-32"/>
      <use transform="translate(335.888672 0.09375)" xlink:href="#TimesNewRomanPSMT-70"/>
      <use transform="translate(391.503906 0.09375)" xlink:href="#TimesNewRomanPSMT-105"/>
      <use transform="translate(419.287109 0.09375)" xlink:href="#TimesNewRomanPSMT-101"/>
      <use transform="translate(463.671875 0.09375)" xlink:href="#TimesNewRomanPSMT-108"/>
      <use transform="translate(491.455078 0.09375)" xlink:href="#TimesNewRomanPSMT-100"/>
      <use transform="translate(541.455078 0.09375)" xlink:href="#TimesNewRomanPSMT-32"/>
      <use transform="translate(566.455078 0.09375)" xlink:href="#DejaVuSerif-Italic-69"/>
      <use transform="translate(639.453125 -15.478125)scale(0.7)" xlink:href="#DejaVuSerif-Italic-121"/>
      <use transform="translate(681.594336 0.09375)" xlink:href="#TimesNewRomanPSMT-32"/>
      <use transform="translate(706.594336 0.09375)" xlink:href="#TimesNewRomanPSMT-40"/>
      <use transform="translate(739.895117 0.09375)" xlink:href="#TimesNewRomanPSMT-86"/>
      <use transform="translate(812.111914 0.09375)" xlink:href="#TimesNewRomanPSMT-47"/>
      <use transform="translate(839.895117 0.09375)" xlink:href="#TimesNewRomanPSMT-109"/>
      <use transform="translate(917.67832 0.09375)" xlink:href="#TimesNewRomanPSMT-41"/>
     </g>
    </g>
   </g>
   <g id="line2d_13">
    <path clip-path="url(#pbefb0a2e0b)" d="M 26.3069 136.173913 
L 41.345 136.065337 
L 45.6416 135.823641 
L 48.4037 135.472802 
L 50.552 135.007469 
L 52.3934 134.407495 
L 53.9279 133.715308 
L 55.4624 132.797418 
L 56.9969 131.599273 
L 58.5314 130.059066 
L 59.759 128.535774 
L 60.9866 126.714723 
L 62.2142 124.559636 
L 63.7487 121.342687 
L 65.2832 117.486361 
L 66.8177 112.939544 
L 68.3522 107.668667 
L 69.8867 101.663412 
L 71.7281 93.516038 
L 73.8764 82.843866 
L 76.6385 67.743473 
L 82.4696 35.292734 
L 84.311 26.452916 
L 85.8455 20.133157 
L 87.0731 15.916716 
L 88.3007 12.547391 
L 89.2214 10.621243 
L 90.1421 9.23697 
L 90.7559 8.623171 
L 91.3697 8.260783 
L 91.9835 8.150424 
L 92.5973 8.293141 
L 93.2111 8.686184 
L 93.8249 9.327357 
L 94.7456 10.742866 
L 95.6663 12.684775 
L 96.587 15.125075 
L 97.8146 19.093672 
L 99.0422 23.792761 
L 100.5767 30.528451 
L 102.725 41.150771 
L 106.7147 62.491708 
L 109.7837 78.310807 
L 111.932 88.245493 
L 113.7734 95.739298 
L 115.3079 101.177459 
L 116.8424 105.854386 
L 118.3769 109.77603 
L 119.6045 112.390667 
L 120.8321 114.569176 
L 122.0597 116.346157 
L 123.2873 117.761995 
L 124.5149 118.861283 
L 125.7425 119.691256 
L 127.277 120.42337 
L 128.8115 120.904164 
L 130.9598 121.324895 
L 135.5633 122.133 
L 137.4047 122.688617 
L 139.2461 123.467909 
L 141.0875 124.493655 
L 142.9289 125.764164 
L 145.0772 127.524538 
L 147.8393 130.121806 
L 156.7394 138.813988 
L 158.8877 140.498566 
L 161.036 141.895437 
L 162.8774 142.843113 
L 164.7188 143.556005 
L 166.5602 144.040069 
L 168.4016 144.309957 
L 170.5499 144.383383 
L 172.6982 144.236978 
L 175.4603 143.802049 
L 179.1431 142.954118 
L 187.7363 140.862213 
L 191.1122 140.301185 
L 194.1812 140.004601 
L 197.2502 139.938224 
L 200.0123 140.087204 
L 202.7744 140.437525 
L 205.8434 141.056074 
L 209.2193 141.986751 
L 210.14 142.278425 
L 210.14 142.278425 
" style="fill:none;stroke:#000000;stroke-linecap:square;stroke-width:0.6;"/>
   </g>
   <g id="line2d_14">
    <path clip-path="url(#pbefb0a2e0b)" d="M 26.3069 136.173913 
L 42.2657 136.069714 
L 46.8692 135.820437 
L 49.6313 135.484463 
L 52.0865 134.969932 
L 53.9279 134.386585 
L 55.7693 133.571812 
L 57.3038 132.667553 
L 58.8383 131.512713 
L 60.3728 130.060936 
L 61.9073 128.264393 
L 63.4418 126.076438 
L 64.9763 123.454811 
L 66.5108 120.365136 
L 68.0453 116.78556 
L 69.8867 111.836013 
L 71.7281 106.200732 
L 73.8764 98.863312 
L 76.6385 88.564888 
L 81.8558 68.913336 
L 83.6972 62.836419 
L 85.2317 58.449014 
L 86.4593 55.487721 
L 87.6869 53.083759 
L 88.6076 51.67808 
L 89.5283 50.631771 
L 90.449 49.957083 
L 91.0628 49.717643 
L 91.6766 49.647171 
L 92.2904 49.745881 
L 92.9042 50.012391 
L 93.8249 50.721764 
L 94.7456 51.791961 
L 95.6663 53.207828 
L 96.8939 55.597087 
L 98.1215 58.505637 
L 99.656 62.767143 
L 101.4974 68.603066 
L 104.2595 78.263453 
L 109.1699 95.619302 
L 111.3182 102.423764 
L 113.1596 107.610575 
L 115.001 112.113941 
L 116.5355 115.317345 
L 118.07 118.021625 
L 119.6045 120.245129 
L 121.139 122.020468 
L 122.6735 123.391636 
L 124.208 124.411113 
L 125.7425 125.136926 
L 127.277 125.629822 
L 129.1184 125.999577 
L 131.8805 126.3065 
L 136.1771 126.794268 
L 138.6323 127.330306 
L 140.7806 128.029283 
L 142.9289 128.953589 
L 145.3841 130.262612 
L 148.4531 132.184291 
L 157.3532 137.978219 
L 159.8084 139.243746 
L 162.2636 140.256485 
L 164.4119 140.918929 
L 166.5602 141.373397 
L 169.0154 141.653784 
L 171.4706 141.710437 
L 174.2327 141.559126 
L 177.9155 141.113983 
L 191.726 139.169384 
L 195.7157 138.970879 
L 199.3985 139.017851 
L 203.0813 139.298001 
L 206.7641 139.806309 
L 210.14 140.449041 
L 210.14 140.449041 
" style="fill:none;stroke:#0000ff;stroke-linecap:square;stroke-width:0.6;"/>
   </g>
   <g id="line2d_15">
    <path clip-path="url(#pbefb0a2e0b)" d="M 26.3069 136.173913 
L 43.1864 136.064254 
L 47.7899 135.808853 
L 50.8589 135.416833 
L 53.3141 134.869318 
L 55.1555 134.256159 
L 56.9969 133.409289 
L 58.5314 132.479601 
L 60.0659 131.303463 
L 61.6004 129.838764 
L 63.1349 128.043556 
L 64.6694 125.878692 
L 66.2039 123.310835 
L 67.7384 120.315707 
L 69.2729 116.881879 
L 71.1143 112.190154 
L 73.2626 105.991135 
L 75.7178 98.14254 
L 83.0834 73.890048 
L 84.9248 68.908269 
L 86.4593 65.451112 
L 87.6869 63.226115 
L 88.6076 61.905817 
L 89.5283 60.902578 
L 90.449 60.228666 
L 91.3697 59.891965 
L 91.9835 59.856349 
L 92.5973 59.972128 
L 93.518 60.426282 
L 94.4387 61.210287 
L 95.3594 62.31274 
L 96.2801 63.717808 
L 97.5077 66.027033 
L 98.7353 68.783933 
L 100.2698 72.761821 
L 102.4181 79.076017 
L 106.1009 90.871166 
L 109.4768 101.402285 
L 111.6251 107.418874 
L 113.4665 111.969514 
L 115.3079 115.884868 
L 116.8424 118.641763 
L 118.3769 120.942683 
L 119.9114 122.808 
L 121.4459 124.271211 
L 122.9804 125.376064 
L 124.5149 126.173646 
L 126.0494 126.71939 
L 127.8908 127.122422 
L 130.346 127.390172 
L 136.484 127.91198 
L 138.9392 128.418781 
L 141.0875 129.083202 
L 143.5427 130.096183 
L 146.3048 131.51255 
L 149.9876 133.688932 
L 155.8187 137.136952 
L 158.5808 138.506872 
L 161.036 139.492334 
L 163.4912 140.231098 
L 165.9464 140.718677 
L 168.4016 140.969458 
L 171.1637 141.004794 
L 174.2327 140.80286 
L 178.2224 140.295943 
L 189.8846 138.664366 
L 193.8743 138.39499 
L 197.5571 138.354174 
L 201.2399 138.527527 
L 204.9227 138.914093 
L 208.9124 139.549236 
L 210.14 139.781584 
L 210.14 139.781584 
" style="fill:none;stroke:#00ff00;stroke-linecap:square;stroke-width:0.6;"/>
   </g>
   <g id="line2d_16">
    <path clip-path="url(#pbefb0a2e0b)" d="M 26.3069 136.173913 
L 43.1864 136.068541 
L 47.7899 135.827436 
L 50.8589 135.461459 
L 53.3141 134.955702 
L 55.4624 134.280461 
L 57.3038 133.46862 
L 59.1452 132.383227 
L 60.6797 131.227491 
L 62.2142 129.805915 
L 63.7487 128.085164 
L 65.2832 126.036578 
L 66.8177 123.638269 
L 68.6591 120.283534 
L 70.5005 116.41433 
L 72.6488 111.301703 
L 75.104 104.829847 
L 82.4696 84.850044 
L 84.311 80.750243 
L 85.8455 77.9061 
L 87.0731 76.075346 
L 88.3007 74.683602 
L 89.2214 73.946184 
L 90.1421 73.481331 
L 91.0628 73.293586 
L 91.9835 73.384259 
L 92.9042 73.751101 
L 93.8249 74.387194 
L 94.7456 75.282831 
L 95.9732 76.858702 
L 97.2008 78.833796 
L 98.7353 81.792561 
L 100.5767 85.922103 
L 103.0319 92.085381 
L 109.4768 108.677096 
L 111.6251 113.48246 
L 113.4665 117.098717 
L 115.3079 120.19946 
L 116.8424 122.3778 
L 118.3769 124.193298 
L 119.9114 125.663611 
L 121.4459 126.815862 
L 122.9804 127.684518 
L 124.5149 128.30944 
L 126.3563 128.798474 
L 128.5046 129.10594 
L 131.5736 129.275912 
L 136.484 129.545092 
L 139.2461 129.956693 
L 141.7013 130.552268 
L 144.1565 131.365059 
L 147.2255 132.636277 
L 151.829 134.837753 
L 156.7394 137.116746 
L 159.8084 138.294634 
L 162.5705 139.116624 
L 165.3326 139.690495 
L 168.0947 140.021192 
L 170.8568 140.134422 
L 174.2327 140.036296 
L 178.5293 139.664522 
L 191.4191 138.39262 
L 196.0226 138.25219 
L 200.3192 138.350795 
L 204.6158 138.678727 
L 209.2193 139.262332 
L 210.14 139.402697 
L 210.14 139.402697 
" style="fill:none;stroke:#ff0000;stroke-linecap:square;stroke-width:0.6;"/>
   </g>
   <g id="line2d_17">
    <path clip-path="url(#pbefb0a2e0b)" d="M 26.6138 136.173913 
L 41.345 136.078584 
L 45.6416 135.864476 
L 48.7106 135.501533 
L 51.1658 134.974629 
L 53.0072 134.363584 
L 54.8486 133.496081 
L 56.69 132.288326 
L 57.9176 131.246562 
L 59.1452 129.980269 
L 60.3728 128.455457 
L 61.6004 126.637741 
L 62.828 124.492316 
L 64.0556 121.986908 
L 65.2832 119.091152 
L 66.5108 115.779495 
L 68.3522 109.992687 
L 70.1936 103.201675 
L 72.035 95.433277 
L 73.8764 86.782845 
L 76.3316 74.178837 
L 83.0834 38.628534 
L 84.9248 30.463285 
L 86.1524 25.772848 
L 87.38 21.803617 
L 88.6076 18.642588 
L 89.8352 16.357473 
L 90.449 15.559809 
L 91.0628 14.997696 
L 91.6766 14.673891 
L 92.2904 14.589352 
L 92.9042 14.744141 
L 93.518 15.136587 
L 94.1318 15.76303 
L 94.7456 16.619404 
L 95.9732 18.997785 
L 97.2008 22.210205 
L 98.4284 26.178976 
L 99.656 30.809149 
L 101.4974 38.764069 
L 103.9526 50.655596 
L 110.0906 81.271793 
L 111.932 89.413392 
L 113.7734 96.685849 
L 115.6148 102.978648 
L 117.4562 108.244343 
L 118.6838 111.188412 
L 119.9114 113.696317 
L 121.139 115.793085 
L 122.3666 117.509556 
L 123.5942 118.882674 
L 124.8218 119.953559 
L 126.0494 120.764962 
L 127.277 121.362589 
L 129.1184 121.954098 
L 131.5736 122.399189 
L 135.8702 123.056223 
L 137.7116 123.533612 
L 139.553 124.214549 
L 141.3944 125.125497 
L 143.2358 126.268469 
L 145.691 128.120801 
L 148.1462 130.266286 
L 157.967 139.220134 
L 160.4222 140.942414 
L 162.2636 141.99411 
L 164.105 142.826016 
L 165.9464 143.437098 
L 167.7878 143.835075 
L 169.6292 144.035802 
L 172.0844 144.035157 
L 174.5396 143.785656 
L 177.6086 143.227736 
L 183.1328 141.921052 
L 188.0432 140.84741 
L 191.726 140.277501 
L 194.795 140.010031 
L 197.864 139.94916 
L 200.933 140.098362 
L 204.002 140.451343 
L 207.6848 141.12133 
L 210.14 141.695481 
L 210.14 141.695481 
" style="fill:none;stroke:#000000;stroke-dasharray:4.44,1.92;stroke-dashoffset:0;stroke-width:1.2;"/>
   </g>
   <g id="line2d_18">
    <path clip-path="url(#pbefb0a2e0b)" d="M 26.6138 136.173913 
L 42.5726 136.068869 
L 46.8692 135.84715 
L 49.9382 135.484705 
L 52.3934 134.970179 
L 54.2348 134.38667 
L 56.0762 133.570213 
L 57.9176 132.455213 
L 59.759 130.964919 
L 60.9866 129.720422 
L 62.2142 128.248564 
L 63.4418 126.523147 
L 64.6694 124.523082 
L 66.5108 120.96288 
L 68.3522 116.69149 
L 70.1936 111.6919 
L 72.035 105.987057 
L 74.4902 97.418085 
L 77.5592 85.639193 
L 81.8558 68.997461 
L 83.6972 62.578929 
L 85.5386 57.007271 
L 86.7662 53.895022 
L 87.9938 51.344574 
L 89.2214 49.411428 
L 90.449 48.136926 
L 91.0628 47.755661 
L 91.6766 47.547724 
L 92.2904 47.513536 
L 92.9042 47.6532 
L 93.518 47.965483 
L 94.1318 48.447499 
L 94.7456 49.096065 
L 95.9732 50.875285 
L 97.2008 53.257978 
L 98.4284 56.186795 
L 99.656 59.59261 
L 101.4974 65.42726 
L 103.9526 74.125285 
L 110.0906 96.439788 
L 111.932 102.357677 
L 113.7734 107.636933 
L 115.6148 112.199391 
L 117.4562 116.011461 
L 118.6838 118.139635 
L 119.9114 119.950113 
L 121.139 121.461237 
L 122.3666 122.695462 
L 123.5942 123.680104 
L 124.8218 124.444717 
L 126.0494 125.020641 
L 127.8908 125.602705 
L 129.7322 125.94268 
L 133.415 126.299056 
L 136.484 126.661767 
L 138.9392 127.190853 
L 141.3944 128.009389 
L 143.8496 129.13017 
L 146.3048 130.518707 
L 149.3738 132.521782 
L 156.7394 137.476391 
L 159.1946 138.856053 
L 161.6498 139.991202 
L 164.105 140.851926 
L 166.5602 141.432317 
L 169.0154 141.747588 
L 171.4706 141.829361 
L 174.5396 141.668643 
L 178.2224 141.215225 
L 191.1122 139.360762 
L 194.795 139.124796 
L 198.4778 139.091112 
L 202.1606 139.26443 
L 206.4572 139.715502 
L 210.14 140.287905 
L 210.14 140.287905 
" style="fill:none;stroke:#0000ff;stroke-dasharray:4.44,1.92;stroke-dashoffset:0;stroke-width:1.2;"/>
   </g>
   <g id="line2d_19">
    <path clip-path="url(#pbefb0a2e0b)" d="M 26.6138 136.173913 
L 43.1864 136.071498 
L 47.483 135.857429 
L 50.552 135.510204 
L 53.0072 135.021623 
L 54.8486 134.470756 
L 56.69 133.704416 
L 58.5314 132.662404 
L 60.3728 131.277724 
L 62.2142 129.477181 
L 63.4418 128.011086 
L 64.6694 126.308724 
L 66.5108 123.275849 
L 68.3522 119.631482 
L 70.1936 115.359707 
L 72.035 110.479419 
L 74.4902 103.138284 
L 77.5592 93.029099 
L 81.8558 78.714485 
L 83.6972 73.180638 
L 85.5386 68.367898 
L 86.7662 65.67441 
L 87.9938 63.461495 
L 89.2214 61.777205 
L 90.449 60.65741 
L 91.0628 60.31721 
L 91.6766 60.125971 
L 92.2904 60.084225 
L 92.9042 60.191812 
L 93.518 60.447661 
L 94.1318 60.849665 
L 95.3594 62.080229 
L 96.587 63.85201 
L 97.8146 66.120909 
L 99.0422 68.832888 
L 100.8836 73.594137 
L 103.3388 80.870911 
L 110.7044 103.737973 
L 112.5458 108.656276 
L 114.3872 112.99288 
L 116.2286 116.691348 
L 118.07 119.734354 
L 119.2976 121.407926 
L 120.5252 122.811475 
L 121.7528 123.963688 
L 122.9804 124.887841 
L 124.208 125.608583 
L 126.0494 126.370216 
L 127.8908 126.836122 
L 130.346 127.165296 
L 136.484 127.757207 
L 138.9392 128.273097 
L 141.3944 129.054562 
L 143.8496 130.10351 
L 146.9186 131.729216 
L 151.2152 134.332327 
L 155.5118 136.888564 
L 158.5808 138.447851 
L 161.036 139.451563 
L 163.4912 140.208112 
L 165.9464 140.712313 
L 168.4016 140.978523 
L 170.8568 141.03578 
L 173.9258 140.872355 
L 177.6086 140.443542 
L 190.4984 138.722331 
L 194.795 138.484239 
L 199.0916 138.495082 
L 203.3882 138.749281 
L 207.6848 139.219199 
L 210.14 139.565518 
L 210.14 139.565518 
" style="fill:none;stroke:#00ff00;stroke-dasharray:4.44,1.92;stroke-dashoffset:0;stroke-width:1.2;"/>
   </g>
   <g id="line2d_20">
    <path clip-path="url(#pbefb0a2e0b)" d="M 26.6138 136.173913 
L 43.1864 136.066552 
L 47.483 135.842075 
L 50.552 135.48417 
L 53.0072 134.985495 
L 54.8486 134.426456 
L 56.69 133.651214 
L 58.5314 132.603468 
L 60.3728 131.218553 
L 62.2142 129.427009 
L 64.0556 127.162934 
L 65.897 124.369681 
L 67.7384 121.003484 
L 69.5798 117.045219 
L 71.4212 112.509819 
L 73.2626 107.448082 
L 75.7178 100.050425 
L 82.4696 78.994259 
L 84.311 74.09211 
L 85.5386 71.252532 
L 86.7662 68.828079 
L 87.9938 66.869817 
L 89.2214 65.42109 
L 90.449 64.511968 
L 91.0628 64.266506 
L 91.6766 64.162068 
L 92.2904 64.198333 
L 92.9042 64.375109 
L 93.518 64.691273 
L 94.7456 65.730432 
L 95.9732 67.288238 
L 97.2008 69.326972 
L 98.4284 71.796742 
L 100.2698 76.184574 
L 102.1112 81.198642 
L 105.1802 90.319714 
L 108.863 101.271662 
L 111.3182 107.897163 
L 113.1596 112.289675 
L 115.001 116.103292 
L 116.8424 119.302674 
L 118.6838 121.890391 
L 119.9114 123.289895 
L 121.139 124.447477 
L 122.3666 125.382969 
L 123.5942 126.118938 
L 125.4356 126.90539 
L 127.277 127.391572 
L 129.7322 127.730509 
L 137.7116 128.501637 
L 140.1668 129.095441 
L 142.622 129.943802 
L 145.0772 131.027505 
L 148.1462 132.630865 
L 156.7394 137.348303 
L 159.8084 138.677145 
L 162.2636 139.500911 
L 164.7188 140.095371 
L 167.174 140.465903 
L 169.6292 140.632777 
L 172.6982 140.603456 
L 176.381 140.317932 
L 183.1328 139.494316 
L 189.2708 138.845188 
L 193.5674 138.598774 
L 197.864 138.565374 
L 202.1606 138.748543 
L 207.071 139.200025 
L 210.14 139.589832 
L 210.14 139.589832 
" style="fill:none;stroke:#ff0000;stroke-dasharray:4.44,1.92;stroke-dashoffset:0;stroke-width:1.2;"/>
   </g>
   <g id="patch_3">
    <path d="M 26 142.2 
L 26 3.6 
" style="fill:none;stroke:#000000;stroke-linecap:square;stroke-linejoin:miter;stroke-width:0.5;"/>
   </g>
   <g id="patch_4">
    <path d="M 210.14 142.2 
L 210.14 3.6 
" style="fill:none;stroke:#000000;stroke-linecap:square;stroke-linejoin:miter;stroke-width:0.5;"/>
   </g>
   <g id="patch_5">
    <path d="M 26 142.2 
L 210.14 142.2 
" style="fill:none;stroke:#000000;stroke-linecap:square;stroke-linejoin:miter;stroke-width:0.5;"/>
   </g>
   <g id="patch_6">
    <path d="M 26 3.6 
L 210.14 3.6 
" style="fill:none;stroke:#000000;stroke-linecap:square;stroke-linejoin:miter;stroke-width:0.5;"/>
   </g>
   <g id="text_15">
    <!-- $E_y$ at Node C of the Corner -->
    <g transform="translate(44.414 15.652174)scale(0.08 -0.08)">
     <defs>
      <path d="M 28.46875 6.453125 
Q 21.578125 1.125 19.828125 0.296875 
Q 17.1875 -0.921875 14.203125 -0.921875 
Q 9.578125 -0.921875 6.5625 2.25 
Q 3.5625 5.421875 3.5625 10.59375 
Q 3.5625 13.875 5.03125 16.265625 
Q 7.03125 19.578125 11.984375 22.5 
Q 16.9375 25.4375 28.46875 29.640625 
L 28.46875 31.390625 
Q 28.46875 38.09375 26.34375 40.578125 
Q 24.21875 43.0625 20.171875 43.0625 
Q 17.09375 43.0625 15.28125 41.40625 
Q 13.421875 39.75 13.421875 37.59375 
L 13.53125 34.765625 
Q 13.53125 32.515625 12.375 31.296875 
Q 11.234375 30.078125 9.375 30.078125 
Q 7.5625 30.078125 6.421875 31.34375 
Q 5.28125 32.625 5.28125 34.8125 
Q 5.28125 39.015625 9.578125 42.53125 
Q 13.875 46.046875 21.625 46.046875 
Q 27.59375 46.046875 31.390625 44.046875 
Q 34.28125 42.53125 35.640625 39.3125 
Q 36.53125 37.203125 36.53125 30.71875 
L 36.53125 15.53125 
Q 36.53125 9.125 36.765625 7.6875 
Q 37.015625 6.25 37.578125 5.765625 
Q 38.140625 5.28125 38.875 5.28125 
Q 39.65625 5.28125 40.234375 5.609375 
Q 41.265625 6.25 44.1875 9.1875 
L 44.1875 6.453125 
Q 38.71875 -0.875 33.734375 -0.875 
Q 31.34375 -0.875 29.921875 0.78125 
Q 28.515625 2.4375 28.46875 6.453125 
z
M 28.46875 9.625 
L 28.46875 26.65625 
Q 21.09375 23.734375 18.953125 22.515625 
Q 15.09375 20.359375 13.421875 18.015625 
Q 11.765625 15.671875 11.765625 12.890625 
Q 11.765625 9.375 13.859375 7.046875 
Q 15.96875 4.734375 18.703125 4.734375 
Q 22.40625 4.734375 28.46875 9.625 
z
" id="TimesNewRomanPSMT-97"/>
      <path d="M -1.3125 66.21875 
L 16.65625 66.21875 
L 57.125 16.546875 
L 57.125 54.734375 
Q 57.125 60.84375 55.765625 62.359375 
Q 53.953125 64.40625 50.046875 64.40625 
L 47.75 64.40625 
L 47.75 66.21875 
L 70.796875 66.21875 
L 70.796875 64.40625 
L 68.453125 64.40625 
Q 64.265625 64.40625 62.5 61.859375 
Q 61.421875 60.296875 61.421875 54.734375 
L 61.421875 -1.078125 
L 59.671875 -1.078125 
L 16.015625 52.25 
L 16.015625 11.46875 
Q 16.015625 5.375 17.328125 3.859375 
Q 19.1875 1.8125 23.046875 1.8125 
L 25.390625 1.8125 
L 25.390625 0 
L 2.34375 0 
L 2.34375 1.8125 
L 4.640625 1.8125 
Q 8.890625 1.8125 10.640625 4.34375 
Q 11.71875 5.90625 11.71875 11.46875 
L 11.71875 57.515625 
Q 8.84375 60.890625 7.34375 61.953125 
Q 5.859375 63.03125 2.984375 63.96875 
Q 1.5625 64.40625 -1.3125 64.40625 
z
" id="TimesNewRomanPSMT-78"/>
      <path d="M 25 46.046875 
Q 35.15625 46.046875 41.3125 38.328125 
Q 46.53125 31.734375 46.53125 23.1875 
Q 46.53125 17.1875 43.640625 11.03125 
Q 40.765625 4.890625 35.71875 1.75 
Q 30.671875 -1.375 24.46875 -1.375 
Q 14.359375 -1.375 8.40625 6.6875 
Q 3.375 13.484375 3.375 21.921875 
Q 3.375 28.078125 6.421875 34.15625 
Q 9.46875 40.234375 14.453125 43.140625 
Q 19.4375 46.046875 25 46.046875 
z
M 23.484375 42.875 
Q 20.90625 42.875 18.28125 41.328125 
Q 15.671875 39.796875 14.0625 35.9375 
Q 12.453125 32.078125 12.453125 26.03125 
Q 12.453125 16.265625 16.328125 9.171875 
Q 20.21875 2.09375 26.5625 2.09375 
Q 31.296875 2.09375 34.375 6 
Q 37.453125 9.90625 37.453125 19.4375 
Q 37.453125 31.34375 32.328125 38.1875 
Q 28.859375 42.875 23.484375 42.875 
z
" id="TimesNewRomanPSMT-111"/>
      <path d="M 60.203125 67.71875 
L 61.71875 45.21875 
L 60.203125 45.21875 
Q 57.171875 55.328125 51.5625 59.765625 
Q 45.953125 64.203125 38.09375 64.203125 
Q 31.5 64.203125 26.171875 60.859375 
Q 20.84375 57.515625 17.796875 50.1875 
Q 14.75 42.875 14.75 31.984375 
Q 14.75 23 17.625 16.40625 
Q 20.515625 9.8125 26.296875 6.296875 
Q 32.078125 2.78125 39.5 2.78125 
Q 45.953125 2.78125 50.875 5.53125 
Q 55.8125 8.296875 61.71875 16.5 
L 63.234375 15.53125 
Q 58.25 6.6875 51.609375 2.578125 
Q 44.96875 -1.515625 35.84375 -1.515625 
Q 19.390625 -1.515625 10.359375 10.6875 
Q 3.609375 19.78125 3.609375 32.078125 
Q 3.609375 42 8.046875 50.296875 
Q 12.5 58.59375 20.28125 63.15625 
Q 28.078125 67.71875 37.3125 67.71875 
Q 44.484375 67.71875 51.46875 64.203125 
Q 53.515625 63.140625 54.390625 63.140625 
Q 55.71875 63.140625 56.6875 64.0625 
Q 57.953125 65.375 58.5 67.71875 
z
" id="TimesNewRomanPSMT-67"/>
      <path d="M 16.265625 69.4375 
L 16.265625 36.71875 
Q 21.6875 42.671875 24.859375 44.359375 
Q 28.03125 46.046875 31.203125 46.046875 
Q 35.015625 46.046875 37.75 43.9375 
Q 40.484375 41.84375 41.796875 37.359375 
Q 42.71875 34.234375 42.71875 25.921875 
L 42.71875 10.109375 
Q 42.71875 5.859375 43.40625 4.296875 
Q 43.890625 3.125 45.0625 2.4375 
Q 46.234375 1.765625 49.359375 1.765625 
L 49.359375 0 
L 27.390625 0 
L 27.390625 1.765625 
L 28.421875 1.765625 
Q 31.546875 1.765625 32.765625 2.703125 
Q 33.984375 3.65625 34.46875 5.515625 
Q 34.625 6.296875 34.625 10.109375 
L 34.625 25.921875 
Q 34.625 33.25 33.859375 35.546875 
Q 33.109375 37.84375 31.4375 38.984375 
Q 29.78125 40.140625 27.4375 40.140625 
Q 25.046875 40.140625 22.453125 38.859375 
Q 19.875 37.59375 16.265625 33.734375 
L 16.265625 10.109375 
Q 16.265625 5.515625 16.765625 4.390625 
Q 17.28125 3.265625 18.671875 2.515625 
Q 20.0625 1.765625 23.484375 1.765625 
L 23.484375 0 
L 1.3125 0 
L 1.3125 1.765625 
Q 4.296875 1.765625 6 2.6875 
Q 6.984375 3.171875 7.5625 4.53125 
Q 8.15625 5.90625 8.15625 10.109375 
L 8.15625 50.59375 
Q 8.15625 58.25 7.78125 60 
Q 7.421875 61.765625 6.65625 62.390625 
Q 5.90625 63.03125 4.640625 63.03125 
Q 3.609375 63.03125 1.3125 62.25 
L 0.640625 63.96875 
L 14.015625 69.4375 
z
" id="TimesNewRomanPSMT-104"/>
     </defs>
     <use transform="translate(0 0.09375)" xlink:href="#DejaVuSerif-Italic-69"/>
     <use transform="translate(72.998047 -15.478125)scale(0.7)" xlink:href="#DejaVuSerif-Italic-121"/>
     <use transform="translate(115.139258 0.09375)" xlink:href="#TimesNewRomanPSMT-32"/>
     <use transform="translate(140.139258 0.09375)" xlink:href="#TimesNewRomanPSMT-97"/>
     <use transform="translate(184.524023 0.09375)" xlink:href="#TimesNewRomanPSMT-116"/>
     <use transform="translate(212.307227 0.09375)" xlink:href="#TimesNewRomanPSMT-32"/>
     <use transform="translate(237.307227 0.09375)" xlink:href="#TimesNewRomanPSMT-78"/>
     <use transform="translate(309.524023 0.09375)" xlink:href="#TimesNewRomanPSMT-111"/>
     <use transform="translate(359.524023 0.09375)" xlink:href="#TimesNewRomanPSMT-100"/>
     <use transform="translate(409.524023 0.09375)" xlink:href="#TimesNewRomanPSMT-101"/>
     <use transform="translate(453.908789 0.09375)" xlink:href="#TimesNewRomanPSMT-32"/>
     <use transform="translate(478.908789 0.09375)" xlink:href="#TimesNewRomanPSMT-67"/>
     <use transform="translate(545.608008 0.09375)" xlink:href="#TimesNewRomanPSMT-32"/>
     <use transform="translate(570.608008 0.09375)" xlink:href="#TimesNewRomanPSMT-111"/>
     <use transform="translate(620.608008 0.09375)" xlink:href="#TimesNewRomanPSMT-102"/>
     <use transform="translate(653.908789 0.09375)" xlink:href="#TimesNewRomanPSMT-32"/>
     <use transform="translate(678.908789 0.09375)" xlink:href="#TimesNewRomanPSMT-116"/>
     <use transform="translate(706.691992 0.09375)" xlink:href="#TimesNewRomanPSMT-104"/>
     <use transform="translate(756.691992 0.09375)" xlink:href="#TimesNewRomanPSMT-101"/>
     <use transform="translate(801.076758 0.09375)" xlink:href="#TimesNewRomanPSMT-32"/>
     <use transform="translate(826.076758 0.09375)" xlink:href="#TimesNewRomanPSMT-67"/>
     <use transform="translate(892.775977 0.09375)" xlink:href="#TimesNewRomanPSMT-111"/>
     <use transform="translate(942.775977 0.09375)" xlink:href="#TimesNewRomanPSMT-114"/>
     <use transform="translate(976.076758 0.09375)" xlink:href="#TimesNewRomanPSMT-110"/>
     <use transform="translate(1026.076758 0.09375)" xlink:href="#TimesNewRomanPSMT-101"/>
     <use transform="translate(1070.461523 0.09375)" xlink:href="#TimesNewRomanPSMT-114"/>
    </g>
   </g>
   <g id="legend_1">
    <g id="patch_7">
     <path d="M 137.605 72.49 
L 204.54 72.49 
Q 206.14 72.49 206.14 70.89 
L 206.14 9.2 
Q 206.14 7.6 204.54 7.6 
L 137.605 7.6 
Q 136.005 7.6 136.005 9.2 
L 136.005 70.89 
Q 136.005 72.49 137.605 72.49 
z
" style="fill:#ffffff;opacity:0.8;stroke:#cccccc;stroke-linejoin:miter;"/>
    </g>
    <g id="line2d_21">
     <path d="M 139.205 13.6 
L 155.205 13.6 
" style="fill:none;stroke:#000000;stroke-linecap:square;stroke-width:0.6;"/>
    </g>
    <g id="line2d_22"/>
    <g id="text_16">
     <!-- Fine Grid S1 -->
     <g transform="translate(161.605 16.4)scale(0.08 -0.08)">
      <defs>
       <path d="M 61.375 67.71875 
L 63.09375 46.828125 
L 61.375 46.828125 
Q 58.796875 54.640625 54.6875 58.59375 
Q 48.78125 64.3125 39.5 64.3125 
Q 26.859375 64.3125 20.265625 54.296875 
Q 14.75 45.84375 14.75 34.1875 
Q 14.75 24.703125 18.40625 16.890625 
Q 22.078125 9.078125 28 5.4375 
Q 33.9375 1.8125 40.1875 1.8125 
Q 43.84375 1.8125 47.265625 2.734375 
Q 50.6875 3.65625 53.859375 5.46875 
L 53.859375 24.609375 
Q 53.859375 29.59375 53.09375 31.125 
Q 52.34375 32.671875 50.75 33.46875 
Q 49.171875 34.28125 45.171875 34.28125 
L 45.171875 36.140625 
L 70.796875 36.140625 
L 70.796875 34.28125 
L 69.578125 34.28125 
Q 65.765625 34.28125 64.359375 31.734375 
Q 63.375 29.9375 63.375 24.609375 
L 63.375 4.34375 
Q 57.765625 1.3125 52.296875 -0.09375 
Q 46.828125 -1.515625 40.140625 -1.515625 
Q 20.953125 -1.515625 10.984375 10.796875 
Q 3.515625 20.015625 3.515625 32.078125 
Q 3.515625 40.828125 7.71875 48.828125 
Q 12.703125 58.34375 21.390625 63.484375 
Q 28.65625 67.71875 38.578125 67.71875 
Q 42.1875 67.71875 45.140625 67.125 
Q 48.09375 66.546875 53.515625 64.546875 
Q 56.25 63.53125 57.171875 63.53125 
Q 58.109375 63.53125 58.765625 64.375 
Q 59.421875 65.234375 59.578125 67.71875 
z
" id="TimesNewRomanPSMT-71"/>
      </defs>
      <use xlink:href="#TimesNewRomanPSMT-70"/>
      <use x="55.615234" xlink:href="#TimesNewRomanPSMT-105"/>
      <use x="83.398438" xlink:href="#TimesNewRomanPSMT-110"/>
      <use x="133.398438" xlink:href="#TimesNewRomanPSMT-101"/>
      <use x="177.783203" xlink:href="#TimesNewRomanPSMT-32"/>
      <use x="202.783203" xlink:href="#TimesNewRomanPSMT-71"/>
      <use x="275" xlink:href="#TimesNewRomanPSMT-114"/>
      <use x="308.300781" xlink:href="#TimesNewRomanPSMT-105"/>
      <use x="336.083984" xlink:href="#TimesNewRomanPSMT-100"/>
      <use x="386.083984" xlink:href="#TimesNewRomanPSMT-32"/>
      <use x="411.083984" xlink:href="#TimesNewRomanPSMT-83"/>
      <use x="466.699219" xlink:href="#TimesNewRomanPSMT-49"/>
     </g>
    </g>
    <g id="line2d_23">
     <path d="M 139.205 20.91125 
L 155.205 20.91125 
" style="fill:none;stroke:#0000ff;stroke-linecap:square;stroke-width:0.6;"/>
    </g>
    <g id="line2d_24"/>
    <g id="text_17">
     <!-- Fine Grid S2 -->
     <g transform="translate(161.605 23.71125)scale(0.08 -0.08)">
      <use xlink:href="#TimesNewRomanPSMT-70"/>
      <use x="55.615234" xlink:href="#TimesNewRomanPSMT-105"/>
      <use x="83.398438" xlink:href="#TimesNewRomanPSMT-110"/>
      <use x="133.398438" xlink:href="#TimesNewRomanPSMT-101"/>
      <use x="177.783203" xlink:href="#TimesNewRomanPSMT-32"/>
      <use x="202.783203" xlink:href="#TimesNewRomanPSMT-71"/>
      <use x="275" xlink:href="#TimesNewRomanPSMT-114"/>
      <use x="308.300781" xlink:href="#TimesNewRomanPSMT-105"/>
      <use x="336.083984" xlink:href="#TimesNewRomanPSMT-100"/>
      <use x="386.083984" xlink:href="#TimesNewRomanPSMT-32"/>
      <use x="411.083984" xlink:href="#TimesNewRomanPSMT-83"/>
      <use x="466.699219" xlink:href="#TimesNewRomanPSMT-50"/>
     </g>
    </g>
    <g id="line2d_25">
     <path d="M 139.205 28.2225 
L 155.205 28.2225 
" style="fill:none;stroke:#00ff00;stroke-linecap:square;stroke-width:0.6;"/>
    </g>
    <g id="line2d_26"/>
    <g id="text_18">
     <!-- Fine Grid S3 -->
     <g transform="translate(161.605 31.0225)scale(0.08 -0.08)">
      <use xlink:href="#TimesNewRomanPSMT-70"/>
      <use x="55.615234" xlink:href="#TimesNewRomanPSMT-105"/>
      <use x="83.398438" xlink:href="#TimesNewRomanPSMT-110"/>
      <use x="133.398438" xlink:href="#TimesNewRomanPSMT-101"/>
      <use x="177.783203" xlink:href="#TimesNewRomanPSMT-32"/>
      <use x="202.783203" xlink:href="#TimesNewRomanPSMT-71"/>
      <use x="275" xlink:href="#TimesNewRomanPSMT-114"/>
      <use x="308.300781" xlink:href="#TimesNewRomanPSMT-105"/>
      <use x="336.083984" xlink:href="#TimesNewRomanPSMT-100"/>
      <use x="386.083984" xlink:href="#TimesNewRomanPSMT-32"/>
      <use x="411.083984" xlink:href="#TimesNewRomanPSMT-83"/>
      <use x="466.699219" xlink:href="#TimesNewRomanPSMT-51"/>
     </g>
    </g>
    <g id="line2d_27">
     <path d="M 139.205 35.53375 
L 155.205 35.53375 
" style="fill:none;stroke:#ff0000;stroke-linecap:square;stroke-width:0.6;"/>
    </g>
    <g id="line2d_28"/>
    <g id="text_19">
     <!-- Fine Grid S4 -->
     <g transform="translate(161.605 38.33375)scale(0.08 -0.08)">
      <use xlink:href="#TimesNewRomanPSMT-70"/>
      <use x="55.615234" xlink:href="#TimesNewRomanPSMT-105"/>
      <use x="83.398438" xlink:href="#TimesNewRomanPSMT-110"/>
      <use x="133.398438" xlink:href="#TimesNewRomanPSMT-101"/>
      <use x="177.783203" xlink:href="#TimesNewRomanPSMT-32"/>
      <use x="202.783203" xlink:href="#TimesNewRomanPSMT-71"/>
      <use x="275" xlink:href="#TimesNewRomanPSMT-114"/>
      <use x="308.300781" xlink:href="#TimesNewRomanPSMT-105"/>
      <use x="336.083984" xlink:href="#TimesNewRomanPSMT-100"/>
      <use x="386.083984" xlink:href="#TimesNewRomanPSMT-32"/>
      <use x="411.083984" xlink:href="#TimesNewRomanPSMT-83"/>
      <use x="466.699219" xlink:href="#TimesNewRomanPSMT-52"/>
     </g>
    </g>
    <g id="line2d_29">
     <path d="M 139.205 42.845 
L 155.205 42.845 
" style="fill:none;stroke:#000000;stroke-dasharray:4.44,1.92;stroke-dashoffset:0;stroke-width:1.2;"/>
    </g>
    <g id="line2d_30"/>
    <g id="text_20">
     <!-- VIC S1 -->
     <g transform="translate(161.605 45.645)scale(0.08 -0.08)">
      <defs>
       <path d="M 30.859375 1.8125 
L 30.859375 0 
L 2.484375 0 
L 2.484375 1.8125 
L 4.828125 1.8125 
Q 8.9375 1.8125 10.796875 4.203125 
Q 11.96875 5.765625 11.96875 11.71875 
L 11.96875 54.5 
Q 11.96875 59.515625 11.328125 61.140625 
Q 10.84375 62.359375 9.328125 63.234375 
Q 7.171875 64.40625 4.828125 64.40625 
L 2.484375 64.40625 
L 2.484375 66.21875 
L 30.859375 66.21875 
L 30.859375 64.40625 
L 28.46875 64.40625 
Q 24.421875 64.40625 22.5625 62.015625 
Q 21.34375 60.453125 21.34375 54.5 
L 21.34375 11.71875 
Q 21.34375 6.6875 21.96875 5.078125 
Q 22.46875 3.859375 24.03125 2.984375 
Q 26.125 1.8125 28.46875 1.8125 
z
" id="TimesNewRomanPSMT-73"/>
      </defs>
      <use xlink:href="#TimesNewRomanPSMT-86"/>
      <use x="72.216797" xlink:href="#TimesNewRomanPSMT-73"/>
      <use x="105.517578" xlink:href="#TimesNewRomanPSMT-67"/>
      <use x="172.216797" xlink:href="#TimesNewRomanPSMT-32"/>
      <use x="197.216797" xlink:href="#TimesNewRomanPSMT-83"/>
      <use x="252.832031" xlink:href="#TimesNewRomanPSMT-49"/>
     </g>
    </g>
    <g id="line2d_31">
     <path d="M 139.205 50.15625 
L 155.205 50.15625 
" style="fill:none;stroke:#0000ff;stroke-dasharray:4.44,1.92;stroke-dashoffset:0;stroke-width:1.2;"/>
    </g>
    <g id="line2d_32"/>
    <g id="text_21">
     <!-- VIC S2 -->
     <g transform="translate(161.605 52.95625)scale(0.08 -0.08)">
      <use xlink:href="#TimesNewRomanPSMT-86"/>
      <use x="72.216797" xlink:href="#TimesNewRomanPSMT-73"/>
      <use x="105.517578" xlink:href="#TimesNewRomanPSMT-67"/>
      <use x="172.216797" xlink:href="#TimesNewRomanPSMT-32"/>
      <use x="197.216797" xlink:href="#TimesNewRomanPSMT-83"/>
      <use x="252.832031" xlink:href="#TimesNewRomanPSMT-50"/>
     </g>
    </g>
    <g id="line2d_33">
     <path d="M 139.205 57.4675 
L 155.205 57.4675 
" style="fill:none;stroke:#00ff00;stroke-dasharray:4.44,1.92;stroke-dashoffset:0;stroke-width:1.2;"/>
    </g>
    <g id="line2d_34"/>
    <g id="text_22">
     <!-- VIC S3 -->
     <g transform="translate(161.605 60.2675)scale(0.08 -0.08)">
      <use xlink:href="#TimesNewRomanPSMT-86"/>
      <use x="72.216797" xlink:href="#TimesNewRomanPSMT-73"/>
      <use x="105.517578" xlink:href="#TimesNewRomanPSMT-67"/>
      <use x="172.216797" xlink:href="#TimesNewRomanPSMT-32"/>
      <use x="197.216797" xlink:href="#TimesNewRomanPSMT-83"/>
      <use x="252.832031" xlink:href="#TimesNewRomanPSMT-51"/>
     </g>
    </g>
    <g id="line2d_35">
     <path d="M 139.205 64.77875 
L 155.205 64.77875 
" style="fill:none;stroke:#ff0000;stroke-dasharray:4.44,1.92;stroke-dashoffset:0;stroke-width:1.2;"/>
    </g>
    <g id="line2d_36"/>
    <g id="text_23">
     <!-- VIC S4 -->
     <g transform="translate(161.605 67.57875)scale(0.08 -0.08)">
      <use xlink:href="#TimesNewRomanPSMT-86"/>
      <use x="72.216797" xlink:href="#TimesNewRomanPSMT-73"/>
      <use x="105.517578" xlink:href="#TimesNewRomanPSMT-67"/>
      <use x="172.216797" xlink:href="#TimesNewRomanPSMT-32"/>
      <use x="197.216797" xlink:href="#TimesNewRomanPSMT-83"/>
      <use x="252.832031" xlink:href="#TimesNewRomanPSMT-52"/>
     </g>
    </g>
   </g>
  </g>
 </g>
 <defs>
  <clipPath id="pbefb0a2e0b">
   <rect height="138.6" width="184.14" x="26" y="3.6"/>
  </clipPath>
 </defs>
</svg>
